<svg xmlns="http://www.w3.org/2000/svg" viewBox="0 0 769.2 135.25"><title>mongabay_logo_de</title><g id="MONGABAY"><path d="M164.23,84q1.63-1.1,5.89-1.58,3.31-.16,3.94-.58a2,2,0,0,0,.63-.79q.79-1.94,1.16-10.52.48-11.2,1.55-29.81.86-14.19.86-17.71V21.68q-3.8-.79-12-1.68a2.52,2.52,0,0,1-.53-1.21,2.56,2.56,0,0,1,.37-.95,4.51,4.51,0,0,1,1.36-.32,16.74,16.74,0,0,1,1.84.21,52.74,52.74,0,0,0,7.08.37q1.47,0,5-.24,2.52-.18,2.83-.18a7.19,7.19,0,0,1,1.94.32,4.8,4.8,0,0,1,.81,1l2.2,4.94,14.88,32.91,6.2,13.81A233.74,233.74,0,0,0,221.58,45a8.67,8.67,0,0,1,.63-1.52,17.88,17.88,0,0,0,.89-2q.42-1.1,3.41-8.41,1.21-2.94,1.94-5,3-8.41,3.51-9.62a4.62,4.62,0,0,1,1.74-.42,18.84,18.84,0,0,1,2.16.16q3,.16,9.6.16,4.11,0,6.75-.11a5.32,5.32,0,0,1,.11.84,4.38,4.38,0,0,1-.16,1,9.43,9.43,0,0,1-4,1,26.37,26.37,0,0,0-5.94.74,2.69,2.69,0,0,0-1.6,1.21,21.19,21.19,0,0,0-.6,4.84L240,30.2l-.05,2.52q0,7.89.42,26.49l-.05,10.3.05,6.62q0,3.89.37,4.6a3.8,3.8,0,0,0,2.1,1.34A63.07,63.07,0,0,0,252.09,84a.81.81,0,0,1,.37.68c0,.32,0,.67-.05,1.05H250q-3.11,0-6.74-.18l-3.9-.18q-10.8,0-14.33.24-2.16.18-2.74.18a1.78,1.78,0,0,1-.79-.21v-.68a3.47,3.47,0,0,1,.16-1,16,16,0,0,1,4.73-1A17.65,17.65,0,0,0,231.22,81a43.91,43.91,0,0,0,.47-8.16l-.16-10.63q0-1.74.18-6.47t.18-15.42q0-8.47-.42-12.84-.89,1.84-3.51,8l-.79,2-.1.32-7.75,18.4-2.78,7.1-3.61,8.62q-2.36,5.94-4,10.51-.73,2.1-1.2,3.31l-1.23-.05q-5.95-17.35-14.19-35.59T180.74,26q-.43,2.26-1,13.14-.7,13.25-.7,29.18a96.43,96.43,0,0,0,.74,11.21,3.47,3.47,0,0,0,1.52,2.65q1.31.86,6.78,1a24.34,24.34,0,0,1,4,.31,3.33,3.33,0,0,1,.37,1.19,2.94,2.94,0,0,1-.26.92L175.88,85q-1.78,0-5.56.23-2.1.14-6,.19Z" transform="translate(-7.78 -5.52)"/><path d="M258.19,51.7a32.37,32.37,0,0,1,1.29-9.54,39.33,39.33,0,0,1,4.34-9.07,30.33,30.33,0,0,1,7.36-8.17,41.13,41.13,0,0,1,11.94-5.81,44.81,44.81,0,0,1,13.57-1.73,40.1,40.1,0,0,1,10.81,1.47,37.85,37.85,0,0,1,9.6,4.1,33.86,33.86,0,0,1,8.62,8.1,27.88,27.88,0,0,1,4.52,8.15,35.68,35.68,0,0,1,2,11.83,41.66,41.66,0,0,1-1.34,11.51,30.67,30.67,0,0,1-4.5,9,40.37,40.37,0,0,1-8.47,8A32.13,32.13,0,0,1,308,84.47a42.64,42.64,0,0,1-12.83,1.87,43.68,43.68,0,0,1-12.46-1.63,36,36,0,0,1-9.12-4,34.67,34.67,0,0,1-7.52-6.91,32.87,32.87,0,0,1-5.86-10.09A35.11,35.11,0,0,1,258.19,51.7Zm36.49,32.7a36.45,36.45,0,0,0,9.18-1.24,23,23,0,0,0,8.44-4.1,22.14,22.14,0,0,0,5.76-6.52,33.83,33.83,0,0,0,3.34-9.38,53.13,53.13,0,0,0,1.26-11.46,48.87,48.87,0,0,0-2.1-14.14,25.55,25.55,0,0,0-5.31-9.49,25.18,25.18,0,0,0-8.89-6.47,27.29,27.29,0,0,0-11.1-2.29,28.52,28.52,0,0,0-9.36,1.58,23.8,23.8,0,0,0-7.52,4,24.44,24.44,0,0,0-5.47,6.94,38.81,38.81,0,0,0-3.84,9.91,41.14,41.14,0,0,0-1.31,9.57,43.12,43.12,0,0,0,1.31,9.88,36.62,36.62,0,0,0,3.6,9.57A29.94,29.94,0,0,0,278.31,78a23.5,23.5,0,0,0,16.38,6.44Z" transform="translate(-7.78 -5.52)"/><path d="M338.8,21l-.05-2.52q8.15,0,11.94-.42,1.47-.16,2.05-.16t1.42.05a29.23,29.23,0,0,1,4.1,4.21l.95,1.05,11.1,12.25,1.58,1.89q3.36,3.94,6.13,6.73t10.75,11.62l12.57,13.93q1.84,2.05,4.73,5.1l.05-.84q-.31-7.31-.31-7.73L406,63l-.11-4.94V55.8q0-2.15-.37-13.3-.05-1.52-.42-5.76t-.37-7.44q0-5.78-.68-6.73-.47-.68-4.47-1.42-.95-.05-2.95-.32a14.72,14.72,0,0,1-2.79-.26,1.89,1.89,0,0,1-.84-.89,4.84,4.84,0,0,1,.47-1.58,9.79,9.79,0,0,1,2.79-.42,22.76,22.76,0,0,1,3.65.37,23.77,23.77,0,0,0,3.92.37q2.42,0,7.52-.32,2.89-.21,4-.21h.89l-.1,1.63a6.85,6.85,0,0,1-2.31.45,12,12,0,0,0-2.73.45,6,6,0,0,0-2.26,1,4.12,4.12,0,0,0-1.26,2.79l.58,16.61.42,7.62-.05,2.21.31,10.57q.32,10.83.32,18.82,0,1.73-.21,7.52l-2.45.21q-1.84-2.1-12.68-13.25-2.52-2.58-3.42-3.63l-4.52-5.2q-2.63-2.89-3.42-3.68l-1.16-1.16q-5.73-6.52-14.89-16.3-2.47-2.63-7.26-8.2-3-3.52-3.79-4.31a18.8,18.8,0,0,0-2.16-1.79L353.05,32q0,10.25.53,28.28l.37,17.4q.05,2.21.26,4.26l1.84.42q5,.47,9.83,1.42a4.75,4.75,0,0,0,.63.47l-.05,2a4.84,4.84,0,0,1-1.37.26,11.71,11.71,0,0,1-1.42-.11Q358.47,86,351,86q-5.26,0-9.25.26l-.74.05a12.86,12.86,0,0,1-1.37-.11l-.05-1.58L341,84l2.47-.37a24.7,24.7,0,0,0,4.84-1.05,3.85,3.85,0,0,0,1.63-1.1,72.67,72.67,0,0,0,.58-10.62q0-3.26-.16-11.93V51.8l-.11-14.93q-.11-10-.68-11.78a3.49,3.49,0,0,0-1.31-1.68A11.08,11.08,0,0,0,343,21.63,34.68,34.68,0,0,1,338.8,21Z" transform="translate(-7.78 -5.52)"/><path d="M490.56,21.47l.58,8q.32,3.63.32,4.94l-1.47.26q-3.52-8-8.75-12a20.48,20.48,0,0,0-12.8-4q-9.25,0-14.41,2.26a29.41,29.41,0,0,0-12.78,11.14q-5.31,7.94-5.31,19.13a32.7,32.7,0,0,0,1.95,11.62,35.24,35.24,0,0,0,5.5,9.59,37.37,37.37,0,0,0,8.39,7.7,23.32,23.32,0,0,0,7.52,3.26,34.77,34.77,0,0,0,7.36.58,31,31,0,0,0,7-.89,15.22,15.22,0,0,0,5.78-2.39,7.76,7.76,0,0,0,2.66-3.39q.71-1.89.71-7.36,0-9.09-1.21-10.59t-7.62-2l-2.1-.16-1.42.05-.84-.16-.79-1.31a1.2,1.2,0,0,1,.37-.68A101.42,101.42,0,0,1,481,54.69q2.05,0,6.68.11l5.42.21L498,55q1.42,0,3.42.1a.76.76,0,0,1,.47.18.73.73,0,0,1,.1.45,5.45,5.45,0,0,1-.26,1.47,17.58,17.58,0,0,1-3.42.47l-3.42-.05a3.51,3.51,0,0,0-2.79,1.21q-.53.58-.53,3.94l.05,6.89q0,7.1-.58,9a4.37,4.37,0,0,1-1.31,2.08,15.07,15.07,0,0,1-4.21,2.18,40.83,40.83,0,0,1-8.31,2.47,78.15,78.15,0,0,1-13.41,1.21q-10.41,0-17.06-2.66a34.22,34.22,0,0,1-11.46-7.39A30.22,30.22,0,0,1,428.46,67a35.77,35.77,0,0,1-3.1-14.46,36.82,36.82,0,0,1,4.86-18q4.86-8.8,15.7-14.32,7.62-3.89,20.72-3.89a57.44,57.44,0,0,1,14.8,1.58A37.71,37.71,0,0,1,490.56,21.47Z" transform="translate(-7.78 -5.52)"/><path d="M502.86,83.61a2.73,2.73,0,0,1,1.31-.42h1.21q.37,0,1.26-.05a20.61,20.61,0,0,0,4.78-.74,8.09,8.09,0,0,0,3.15-3.47,126.57,126.57,0,0,0,6.15-15.19q1.63-4.68,2.05-5.68,1.31-3.15,2.53-6.62l4.94-13.83q1.16-3.26,5.58-14.93,1.1-2.94,2.68-7.89l1.55-.1,1.84.05a72.76,72.76,0,0,1,4,9.62q.95,2.73,3.1,8.15l8,21.61,4.25,11.72q3.36,10,4.42,12.27a8.88,8.88,0,0,0,1.95,3,7.79,7.79,0,0,0,2,.63q1.71.42,2.39.63a21.8,21.8,0,0,1,3.37,1.16,2.87,2.87,0,0,1,.21.89,3.06,3.06,0,0,1-.16.79q-1.68.05-2.37.05-2.68,0-9.46-.16L558.28,85l-6.36.08q-.63,0-1.29-.06c-.44,0-.82-.06-1.13-.06h-1.16a2.6,2.6,0,0,1-1.05-.32,3.91,3.91,0,0,1,.26-1.42,3.37,3.37,0,0,1,1.16-.37l5.52-.37a9.85,9.85,0,0,0,3.26-.58,5,5,0,0,0,.32-1.42,22.87,22.87,0,0,0-1.37-4.9q-.94-2.63-1.65-5T549.19,55a22.85,22.85,0,0,0-3.79-.37l-11.25.1-3.31-.05a32.8,32.8,0,0,0-3.94.26q-.68,1.58-.89,2.26l-4.63,14.46q-2.95,8.25-2.94,9.09a4.77,4.77,0,0,0,.47,1.58,23,23,0,0,0,2.95.58l7.15.63q.58.47.58.84a3,3,0,0,1-.16.79q-2.37.05-3.63.05-4.21,0-9.78-.26-2.58-.1-3.68-.11t-3.84.11q-1.79.11-2.58.11-1.26,0-3.26-.16V84.6A3.41,3.41,0,0,1,502.86,83.61ZM528,52.06q5.63.32,12.83.32,4.1,0,7.2-.26a35.47,35.47,0,0,0-1.21-3.84q-3.41-9.14-3.78-10.09l-4.78-12.14-.52-.95q-.32.63-2.32,5.41-3.37,8.2-4.84,12.77-.69,2.05-1.42,4.07a27.82,27.82,0,0,0-.92,2.84,9.11,9.11,0,0,1-.55,1.66Z" transform="translate(-7.78 -5.52)"/><path d="M577.79,20.21V18.58a11.83,11.83,0,0,1,1.42-.26l4.94-.27q6.15-.55,13.78-.88,3-.1,9.62-.1,8.94,0,13.09,1.31a17.72,17.72,0,0,1,9,5.86,14.06,14.06,0,0,1,3,8.7q0,7.78-11.1,13.09l-.26.39a27,27,0,0,1,9.31,4.26,18.58,18.58,0,0,1,5.57,6.68,17.28,17.28,0,0,1,1.42,7.57q0,7.84-7.12,14T610.81,85H603l-7.94.26q-10.52.1-12.3.11t-3.63-.16v-.59a1.29,1.29,0,0,1,.26-.92,2.59,2.59,0,0,1,1.21-.54q6.57-1.36,7.44-1.86a2.56,2.56,0,0,0,1.18-1.6q.63-2.1.63-10.81,0-.79-.05-2-.11-3.52-.1-4V57.42q0-13.85-.32-24.19l-.05-10.55-.05-1.31q-4.47-.63-7.89-.79A18.36,18.36,0,0,1,577.79,20.21Zm20.82,26.55a28.22,28.22,0,0,0,5.53.53q11.38,0,15.44-5t4.06-9.94a15.1,15.1,0,0,0-.71-4.49,10.1,10.1,0,0,0-2.53-4.13A11.17,11.17,0,0,0,615.9,21a29.53,29.53,0,0,0-9.38-1.52,33.08,33.08,0,0,0-8.32,1c0,.74-.05,1.28-.05,1.63s0,1.35.1,3q.05,1.58.05,3.15l-.16,6.36.05,3.78.37,7.41ZM611,82.5a22.21,22.21,0,0,0,8.74-2.21,17.39,17.39,0,0,0,3.87-3A15.17,15.17,0,0,0,627.08,72a15.62,15.62,0,0,0,1.24-5.89,20.66,20.66,0,0,0-.87-5.31,14,14,0,0,0-3-5.55,15.09,15.09,0,0,0-6.19-3.94,25.48,25.48,0,0,0-9.06-1.55q-9.59,0-10.75.37-.05,1.21-.05,1.79l.05,1.95-.05,3.94v4.47q.16,12.35.58,14.61a6,6,0,0,0,2.87,3.89Q604.36,82.45,611,82.5Z" transform="translate(-7.78 -5.52)"/><path d="M638.68,83.61a2.73,2.73,0,0,1,1.31-.42h1.21q.37,0,1.26-.05a20.61,20.61,0,0,0,4.78-.74,8.09,8.09,0,0,0,3.15-3.47,126.57,126.57,0,0,0,6.15-15.19q1.63-4.68,2.05-5.68,1.31-3.15,2.53-6.62l4.94-13.83q1.16-3.26,5.58-14.93,1.1-2.94,2.68-7.89l1.55-.1,1.84.05a72.76,72.76,0,0,1,4,9.62q.95,2.73,3.1,8.15l8,21.61L697,65.84q3.36,10,4.42,12.27a8.88,8.88,0,0,0,1.95,3,7.79,7.79,0,0,0,2,.63q1.71.42,2.39.63a21.8,21.8,0,0,1,3.37,1.16,2.87,2.87,0,0,1,.21.89,3.06,3.06,0,0,1-.16.79q-1.68.05-2.37.05-2.68,0-9.46-.16L694.1,85l-6.36.08q-.63,0-1.29-.06c-.44,0-.82-.06-1.13-.06h-1.16a2.6,2.6,0,0,1-1.05-.32,3.91,3.91,0,0,1,.26-1.42,3.37,3.37,0,0,1,1.16-.37l5.52-.37a9.85,9.85,0,0,0,3.26-.58,5,5,0,0,0,.32-1.42,22.87,22.87,0,0,0-1.37-4.9q-.94-2.63-1.65-5T685,55a22.85,22.85,0,0,0-3.79-.37l-11.25.1-3.31-.05a32.8,32.8,0,0,0-3.94.26q-.68,1.58-.89,2.26l-4.63,14.46q-2.95,8.25-2.94,9.09a4.77,4.77,0,0,0,.47,1.58,23,23,0,0,0,2.95.58l7.15.63q.58.47.58.84a3,3,0,0,1-.16.79q-2.37.05-3.63.05-4.21,0-9.78-.26-2.58-.1-3.68-.11t-3.84.11q-1.79.11-2.58.11-1.26,0-3.26-.16V84.6A3.41,3.41,0,0,1,638.68,83.61Zm25.09-31.54q5.63.32,12.83.32,4.1,0,7.2-.26a35.47,35.47,0,0,0-1.21-3.84q-3.41-9.14-3.78-10.09L674,26.05l-.52-.95q-.32.63-2.32,5.41-3.37,8.2-4.84,12.77-.69,2.05-1.42,4.07A27.82,27.82,0,0,0,664,50.2a9.11,9.11,0,0,1-.55,1.66Z" transform="translate(-7.78 -5.52)"/><path d="M704.36,17.58h2.52q1.37,0,6,.14Q720,18,724.76,18l6.15-.1a14.77,14.77,0,0,1,2.52.21,1.34,1.34,0,0,1,.37.89v.58l-1.32.63h-.58l-3,.05-1.53-.05a4.91,4.91,0,0,0-2.91.79,1.57,1.57,0,0,0-.84,1.21,3.3,3.3,0,0,0,.74,1.73q.26.42.84,1.26Q726.29,27,728,29.36q2.47,3.47,5.26,8.21,1.1,1.9,2.32,3.63l8,12.1q.79-1,2.16-2.95l7.59-10.89,8.75-13.1a10.46,10.46,0,0,0,1.37-2.63,3.71,3.71,0,0,0,.1-.89,2.08,2.08,0,0,0-1-1.79q-1.63-1.1-7-1.63l-1-.16a2.22,2.22,0,0,1-.37-1.05,4.84,4.84,0,0,1,.05-.68l2.73-.05,9.89.26,7.94-.16,2.21.05-.16,1.84a6,6,0,0,1-1.16.16l-1.26.16c-.21,0-.54.07-1,.1a7.23,7.23,0,0,0-1.74.89,173.64,173.64,0,0,0-13.15,15.4q-5.42,7.25-9.15,13.19-1.21,1.95-1.95,2.89a10.37,10.37,0,0,0-1.63,2.63,24.64,24.64,0,0,0-.58,6.21q0,16.38.58,19.33.31,1.48.84,1.79,1.37.68,10.88,1.63v.62a4,4,0,0,1-.37,1.49l-13.48-.58-9,.47h-7.37q-1.05,0-2.32-.05a2.82,2.82,0,0,1-.21-.84,2.52,2.52,0,0,1,.16-.74,1.48,1.48,0,0,1,.74-.37l6.81-1.05a16.7,16.7,0,0,0,4-1.58,3.21,3.21,0,0,0,.79-1.95q.05-.95.05-14.61a31.47,31.47,0,0,0-.34-6.23,19.09,19.09,0,0,0-2.23-4L727.81,44,716.08,26.94A23,23,0,0,0,710.77,21q-1-.68-5-1a11.17,11.17,0,0,1-1.26-.1Z" transform="translate(-7.78 -5.52)"/></g><g id="UNABHÄNGIGER_UMWELTJOURNALISMUS" data-name="UNABHÄNGIGER UMWELTJOURNALISMUS"><path d="M181.64,117.44a13.41,13.41,0,0,1-.39,3.26,7.47,7.47,0,0,1-1.3,2.75,6.54,6.54,0,0,1-2.39,1.91,9.56,9.56,0,0,1-7.27,0,6.52,6.52,0,0,1-2.39-1.91,7.44,7.44,0,0,1-1.3-2.75,13.36,13.36,0,0,1-.39-3.26V104.37h2v12.56a15.09,15.09,0,0,0,.21,2.42,7.33,7.33,0,0,0,.82,2.39,5.06,5.06,0,0,0,1.73,1.82,6.53,6.53,0,0,0,6,0,5.06,5.06,0,0,0,1.73-1.82,7.33,7.33,0,0,0,.82-2.39,15.15,15.15,0,0,0,.21-2.42V104.37h2Z" transform="translate(-7.78 -5.52)"/><path d="M187.77,104.37h2.54l12.89,18.54h.06V104.37h2v21.17H202.7L189.8,107h-.06v18.54h-2Z" transform="translate(-7.78 -5.52)"/><path d="M218.25,104.37h2l8.91,21.17H227l-2.3-5.62H213.47l-2.39,5.62H209Zm.93,2.15-4.94,11.6H224Z" transform="translate(-7.78 -5.52)"/><path d="M233,104.37h6.1a15.44,15.44,0,0,1,2.42.19,5.78,5.78,0,0,1,2.2.81,4.67,4.67,0,0,1,1.58,1.7,5.88,5.88,0,0,1,.61,2.89,4.36,4.36,0,0,1-1,2.81,4.7,4.7,0,0,1-2.84,1.58v.06a5.63,5.63,0,0,1,1.91.49,4.78,4.78,0,0,1,1.5,1.08,4.72,4.72,0,0,1,1,1.6,5.82,5.82,0,0,1,.34,2,5.65,5.65,0,0,1-.7,3,5.37,5.37,0,0,1-1.77,1.81,6.75,6.75,0,0,1-2.3.9,12.24,12.24,0,0,1-2.32.24H233Zm2,9.15H239a6.93,6.93,0,0,0,2.48-.37,4.3,4.3,0,0,0,1.5-.91,2.72,2.72,0,0,0,.72-1.15,4.22,4.22,0,0,0-.19-3,3.1,3.1,0,0,0-1-1.17,4.05,4.05,0,0,0-1.47-.61,8.44,8.44,0,0,0-1.77-.18h-4.37Zm0,10.23h4.52a7.76,7.76,0,0,0,2.8-.42,4.28,4.28,0,0,0,1.63-1,3.3,3.3,0,0,0,.76-1.33,4.81,4.81,0,0,0,.19-1.27,4.19,4.19,0,0,0-.45-2,4,4,0,0,0-1.17-1.36,4.83,4.83,0,0,0-1.63-.76,7.24,7.24,0,0,0-1.84-.24h-4.82Z" transform="translate(-7.78 -5.52)"/><path d="M252.53,104.37h2v9.33h11.85v-9.33h2v21.17h-2v-10H254.51v10h-2Z" transform="translate(-7.78 -5.52)"/><path d="M281.34,104.37h2l8.91,21.17h-2.21l-2.3-5.62H276.55l-2.39,5.62H272.1Zm.93,2.15-4.94,11.6h9.72Zm-4.34-6.1a1.43,1.43,0,1,1,.42,1A1.39,1.39,0,0,1,277.93,100.43Zm5.68,0a1.43,1.43,0,1,1,.42,1A1.39,1.39,0,0,1,283.61,100.43Z" transform="translate(-7.78 -5.52)"/><path d="M296.06,104.37h2.54l12.89,18.54h.06V104.37h2v21.17H311L298.09,107H298v18.54h-2Z" transform="translate(-7.78 -5.52)"/><path d="M337.52,124.17a13.73,13.73,0,0,1-3.84,1.48,19,19,0,0,1-4.05.43,11.68,11.68,0,0,1-4.44-.82,10,10,0,0,1-3.46-2.3,10.57,10.57,0,0,1-2.24-3.53,12.09,12.09,0,0,1-.81-4.47,12,12,0,0,1,.81-4.46,10.61,10.61,0,0,1,2.24-3.51,10.2,10.2,0,0,1,3.46-2.32,11.5,11.5,0,0,1,4.44-.84,10.26,10.26,0,0,1,7.63,2.93l-1.44,1.5a6.15,6.15,0,0,0-1.18-1.06,8.06,8.06,0,0,0-1.53-.84,10,10,0,0,0-1.72-.54,8.36,8.36,0,0,0-1.76-.19,9.29,9.29,0,0,0-3.72.72,8.31,8.31,0,0,0-2.83,2,8.74,8.74,0,0,0-1.79,3,11.09,11.09,0,0,0,0,7.36,8.74,8.74,0,0,0,1.79,3,8.31,8.31,0,0,0,2.83,2,9.29,9.29,0,0,0,3.72.72,18.05,18.05,0,0,0,3.2-.27,8.23,8.23,0,0,0,2.72-1v-7.12h-5.09v-1.79h7.06Z" transform="translate(-7.78 -5.52)"/><path d="M344,104.37h2v21.17h-2Z" transform="translate(-7.78 -5.52)"/><path d="M370,124.17a13.73,13.73,0,0,1-3.84,1.48,19,19,0,0,1-4.05.43,11.68,11.68,0,0,1-4.44-.82,10,10,0,0,1-3.46-2.3,10.57,10.57,0,0,1-2.24-3.53,12.09,12.09,0,0,1-.81-4.47,12,12,0,0,1,.81-4.46,10.61,10.61,0,0,1,2.24-3.51,10.2,10.2,0,0,1,3.46-2.32,11.5,11.5,0,0,1,4.44-.84,10.26,10.26,0,0,1,7.63,2.93l-1.44,1.5a6.15,6.15,0,0,0-1.18-1.06,8.06,8.06,0,0,0-1.53-.84,10,10,0,0,0-1.72-.54,8.36,8.36,0,0,0-1.76-.19,9.29,9.29,0,0,0-3.72.72,8.31,8.31,0,0,0-2.83,2,8.74,8.74,0,0,0-1.79,3,11.09,11.09,0,0,0,0,7.36,8.74,8.74,0,0,0,1.79,3,8.31,8.31,0,0,0,2.83,2,9.29,9.29,0,0,0,3.72.72,18.05,18.05,0,0,0,3.2-.27,8.23,8.23,0,0,0,2.72-1v-7.12h-5.09v-1.79H370Z" transform="translate(-7.78 -5.52)"/><path d="M376.53,104.37h13v1.79h-11v7.54h10.29v1.79H378.5v8.25H390v1.79H376.53Z" transform="translate(-7.78 -5.52)"/><path d="M395,104.37h5.56l1.14,0a11.59,11.59,0,0,1,1.55.18,9.65,9.65,0,0,1,1.71.48,4.83,4.83,0,0,1,1.55,1,5,5,0,0,1,1.14,1.58,5.45,5.45,0,0,1,.45,2.33,5.33,5.33,0,0,1-.52,2.51,4.86,4.86,0,0,1-1.32,1.6,5.49,5.49,0,0,1-1.75.91,11.18,11.18,0,0,1-1.82.42l6.16,10.17h-2.24l-6-10H397v10h-2Zm2,9.33h4.19a6.89,6.89,0,0,0,2.53-.39,4.19,4.19,0,0,0,1.51-1,3.05,3.05,0,0,0,.73-1.23,3.8,3.8,0,0,0,0-2.39,3.06,3.06,0,0,0-.73-1.23,4.22,4.22,0,0,0-1.51-1,6.91,6.91,0,0,0-2.53-.39H397Z" transform="translate(-7.78 -5.52)"/><path d="M437,117.44a13.41,13.41,0,0,1-.39,3.26,7.46,7.46,0,0,1-1.3,2.75,6.53,6.53,0,0,1-2.39,1.91,9.56,9.56,0,0,1-7.27,0,6.52,6.52,0,0,1-2.39-1.91,7.45,7.45,0,0,1-1.3-2.75,13.41,13.41,0,0,1-.39-3.26V104.37h2v12.56a15.09,15.09,0,0,0,.21,2.42,7.31,7.31,0,0,0,.82,2.39,5.05,5.05,0,0,0,1.73,1.82,6.53,6.53,0,0,0,6,0,5.06,5.06,0,0,0,1.74-1.82,7.34,7.34,0,0,0,.82-2.39,15.09,15.09,0,0,0,.21-2.42V104.37h2Z" transform="translate(-7.78 -5.52)"/><path d="M442.9,104.37h3l7.72,17.76,7.72-17.76h2.81v21.17h-2V106.89h-.06L454,125.55h-.87l-8.2-18.66h-.06v18.66h-2Z" transform="translate(-7.78 -5.52)"/><path d="M467.67,104.37h2L475,123.13H475l5.35-18.75h2.51l5.35,18.75h.06l5.26-18.75h2l-6.16,21.17H487l-5.35-18.84h-.06l-5.36,18.84h-2.42Z" transform="translate(-7.78 -5.52)"/><path d="M499.38,104.37h13v1.79h-11v7.54h10.29v1.79H501.35v8.25h11.46v1.79H499.38Z" transform="translate(-7.78 -5.52)"/><path d="M517.84,104.37h2v19.38h9.87v1.79H517.84Z" transform="translate(-7.78 -5.52)"/><path d="M535.46,106.17h-7.24v-1.79h16.45v1.79h-7.24v19.38h-2Z" transform="translate(-7.78 -5.52)"/><path d="M557.26,119.33a18.65,18.65,0,0,1-.13,2.12,5.77,5.77,0,0,1-.72,2.2,4.82,4.82,0,0,1-1.73,1.74,6.19,6.19,0,0,1-3.22.7,5.44,5.44,0,0,1-3.69-1.18,5.73,5.73,0,0,1-1.81-3.16l2-.36a3.37,3.37,0,0,0,3.53,2.9,4.16,4.16,0,0,0,1.78-.34,3.08,3.08,0,0,0,1.18-.94,4,4,0,0,0,.66-1.42,7.19,7.19,0,0,0,.21-1.78V104.37h2Z" transform="translate(-7.78 -5.52)"/><path d="M562.41,115a12,12,0,0,1,.81-4.46,10.62,10.62,0,0,1,2.24-3.51,10.19,10.19,0,0,1,3.46-2.32,12.21,12.21,0,0,1,8.88,0,10.19,10.19,0,0,1,3.46,2.32,10.63,10.63,0,0,1,2.24,3.51,12,12,0,0,1,.81,4.46,12.1,12.1,0,0,1-.81,4.47,10.58,10.58,0,0,1-2.24,3.53,10,10,0,0,1-3.46,2.3,12.41,12.41,0,0,1-8.88,0,10,10,0,0,1-3.46-2.3,10.57,10.57,0,0,1-2.24-3.53A12.1,12.1,0,0,1,562.41,115Zm2,0a10.55,10.55,0,0,0,.63,3.68,8.75,8.75,0,0,0,1.79,3,8.31,8.31,0,0,0,2.83,2,10,10,0,0,0,7.45,0,8.32,8.32,0,0,0,2.83-2,8.75,8.75,0,0,0,1.79-3,11.09,11.09,0,0,0,0-7.36,8.75,8.75,0,0,0-1.79-3,8.32,8.32,0,0,0-2.83-2,10,10,0,0,0-7.45,0,8.31,8.31,0,0,0-2.83,2,8.75,8.75,0,0,0-1.79,3A10.55,10.55,0,0,0,564.38,115Z" transform="translate(-7.78 -5.52)"/><path d="M604.5,117.44a13.41,13.41,0,0,1-.39,3.26,7.46,7.46,0,0,1-1.3,2.75,6.53,6.53,0,0,1-2.39,1.91,9.56,9.56,0,0,1-7.27,0,6.52,6.52,0,0,1-2.39-1.91,7.45,7.45,0,0,1-1.3-2.75,13.41,13.41,0,0,1-.39-3.26V104.37h2v12.56a15.09,15.09,0,0,0,.21,2.42,7.31,7.31,0,0,0,.82,2.39,5.05,5.05,0,0,0,1.73,1.82,6.53,6.53,0,0,0,6,0,5.06,5.06,0,0,0,1.74-1.82,7.34,7.34,0,0,0,.82-2.39,15.09,15.09,0,0,0,.21-2.42V104.37h2Z" transform="translate(-7.78 -5.52)"/><path d="M610.63,104.37h5.56l1.14,0a11.6,11.6,0,0,1,1.56.18,9.7,9.7,0,0,1,1.71.48,4.83,4.83,0,0,1,1.55,1,5,5,0,0,1,1.14,1.58,5.46,5.46,0,0,1,.45,2.33,5.34,5.34,0,0,1-.52,2.51,4.87,4.87,0,0,1-1.32,1.6,5.51,5.51,0,0,1-1.75.91,11.18,11.18,0,0,1-1.82.42l6.16,10.17h-2.24l-6-10H612.6v10h-2Zm2,9.33h4.19a6.9,6.9,0,0,0,2.53-.39,4.2,4.2,0,0,0,1.51-1,3,3,0,0,0,.73-1.23,3.78,3.78,0,0,0,0-2.39,3,3,0,0,0-.73-1.23,4.22,4.22,0,0,0-1.51-1,6.92,6.92,0,0,0-2.53-.39H612.6Z" transform="translate(-7.78 -5.52)"/><path d="M629.08,104.37h2.54l12.89,18.54h.06V104.37h2v21.17H644L631.12,107h-.06v18.54h-2Z" transform="translate(-7.78 -5.52)"/><path d="M659.57,104.37h2l8.92,21.17H668.3l-2.3-5.62H654.78l-2.39,5.62h-2.06Zm.93,2.15-4.94,11.6h9.72Z" transform="translate(-7.78 -5.52)"/><path d="M674.28,104.37h2v19.38h9.87v1.79H674.28Z" transform="translate(-7.78 -5.52)"/><path d="M690,104.37h2v21.17h-2Z" transform="translate(-7.78 -5.52)"/><path d="M699,121.63a5.06,5.06,0,0,0,2,2,5.94,5.94,0,0,0,2.83.66,5.66,5.66,0,0,0,1.85-.3,4.73,4.73,0,0,0,1.51-.84,3.92,3.92,0,0,0,1-1.3,3.86,3.86,0,0,0,.37-1.72,3.3,3.3,0,0,0-.46-1.82,3.71,3.71,0,0,0-1.24-1.18,9.13,9.13,0,0,0-1.75-.79l-2-.66q-1-.33-2-.75a6.74,6.74,0,0,1-1.75-1.09,4.87,4.87,0,0,1-1.24-1.69,6,6,0,0,1-.46-2.51,5.44,5.44,0,0,1,.55-2.5,5.33,5.33,0,0,1,1.5-1.82,6.67,6.67,0,0,1,2.17-1.11,8.78,8.78,0,0,1,2.57-.37,8.34,8.34,0,0,1,3.22.61,6.11,6.11,0,0,1,2.56,2l-1.71,1.23a5,5,0,0,0-1.75-1.57,5.08,5.08,0,0,0-2.38-.52,6.47,6.47,0,0,0-1.83.25,4.57,4.57,0,0,0-1.51.75,3.7,3.7,0,0,0-1,1.24,3.78,3.78,0,0,0-.39,1.76,3.41,3.41,0,0,0,.81,2.44,5.69,5.69,0,0,0,2,1.35,21.38,21.38,0,0,0,2.63.87,12.83,12.83,0,0,1,2.63,1,5.69,5.69,0,0,1,2,1.75,5.21,5.21,0,0,1,.81,3.09,5.73,5.73,0,0,1-.54,2.54,5.58,5.58,0,0,1-1.45,1.87,6.26,6.26,0,0,1-2.11,1.15,8,8,0,0,1-2.48.39,10,10,0,0,1-3.86-.73,7.06,7.06,0,0,1-3-2.47Z" transform="translate(-7.78 -5.52)"/><path d="M715.6,104.37h3l7.72,17.76L734,104.37h2.81v21.17h-2V106.89h-.06l-8.08,18.66h-.87l-8.2-18.66h-.06v18.66h-2Z" transform="translate(-7.78 -5.52)"/><path d="M758.16,117.44a13.41,13.41,0,0,1-.39,3.26,7.46,7.46,0,0,1-1.3,2.75,6.53,6.53,0,0,1-2.39,1.91,9.56,9.56,0,0,1-7.27,0,6.52,6.52,0,0,1-2.39-1.91,7.45,7.45,0,0,1-1.3-2.75,13.41,13.41,0,0,1-.39-3.26V104.37h2v12.56a15.09,15.09,0,0,0,.21,2.42,7.31,7.31,0,0,0,.82,2.39,5.05,5.05,0,0,0,1.73,1.82,6.53,6.53,0,0,0,6,0,5.06,5.06,0,0,0,1.74-1.82,7.34,7.34,0,0,0,.82-2.39,15.09,15.09,0,0,0,.21-2.42V104.37h2Z" transform="translate(-7.78 -5.52)"/><path d="M764.86,121.63a5.06,5.06,0,0,0,2,2,5.94,5.94,0,0,0,2.83.66,5.66,5.66,0,0,0,1.85-.3,4.73,4.73,0,0,0,1.51-.84,3.92,3.92,0,0,0,1-1.3,3.86,3.86,0,0,0,.37-1.72,3.3,3.3,0,0,0-.46-1.82,3.71,3.71,0,0,0-1.24-1.18,9.13,9.13,0,0,0-1.75-.79l-2-.66q-1-.33-2-.75a6.74,6.74,0,0,1-1.75-1.09,4.87,4.87,0,0,1-1.24-1.69,6,6,0,0,1-.46-2.51,5.44,5.44,0,0,1,.55-2.5,5.33,5.33,0,0,1,1.5-1.82,6.67,6.67,0,0,1,2.17-1.11,8.78,8.78,0,0,1,2.57-.37,8.34,8.34,0,0,1,3.22.61,6.11,6.11,0,0,1,2.56,2l-1.71,1.23a5,5,0,0,0-1.75-1.57,5.08,5.08,0,0,0-2.38-.52,6.47,6.47,0,0,0-1.83.25,4.57,4.57,0,0,0-1.51.75,3.7,3.7,0,0,0-1,1.24,3.78,3.78,0,0,0-.39,1.76,3.41,3.41,0,0,0,.81,2.44,5.69,5.69,0,0,0,2,1.35,21.38,21.38,0,0,0,2.63.87,12.83,12.83,0,0,1,2.63,1,5.69,5.69,0,0,1,2,1.75,5.21,5.21,0,0,1,.81,3.09,5.73,5.73,0,0,1-.54,2.54,5.58,5.58,0,0,1-1.45,1.87,6.26,6.26,0,0,1-2.11,1.15,8,8,0,0,1-2.48.39,10,10,0,0,1-3.86-.73,7.06,7.06,0,0,1-3-2.47Z" transform="translate(-7.78 -5.52)"/></g><g id="Layer_4_Image" data-name="Layer 4 Image"><path d="M35.42,31.93c-.09.37-.37.52-.61.72a83.27,83.27,0,0,0-16,17.24,39,39,0,0,0-6.18,14.46A28.74,28.74,0,0,0,14.81,82.1c3.52,7.59,8.5,14,15.66,18.56a31.33,31.33,0,0,0,16.1,4.8,46.22,46.22,0,0,0,16.16-2.67c3.52-1.17,6.42-3.43,9.23-5.79a40.61,40.61,0,0,0,3.69-3.56,16.66,16.66,0,0,0,4.24-8,132.72,132.72,0,0,0,2.61-14.58c.13-1.31,0-1.47-1.35-1.26a31.78,31.78,0,0,0-9.56,3.1A8.55,8.55,0,0,0,67,78.5a7,7,0,0,1-.34,1,1.34,1.34,0,0,1-1.25,1,1.57,1.57,0,0,1-1.42-1,1.92,1.92,0,0,1,.63-2.29,17.18,17.18,0,0,0,2.88-2.92,2.12,2.12,0,0,0,0-2.22c-.23-.6-.83-.66-1.38-.68a12.26,12.26,0,0,0-5.15.94,3.17,3.17,0,0,0-1.29,1.08,1.68,1.68,0,0,1-2.93-.19c-.36-.64-.86-1.38-.24-2.08a2.67,2.67,0,0,1,2.81-1.06,10.71,10.71,0,0,0,4.62.07c1.52-.26,1.95-1.09,1.1-2.36a7.27,7.27,0,0,0-4.75-3.19c-1.4-.28-2.72-2.34-2.22-3.68A1.25,1.25,0,0,1,59,60.1,3.06,3.06,0,0,1,62.55,62a2.29,2.29,0,0,0,.6,1.05,14,14,0,0,0,2.79,2.45c.95.55,1.52.25,1.54-.83a12,12,0,0,0-.8-4.25c-.26-.73-1-1-1.71-1.25s-.9-.85-.94-1.52a2.11,2.11,0,0,1,.63-2.05,1.16,1.16,0,0,1,1.62.15c.78.75,1.32,1.71,2.18,2.4.49.39.46,1.12.57,1.74.19,1.12.39,2.24.56,3.37.08.49.31.74.84.67a2.15,2.15,0,0,1,.62,0c.53.08.78-.12.94-.64a15.42,15.42,0,0,1,.82-2.09c.39-.83.91-1.06,1.52-.75a1.51,1.51,0,0,1,.67,2,3,3,0,0,1-.77.86c-.5.45-1,.93-1.5,1.35-1.18,1-1.16,2.22-.93,3.54.07.38.27.5.63.54a7.17,7.17,0,0,0,5.13-1.34,21.15,21.15,0,0,1,9.12-3.5c2.12-.33,2.69.21,3,2.36.31,1.9.29,3.82.46,5.73a8.81,8.81,0,0,0,.47,2.59c.36.89,1,1,1.69.37a4.28,4.28,0,0,0,.94-1.23,43.1,43.1,0,0,0,4.4-14.56c.07-.54.25-1.26-.3-1.59s-1.15.21-1.67.52a2.06,2.06,0,0,0-.39.26c-2.13,2.09-4.75,2-7.48,1.89-3.86-.09-7-2-10.32-3.55a1.79,1.79,0,0,0-1.47-.17,11.92,11.92,0,0,1-1.73.45,4.51,4.51,0,0,0-2.47,1.36c-.79.81-1.27.77-2-.11a5,5,0,0,1-.4-.57c-.43-.73-.27-1.18.57-1.36s1.59-.21,2.38-.35a5.56,5.56,0,0,0,1.11-.33c.28-.11.63-.25.59-.63s-.34-.5-.63-.62a4.8,4.8,0,0,0-1.67-.32A10.91,10.91,0,0,1,69.6,54a1.19,1.19,0,0,0-.9.14,2.62,2.62,0,0,1-1.5.3,1.55,1.55,0,0,1-1.64-1,2,2,0,0,1,.59-2,1.89,1.89,0,0,1,2.11,0,.65.65,0,0,1,.12.09c1.48,1.64,3.21,1.15,4.94.58.78-.26.92-.69.34-1.26a6.63,6.63,0,0,0-3.76-2.3,1.44,1.44,0,0,1-1.48-1.57c0-.69.12-1.29.89-1.54a1.62,1.62,0,0,1,1.92.62,39.1,39.1,0,0,0,3.49,4.35,1.28,1.28,0,0,0,1.45.48c.6-.16.48-.72.49-1.18a6,6,0,0,0,0-1.09A2.81,2.81,0,0,1,77.39,46a1,1,0,0,0,.21-.41A2.22,2.22,0,0,1,80.55,44a.9.9,0,0,1,.73.82,1.26,1.26,0,0,1-.84,1.28c-.53.22-1,.47-1.54.72s-.53.51-.38,1c.23.69.39,1.39.58,2.09a1,1,0,0,0,.89.73,3.5,3.5,0,0,0,4-2.51,1.33,1.33,0,0,1,1.91-1,1,1,0,0,1,.69,1.1,1,1,0,0,1-.85,1c-2,.31-2.81,1.9-3.55,3.44a2,2,0,0,0,1.17,2.75A23.28,23.28,0,0,0,87.5,57a2.24,2.24,0,0,0,1.3.06c3-1,6.1-2.23,7.64-5.21,1.85-3.58,5-5.65,8.05-7.91a2.44,2.44,0,0,0,1.14-2.12,40.62,40.62,0,0,0-.73-7.49c-.35-2.25-.76-4.49-1-6.76a12.84,12.84,0,0,1,.17-2.94c.71-5.06,3.28-9.15,6.69-12.79a25.32,25.32,0,0,1,6.42-5.22,8.94,8.94,0,0,1,3-1,4,4,0,0,1,4.14,1.85,11.79,11.79,0,0,1,1.74,5.26,52,52,0,0,1-.67,15.77,13.92,13.92,0,0,1-2.65,5.4,30.59,30.59,0,0,1-3.87,4.75,8.3,8.3,0,0,0-2.27,4.46,3.56,3.56,0,0,0,.8,3.43c2.86,3.25,5.21,6.9,7.92,10.27.88,1.09,1,1.1,1.64-.12s1.16-2.37,1.73-3.56a1.26,1.26,0,0,0,.12-.75c-.15-1.1-.28-2.21-.39-3.32a1.19,1.19,0,0,0-.44-.78c-.64-.61-1.31-1.19-1.88-1.85a1.76,1.76,0,0,0-1.77-.63,1.56,1.56,0,0,1-1.89-2,.93.93,0,0,1,1-.88c1.27-.07,2,.79,2.68,1.61a5.39,5.39,0,0,0,.91.95.66.66,0,0,0,1.12-.32,2.19,2.19,0,0,0,.11-1.66c-.46-1.13-.93-2.25-1.39-3.37a.91.91,0,0,0-.85-.66,1.09,1.09,0,0,1-1-1.16,1.69,1.69,0,0,1,1-1.82,1.24,1.24,0,0,1,1.51.48,5.08,5.08,0,0,1,.51,1.2c.69,1.53,1.39,3.06,2.1,4.58.18.39.46.76.93.7s.51-.51.57-.85a9.69,9.69,0,0,0,.33-4.13,3.52,3.52,0,0,1,0-1.7,1.79,1.79,0,0,1,1.2-1.31c1-.34,1.54.06,1.58,1.12a6.89,6.89,0,0,1-.38,2.35,7.67,7.67,0,0,0-.06,3.92.72.72,0,0,0,.74.58,2.3,2.3,0,0,0,2.31-.9,7,7,0,0,1,3-2.54.85.85,0,0,1,1.3.52c.3.73.19,1.34-.42,1.61a8.88,8.88,0,0,1-2.17.81,1.53,1.53,0,0,0-1.08.69,5.28,5.28,0,0,0-.91,2.92c0,.64.29.91.94,1,1.55.11,3.11.08,4.66.12,1.21,0,1.71.79,1.29,1.92a1,1,0,0,1-1,.73c-1.74-.08-3.43-.52-5.15-.71a2.67,2.67,0,0,0-2.35.69,4.17,4.17,0,0,1-1.81,1,2.65,2.65,0,0,0-1.93,2c-.59,2-1.22,4-1.86,6A11.21,11.21,0,0,1,128.6,62c-.49.75-.91.87-1.7.47A15.37,15.37,0,0,1,123.66,60c-1.13-1-2.2-2.13-3.42-3-1.06-.8-1.35-.73-1.88.49-1.31,3-2.17,6.26-3.27,9.38-.58,1.66-1.2,3.31-1.76,5-1.6,4.76-4.71,8.53-8,12.2-2.36,2.66-4.82,5.21-7.35,7.71a.81.81,0,0,0-.18,1.12c2.57,5.22,5.15,10.44,7.2,15.9a16.71,16.71,0,0,1,.9,3.13,1.84,1.84,0,0,1-.47,1.64,24.74,24.74,0,0,1-4.09,3.46c-2.58,1.86-5.2,3.68-7.79,5.53-.3.22-.84.43-.72.82s.71.36,1.1.35c1,0,1.91-.12,2.87-.17a1.14,1.14,0,0,0,.83-.51,3.51,3.51,0,0,1,2.26-1.24,1.48,1.48,0,0,1,1.66.54,1.94,1.94,0,0,1,.27,2.12,1.82,1.82,0,0,1-1.82,1,2.26,2.26,0,0,1-.76-.16c-1.17-.54-2.29-.11-3.4.21-.74.21-.9.88-1,1.53-.06.39.25.46.56.48,1.94.15,3.87.33,5.81.44a8.86,8.86,0,0,0,1.53-.24c1.2-.15,1.94.16,2.17.89a3,3,0,0,1-1.08,3.1,1.18,1.18,0,0,1-1,.06,3.82,3.82,0,0,1-1.46-.87c-1.52-1.44-3.44-1.38-5.31-1.41-.75,0-1,.41-.74,1.09.46,1.13.87,2.27,2.22,2.79a3.12,3.12,0,0,1,1.29,4.19,1.16,1.16,0,0,1-1.58.58,3.67,3.67,0,0,1-2.48-2.82,19.47,19.47,0,0,0-1.75-4.3c-.26-.57-1-.36-1.56-.34s-.22.51-.23.78c-.11,2.69-.17,5.38-.32,8.07-.08,1.33-.46,1.56-1.77,1.32a5.47,5.47,0,0,1-.75-.2c-2-.66-2.39-2.09-.94-3.55a3.92,3.92,0,0,0,1.16-3.07,25,25,0,0,0-.31-3.71.91.91,0,0,0-.95-.85,2.58,2.58,0,0,0-2.13.69c-.83.85-1.74,1.62-2.62,2.43-.56.51-1.25.92-1.16,1.87a.91.91,0,0,1-.63.82,4.81,4.81,0,0,1-1.48.46c-1.28.15-1.83-.2-2.15-1.35a1.8,1.8,0,0,1,1.16-2.37,4.18,4.18,0,0,1,.87-.32c3.16-.61,4.81-2.92,6.2-5.52a10.9,10.9,0,0,0,.7-1.8,5.46,5.46,0,0,1,2.4-3c2.34-1.48,4.73-2.88,7-4.49a13.67,13.67,0,0,0,2.2-1.84,1.09,1.09,0,0,0,.07-1.67c-2.71-3.4-5.17-7-7.93-10.36-.51-.62-1.07-1.2-1.59-1.81a.93.93,0,0,0-1.3-.2c-3.29,1.69-6.59,3.36-10,4.87a93,93,0,0,1-21.15,6.56,34.85,34.85,0,0,1-21.84-3.07c-8-3.83-14.67-9.26-19.3-16.9A49.62,49.62,0,0,1,8,73.8,24.94,24.94,0,0,1,9.15,62.54C11,56.66,13.23,51,17.16,46.1A53,53,0,0,1,30.64,34.49c1.32-.82,2.68-1.57,4-2.35C34.87,32,35.07,31.81,35.42,31.93Z" transform="translate(-7.78 -5.52)" style="fill:#690"/></g></svg>