<svg xmlns="http://www.w3.org/2000/svg" viewBox="0 0 776.84 143.1"><title>MONGABAY-LOGO_cn</title><g id="MONGABAY"><path d="M164.23,84q1.63-1.1,5.89-1.58,3.31-.16,3.94-.58a2,2,0,0,0,.63-.79q.79-1.94,1.16-10.52.48-11.2,1.55-29.81.86-14.19.86-17.71V21.68q-3.8-.79-12-1.68a2.52,2.52,0,0,1-.53-1.21,2.56,2.56,0,0,1,.37-.95,4.51,4.51,0,0,1,1.36-.32,16.74,16.74,0,0,1,1.84.21,52.74,52.74,0,0,0,7.08.37q1.47,0,5-.24,2.52-.18,2.83-.18a7.19,7.19,0,0,1,1.94.32,4.8,4.8,0,0,1,.81,1l2.2,4.94,14.88,32.91,6.2,13.81A233.74,233.74,0,0,0,221.58,45a8.67,8.67,0,0,1,.63-1.52,17.88,17.88,0,0,0,.89-2q.42-1.1,3.41-8.41,1.21-2.94,1.94-5,3-8.41,3.51-9.62a4.62,4.62,0,0,1,1.74-.42,18.84,18.84,0,0,1,2.16.16q3,.16,9.6.16,4.11,0,6.75-.11a5.32,5.32,0,0,1,.11.84,4.38,4.38,0,0,1-.16,1,9.43,9.43,0,0,1-4,1,26.37,26.37,0,0,0-5.94.74,2.69,2.69,0,0,0-1.6,1.21,21.19,21.19,0,0,0-.6,4.84L240,30.2l-.05,2.52q0,7.89.42,26.49l-.05,10.3.05,6.62q0,3.89.37,4.6a3.8,3.8,0,0,0,2.1,1.34A63.07,63.07,0,0,0,252.09,84a.81.81,0,0,1,.37.68c0,.32,0,.67-.05,1.05H250q-3.11,0-6.74-.18l-3.9-.18q-10.8,0-14.33.24-2.16.18-2.74.18a1.78,1.78,0,0,1-.79-.21v-.68a3.47,3.47,0,0,1,.16-1,16,16,0,0,1,4.73-1A17.65,17.65,0,0,0,231.22,81a43.91,43.91,0,0,0,.47-8.16l-.16-10.63q0-1.74.18-6.47t.18-15.42q0-8.47-.42-12.84-.89,1.84-3.51,8l-.79,2-.1.32-7.75,18.4-2.78,7.1-3.61,8.62q-2.36,5.94-4,10.51-.73,2.1-1.2,3.31l-1.23-.05q-5.95-17.35-14.19-35.59T180.74,26q-.43,2.26-1,13.14-.7,13.25-.7,29.18a96.43,96.43,0,0,0,.74,11.21,3.47,3.47,0,0,0,1.52,2.65q1.31.86,6.78,1a24.34,24.34,0,0,1,4,.31,3.33,3.33,0,0,1,.37,1.19,2.94,2.94,0,0,1-.26.92L175.88,85q-1.78,0-5.56.23-2.1.14-6,.19Z" transform="translate(-0.14 -1.23)"/><path d="M258.19,51.7a32.37,32.37,0,0,1,1.29-9.54,39.33,39.33,0,0,1,4.34-9.07,30.33,30.33,0,0,1,7.36-8.17,41.13,41.13,0,0,1,11.94-5.81,44.81,44.81,0,0,1,13.57-1.73,40.1,40.1,0,0,1,10.81,1.47,37.85,37.85,0,0,1,9.6,4.1,33.86,33.86,0,0,1,8.62,8.1,27.88,27.88,0,0,1,4.52,8.15,35.68,35.68,0,0,1,2,11.83,41.66,41.66,0,0,1-1.34,11.51,30.67,30.67,0,0,1-4.5,9,40.37,40.37,0,0,1-8.47,8A32.13,32.13,0,0,1,308,84.47a42.64,42.64,0,0,1-12.83,1.87,43.68,43.68,0,0,1-12.46-1.63,36,36,0,0,1-9.12-4,34.67,34.67,0,0,1-7.52-6.91,32.87,32.87,0,0,1-5.86-10.09A35.11,35.11,0,0,1,258.19,51.7Zm36.49,32.7a36.45,36.45,0,0,0,9.18-1.24,23,23,0,0,0,8.44-4.1,22.14,22.14,0,0,0,5.76-6.52,33.83,33.83,0,0,0,3.34-9.38,53.13,53.13,0,0,0,1.26-11.46,48.87,48.87,0,0,0-2.1-14.14,25.55,25.55,0,0,0-5.31-9.49,25.18,25.18,0,0,0-8.89-6.47,27.29,27.29,0,0,0-11.1-2.29,28.52,28.52,0,0,0-9.36,1.58,23.8,23.8,0,0,0-7.52,4,24.44,24.44,0,0,0-5.47,6.94,38.81,38.81,0,0,0-3.84,9.91,41.14,41.14,0,0,0-1.31,9.57,43.12,43.12,0,0,0,1.31,9.88,36.62,36.62,0,0,0,3.6,9.57A29.94,29.94,0,0,0,278.31,78a23.5,23.5,0,0,0,16.38,6.44Z" transform="translate(-0.14 -1.23)"/><path d="M338.8,21l-.05-2.52q8.15,0,11.94-.42,1.47-.16,2.05-.16t1.42.05a29.23,29.23,0,0,1,4.1,4.21l.95,1.05,11.1,12.25,1.58,1.89q3.36,3.94,6.13,6.73t10.75,11.62l12.57,13.93q1.84,2.05,4.73,5.1l.05-.84q-.31-7.31-.32-7.73L406,63l-.11-4.94V55.8q0-2.15-.37-13.3-.05-1.52-.42-5.76t-.37-7.44q0-5.78-.68-6.73-.47-.68-4.47-1.42-.95-.05-2.94-.32a14.72,14.72,0,0,1-2.79-.26,1.89,1.89,0,0,1-.84-.89,4.84,4.84,0,0,1,.47-1.58,9.78,9.78,0,0,1,2.79-.42,22.75,22.75,0,0,1,3.65.37,23.78,23.78,0,0,0,3.92.37q2.42,0,7.52-.32,2.89-.21,4-.21h.89l-.1,1.63a6.84,6.84,0,0,1-2.31.45,12.05,12.05,0,0,0-2.73.45,6,6,0,0,0-2.26,1,4.12,4.12,0,0,0-1.26,2.79l.58,16.61.42,7.62-.05,2.21.32,10.57q.32,10.83.32,18.82,0,1.73-.21,7.52l-2.45.21q-1.84-2.1-12.68-13.25-2.53-2.58-3.42-3.63l-4.52-5.2q-2.63-2.89-3.42-3.68l-1.16-1.16q-5.73-6.52-14.89-16.3-2.47-2.63-7.26-8.2-3-3.52-3.79-4.31a18.8,18.8,0,0,0-2.16-1.79L353.05,32q0,10.25.53,28.28l.37,17.4q.05,2.21.26,4.26l1.84.42q5,.47,9.83,1.42a4.75,4.75,0,0,0,.63.47l-.05,2a4.84,4.84,0,0,1-1.37.26,11.71,11.71,0,0,1-1.42-.11Q358.47,86,351,86q-5.26,0-9.25.26l-.74.05a12.86,12.86,0,0,1-1.37-.11l-.05-1.58L341,84l2.47-.37a24.7,24.7,0,0,0,4.84-1.05,3.85,3.85,0,0,0,1.63-1.1,72.67,72.67,0,0,0,.58-10.62q0-3.26-.16-11.93V51.8l-.11-14.93q-.11-10-.68-11.78a3.49,3.49,0,0,0-1.31-1.68A11.08,11.08,0,0,0,343,21.63,34.68,34.68,0,0,1,338.8,21Z" transform="translate(-0.14 -1.23)"/><path d="M490.56,21.47l.58,8q.32,3.63.32,4.94l-1.47.26q-3.52-8-8.75-12a20.48,20.48,0,0,0-12.8-4q-9.25,0-14.41,2.26a29.41,29.41,0,0,0-12.78,11.14q-5.31,7.94-5.31,19.13a32.7,32.7,0,0,0,1.95,11.62,35.24,35.24,0,0,0,5.5,9.59,37.37,37.37,0,0,0,8.39,7.7,23.32,23.32,0,0,0,7.52,3.26,34.77,34.77,0,0,0,7.36.58,31,31,0,0,0,7-.89,15.22,15.22,0,0,0,5.78-2.39,7.76,7.76,0,0,0,2.66-3.39q.71-1.89.71-7.36,0-9.09-1.21-10.59t-7.62-2l-2.1-.16-1.42.05-.84-.16-.79-1.31a1.2,1.2,0,0,1,.37-.68A101.42,101.42,0,0,1,481,54.69q2.05,0,6.68.11l5.42.21L498,55q1.42,0,3.42.1a.76.76,0,0,1,.47.18.73.73,0,0,1,.1.45,5.45,5.45,0,0,1-.26,1.47,17.58,17.58,0,0,1-3.42.47l-3.42-.05a3.51,3.51,0,0,0-2.79,1.21q-.53.58-.53,3.94l.05,6.89q0,7.1-.58,9a4.37,4.37,0,0,1-1.31,2.08,15.07,15.07,0,0,1-4.21,2.18,40.83,40.83,0,0,1-8.31,2.47,78.15,78.15,0,0,1-13.41,1.21q-10.41,0-17.06-2.66a34.22,34.22,0,0,1-11.46-7.39A30.22,30.22,0,0,1,428.46,67a35.77,35.77,0,0,1-3.1-14.46,36.82,36.82,0,0,1,4.86-18q4.86-8.8,15.7-14.32,7.62-3.89,20.72-3.89a57.44,57.44,0,0,1,14.8,1.58A37.71,37.71,0,0,1,490.56,21.47Z" transform="translate(-0.14 -1.23)"/><path d="M502.86,83.61a2.73,2.73,0,0,1,1.31-.42h1.21q.37,0,1.26-.05a20.61,20.61,0,0,0,4.78-.74,8.09,8.09,0,0,0,3.15-3.47,126.57,126.57,0,0,0,6.15-15.19q1.63-4.68,2.05-5.68,1.31-3.15,2.53-6.62l4.94-13.83q1.16-3.26,5.58-14.93,1.1-2.94,2.68-7.89l1.55-.1,1.84.05a72.76,72.76,0,0,1,4,9.62q.95,2.73,3.1,8.15l8,21.61,4.25,11.72q3.36,10,4.42,12.27a8.88,8.88,0,0,0,1.95,3,7.79,7.79,0,0,0,2,.63q1.71.42,2.39.63a21.8,21.8,0,0,1,3.37,1.16,2.87,2.87,0,0,1,.21.89,3.06,3.06,0,0,1-.16.79q-1.68.05-2.37.05-2.68,0-9.46-.16L558.28,85l-6.36.08q-.63,0-1.29-.06c-.44,0-.82-.06-1.13-.06h-1.16a2.6,2.6,0,0,1-1.05-.32,3.91,3.91,0,0,1,.26-1.42,3.37,3.37,0,0,1,1.16-.37l5.52-.37a9.85,9.85,0,0,0,3.26-.58,5,5,0,0,0,.32-1.42,22.87,22.87,0,0,0-1.37-4.9q-.94-2.63-1.65-5T549.19,55a22.85,22.85,0,0,0-3.79-.37l-11.25.1-3.31-.05a32.8,32.8,0,0,0-3.94.26q-.68,1.58-.89,2.26l-4.63,14.46q-2.95,8.25-2.94,9.09a4.77,4.77,0,0,0,.47,1.58,23,23,0,0,0,2.95.58l7.15.63q.58.47.58.84a3,3,0,0,1-.16.79q-2.37.05-3.63.05-4.21,0-9.78-.26-2.58-.1-3.68-.11t-3.84.11q-1.79.11-2.58.11-1.26,0-3.26-.16V84.6A3.41,3.41,0,0,1,502.86,83.61ZM528,52.06q5.63.32,12.83.32,4.1,0,7.2-.26a35.47,35.47,0,0,0-1.21-3.84q-3.41-9.14-3.78-10.09l-4.78-12.14-.52-.95q-.32.63-2.32,5.41-3.37,8.2-4.84,12.77-.69,2.05-1.42,4.07a27.82,27.82,0,0,0-.92,2.84,9.11,9.11,0,0,1-.55,1.66Z" transform="translate(-0.14 -1.23)"/><path d="M577.79,20.21V18.58a11.83,11.83,0,0,1,1.42-.26l4.94-.27q6.15-.55,13.78-.88,3-.1,9.62-.1,8.94,0,13.09,1.31a17.72,17.72,0,0,1,9,5.86,14.06,14.06,0,0,1,3,8.7q0,7.78-11.1,13.09l-.26.39a27,27,0,0,1,9.31,4.26,18.58,18.58,0,0,1,5.57,6.68,17.28,17.28,0,0,1,1.42,7.57q0,7.84-7.12,14T610.81,85H603l-7.94.26q-10.52.1-12.3.11t-3.63-.16v-.59a1.29,1.29,0,0,1,.26-.92,2.59,2.59,0,0,1,1.21-.54q6.57-1.36,7.44-1.86a2.56,2.56,0,0,0,1.18-1.6q.63-2.1.63-10.81,0-.79-.05-2-.11-3.52-.1-4V57.42q0-13.85-.32-24.19l-.05-10.55-.05-1.31q-4.47-.63-7.89-.79A18.36,18.36,0,0,1,577.79,20.21Zm20.82,26.55a28.22,28.22,0,0,0,5.53.53q11.38,0,15.44-5t4.06-9.94a15.1,15.1,0,0,0-.71-4.49,10.1,10.1,0,0,0-2.53-4.13A11.17,11.17,0,0,0,615.9,21a29.53,29.53,0,0,0-9.38-1.52,33.08,33.08,0,0,0-8.32,1c0,.74-.05,1.28-.05,1.63s0,1.35.1,3q.05,1.58.05,3.15l-.16,6.36.05,3.78.37,7.41ZM611,82.5a22.21,22.21,0,0,0,8.74-2.21,17.39,17.39,0,0,0,3.87-3A15.17,15.17,0,0,0,627.08,72a15.62,15.62,0,0,0,1.24-5.89,20.66,20.66,0,0,0-.87-5.31,14,14,0,0,0-3-5.55,15.09,15.09,0,0,0-6.19-3.94,25.48,25.48,0,0,0-9.06-1.55q-9.59,0-10.75.37-.05,1.21-.05,1.79l.05,1.95-.05,3.94v4.47q.16,12.35.58,14.61a6,6,0,0,0,2.87,3.89Q604.36,82.45,611,82.5Z" transform="translate(-0.14 -1.23)"/><path d="M638.68,83.61a2.73,2.73,0,0,1,1.31-.42h1.21q.37,0,1.26-.05a20.61,20.61,0,0,0,4.78-.74,8.09,8.09,0,0,0,3.15-3.47,126.57,126.57,0,0,0,6.15-15.19q1.63-4.68,2.05-5.68,1.31-3.15,2.53-6.62l4.94-13.83q1.16-3.26,5.58-14.93,1.1-2.94,2.68-7.89l1.55-.1,1.84.05a72.76,72.76,0,0,1,4,9.62q.95,2.73,3.1,8.15l8,21.61L697,65.84q3.36,10,4.42,12.27a8.88,8.88,0,0,0,1.95,3,7.79,7.79,0,0,0,2,.63q1.71.42,2.39.63a21.8,21.8,0,0,1,3.37,1.16,2.87,2.87,0,0,1,.21.89,3.06,3.06,0,0,1-.16.79q-1.68.05-2.37.05-2.68,0-9.46-.16L694.1,85l-6.36.08q-.63,0-1.29-.06c-.44,0-.82-.06-1.13-.06h-1.16a2.6,2.6,0,0,1-1.05-.32,3.91,3.91,0,0,1,.26-1.42,3.37,3.37,0,0,1,1.16-.37l5.52-.37a9.85,9.85,0,0,0,3.26-.58,5,5,0,0,0,.32-1.42,22.87,22.87,0,0,0-1.37-4.9q-.94-2.63-1.65-5T685,55a22.85,22.85,0,0,0-3.79-.37l-11.25.1-3.31-.05a32.8,32.8,0,0,0-3.94.26q-.68,1.58-.89,2.26l-4.63,14.46q-2.95,8.25-2.94,9.09a4.77,4.77,0,0,0,.47,1.58,23,23,0,0,0,2.95.58l7.15.63q.58.47.58.84a3,3,0,0,1-.16.79q-2.37.05-3.63.05-4.21,0-9.78-.26-2.58-.1-3.68-.11t-3.84.11q-1.79.11-2.58.11-1.26,0-3.26-.16V84.6A3.41,3.41,0,0,1,638.68,83.61Zm25.09-31.54q5.63.32,12.83.32,4.1,0,7.2-.26a35.47,35.47,0,0,0-1.21-3.84q-3.41-9.14-3.78-10.09L674,26.05l-.52-.95q-.32.63-2.32,5.41-3.37,8.2-4.84,12.77-.69,2.05-1.42,4.07A27.82,27.82,0,0,0,664,50.2a9.11,9.11,0,0,1-.55,1.66Z" transform="translate(-0.14 -1.23)"/><path d="M704.36,17.58h2.52q1.37,0,6,.14Q720,18,724.76,18l6.15-.1a14.77,14.77,0,0,1,2.52.21,1.34,1.34,0,0,1,.37.89v.58l-1.32.63h-.58l-3,.05-1.53-.05a4.91,4.91,0,0,0-2.91.79,1.57,1.57,0,0,0-.84,1.21,3.3,3.3,0,0,0,.74,1.73q.26.42.84,1.26Q726.29,27,728,29.36q2.47,3.47,5.26,8.21,1.1,1.9,2.32,3.63l8,12.1q.79-1,2.16-2.95l7.59-10.89,8.75-13.1a10.46,10.46,0,0,0,1.37-2.63,3.71,3.71,0,0,0,.1-.89,2.08,2.08,0,0,0-1-1.79q-1.63-1.1-7-1.63l-1-.16a2.22,2.22,0,0,1-.37-1.05,4.84,4.84,0,0,1,.05-.68l2.73-.05,9.89.26,7.94-.16,2.21.05-.16,1.84a6,6,0,0,1-1.16.16l-1.26.16c-.21,0-.54.07-1,.1a7.23,7.23,0,0,0-1.74.89,173.64,173.64,0,0,0-13.15,15.4q-5.42,7.25-9.15,13.19-1.21,1.95-1.95,2.89a10.37,10.37,0,0,0-1.63,2.63,24.64,24.64,0,0,0-.58,6.21q0,16.38.58,19.33.31,1.48.84,1.79,1.37.68,10.88,1.63v.62a4,4,0,0,1-.37,1.49l-13.48-.58-9,.47h-7.37q-1.05,0-2.32-.05a2.82,2.82,0,0,1-.21-.84,2.52,2.52,0,0,1,.16-.74,1.48,1.48,0,0,1,.74-.37l6.81-1.05a16.7,16.7,0,0,0,4-1.58,3.21,3.21,0,0,0,.79-1.95q.05-.95.05-14.61a31.47,31.47,0,0,0-.34-6.23,19.09,19.09,0,0,0-2.23-4L727.81,44,716.08,26.94A23,23,0,0,0,710.77,21q-1-.68-5-1a11.17,11.17,0,0,1-1.26-.1Z" transform="translate(-0.14 -1.23)"/></g><g id="独立环境报道"><path d="M379.53,106.48q-1,.9-2.13,1.76t-2,1.49a2.9,2.9,0,0,0-.63-.84,3.74,3.74,0,0,0-.87-.6,22.76,22.76,0,0,0,4.81-3.17,9.23,9.23,0,0,0-3.76-3.25l1.13-1.4a8.34,8.34,0,0,1,1,.72q.57.45,1.12.93t1,1a8.38,8.38,0,0,1,.75.84,19.76,19.76,0,0,0,2.78-3.49q.57.45,1,.72a7.62,7.62,0,0,0,.82.48c.22.1.33.22.33.36s-.14.22-.42.24a2.13,2.13,0,0,0-.85.31,3.37,3.37,0,0,0-.91.79,22.78,22.78,0,0,1-1.85,1.94,14.07,14.07,0,0,1,1.21,2.82,19.48,19.48,0,0,1,.69,3.3,35.83,35.83,0,0,1,.25,3.91q0,2.12-.09,4.63a11.52,11.52,0,0,1-.43,2.79,4.25,4.25,0,0,1-1,1.76,4.15,4.15,0,0,1-1.7,1,14,14,0,0,1-2.43.51,4.09,4.09,0,0,0-.3-1.22,4.78,4.78,0,0,0-.81-1.22,13.23,13.23,0,0,0,2.25.09,2.46,2.46,0,0,0,1.46-.52,2.87,2.87,0,0,0,.84-1.45,14.73,14.73,0,0,0,.43-2.66q.15-1.7.13-3.3t-.16-3.06a31.51,31.51,0,0,1-2.72,3.22,38.46,38.46,0,0,1-3.11,2.9,4.5,4.5,0,0,0-.55-1,3.46,3.46,0,0,0-.76-.76,21,21,0,0,0,3.6-2.7,18.08,18.08,0,0,0,3.18-3.9A14.8,14.8,0,0,0,379.53,106.48ZM387.06,118h-1.91q.09-.87.12-1.72t0-1.6V107.2q0-.81,0-1.55a7.8,7.8,0,0,0-.09-1l1,.06,1.52.06,1.84,0h2v-1.93q0-.82,0-1.48t-.06-1.18l-.06-1a12.08,12.08,0,0,0,1.21.16,8.78,8.78,0,0,0,1.15,0c.26,0,.41,0,.45.21s-.07.3-.33.42a.87.87,0,0,0-.39.54,3.05,3.05,0,0,0-.12.9v3.37q2.15,0,3.91,0t2.45-.13a8.66,8.66,0,0,0-.08,1.1q0,.72,0,1.49V115c0,.41,0,.76,0,1s0,.54,0,.75,0,.41,0,.61h-1.88v-1.64h-4.48v6.72l4.78-.42q-.42-.72-.89-1.42t-1.08-1.45l1.55-.84a40,40,0,0,1,2.18,3.39q.93,1.63,1.76,3.42l-1.79.87q-.51-1.4-1-2.57l-7.61.81q-1.46.15-2.51.28l-1.82.24-1.36.21-1.12.22a8.4,8.4,0,0,0-.19-1.18,5.24,5.24,0,0,0-.46-1.18q.75.06,1.49.06l1.66,0q.91,0,2-.09l2.58-.19v-6.87h-4.51Zm0-11.7v7.88h4.51v-7.88Zm10.81,0h-4.48v7.88h4.48Z" transform="translate(-0.14 -1.23)"/><path d="M422,122.16q.87-1.82,1.69-3.76t1.49-3.81q.67-1.87,1.12-3.51a20.69,20.69,0,0,0,.6-2.87,8.24,8.24,0,0,0,1.25.69,3.81,3.81,0,0,0,1,.27c.32,0,.49.15.52.31s-.12.35-.46.55a2.19,2.19,0,0,0-.46.52,9.89,9.89,0,0,0-.85,1.72l-.79,1.9-.9,2.13-1.09,2.58-1.37,3.27h3.45l2.63,0,2-.07,1.58-.1v2.15q-.81-.09-1.72-.15t-2.31-.1q-1.4,0-3.52-.06H415.29q-2.1,0-3.52.06t-2.31.1q-.9.06-1.7.15v-2.21l1.9.13q1.09.07,2.34.12t2.58.06l2.61,0Zm-.39-17.35q2.06,0,3.63,0l2.76-.06q1.19,0,2.06-.09l1.52-.12v2.12q-.72-.09-1.66-.15t-2.27-.1q-1.33,0-3.12-.06l-4.18,0-4.09,0q-1.7,0-2.94.06t-2.09.1q-.85.06-1.57.15v-2.12l1.52.12q.84.06,2,.1t2.79.06l3.85,0a19.68,19.68,0,0,0-1-2.45q-.57-1.14-1.43-2.6l1.79-1,.73,1.67q.31.72.58,1.39t.52,1.37Zm-4.57,15.88q-.42-1.25-.85-2.43t-1-2.42q-.52-1.24-1.19-2.61t-1.51-3l1.49-.87q1.34,2.69,2.58,5.37t2.28,5.23Z" transform="translate(-0.14 -1.23)"/><path d="M444.23,103.08a44.93,44.93,0,0,0-4.57.27v-1.94q1,.12,2.39.18t3.25.06q1.79,0,3.08-.06t2.24-.18v1.94q-.87-.12-2-.18t-2.63-.09v6.66q1.43,0,2.51-.09t1.85-.15v1.91a33.31,33.31,0,0,0-4.36-.27v6.81q1.19-.45,2.31-.9t2.08-.87a3.74,3.74,0,0,0,0,1.11,4.94,4.94,0,0,0,.22.87q-.9.27-2.25.76l-2.82,1-2.85,1.1-2.37,1a4.45,4.45,0,0,0-.9-2.15q1-.21,2.22-.55t2.58-.76v-7.43q-1.34,0-2.4.08t-1.78.19V109.5q.75.09,1.81.16t2.37.07Zm13.85.36q-2.45,0-4,0a25.91,25.91,0,0,0-2.6.21v-2.09l1.18.1,1.34.07,1.78,0h2.45q3,0,5.06,0t3.36-.19v2.09q-1-.12-2.75-.18t-4-.06q-.24,1.22-.49,2.33t-.52,2.15v14q0,1.28,0,2.36t.19,2.27h-2.3q.15-1.25.21-2.3t.06-2.33v-9.17a30,30,0,0,1-2.63,4.48,38.68,38.68,0,0,1-3.67,4.39,5.27,5.27,0,0,0-.85-.79,4.46,4.46,0,0,0-1.09-.55,24.09,24.09,0,0,0,3.45-3.36,23.3,23.3,0,0,0,2.63-3.88,25.78,25.78,0,0,0,1.88-4.48A39.46,39.46,0,0,0,458.09,103.44Zm7.61,16.27a41.07,41.07,0,0,0-2.61-4.67,34.45,34.45,0,0,0-3.21-4.22l1.64-1.16q1.82,2.33,3.36,4.6t2.67,4.3Z" transform="translate(-0.14 -1.23)"/><path d="M476.78,110q-1.1,0-2,.09a8.73,8.73,0,0,0-1.51.21v-2.06a8.63,8.63,0,0,0,1.51.21q.91.06,2,.09v-1.76q0-1.58,0-2.78t0-2q0-.85-.07-1.42t-.1-.9a8.5,8.5,0,0,0,1.15.21,7.31,7.31,0,0,0,1.15,0c.32,0,.49,0,.52.21s-.1.32-.4.48-.39.47-.39,1v7q1,0,1.75-.09a8.94,8.94,0,0,0,1.33-.21v2.06a9.07,9.07,0,0,0-1.33-.21q-.7-.06-1.75-.06v8.3q1-.27,1.88-.57t2-.72a6.53,6.53,0,0,0-.06.92,3.34,3.34,0,0,0,.12.93,48.72,48.72,0,0,0-5.15,1.39,36.51,36.51,0,0,0-3.9,1.51,6.1,6.1,0,0,0-.36-1.17,5,5,0,0,0-.57-1q2.42-.45,4.27-.84Zm16.48,12.72a2.32,2.32,0,0,0,.06.58.54.54,0,0,0,.27.34,1.56,1.56,0,0,0,.58.17,9,9,0,0,0,1,0,8.71,8.71,0,0,0,1.52-.1,1.5,1.5,0,0,0,1.33-1.24,10.52,10.52,0,0,0,.22-1.43,3.49,3.49,0,0,0,.94.69,3.93,3.93,0,0,0,.94.33,8.22,8.22,0,0,1-.61,1.64,2.82,2.82,0,0,1-.91,1,3.73,3.73,0,0,1-1.4.55,10.93,10.93,0,0,1-2.06.16,17.91,17.91,0,0,1-1.82-.07,2.51,2.51,0,0,1-1.06-.31,1.13,1.13,0,0,1-.49-.69,5,5,0,0,1-.12-1.22v-4.69h-2.84a12.05,12.05,0,0,1-.34,2.81,4.61,4.61,0,0,1-1.19,2.09,7.75,7.75,0,0,1-2.46,1.58,27,27,0,0,1-4.09,1.31,3,3,0,0,0-.49-1.15,4.34,4.34,0,0,0-1-.91,21.31,21.31,0,0,0,3.9-.6,6.83,6.83,0,0,0,2.42-1.1,3.68,3.68,0,0,0,1.24-1.69,7.45,7.45,0,0,0,.39-2.34l-2.06.07q-.93,0-1.52.1.09-.72.12-1.45t0-1.72v-1.94q0-1.08,0-1.91t-.1-1.43a8.64,8.64,0,0,0,1,.13l1.33.08,1.88,0h5.31l1.87,0q.76,0,1.28-.08a8.7,8.7,0,0,0,1-.13,24.38,24.38,0,0,0-.18,3.34v1.94q0,1,0,1.69a13.31,13.31,0,0,0,.15,1.48q-.66-.09-1.69-.13t-2.31,0Zm-1.67-15.14a19.3,19.3,0,0,0,1.15-1.78,13.54,13.54,0,0,0,.88-2,5.74,5.74,0,0,0,1.58.9q.36.12.39.34t-.33.31a1.67,1.67,0,0,0-.73.54,16.92,16.92,0,0,0-1.21,1.64l1.48,0q.85,0,1.72-.06l1.63-.09q.76,0,1.21-.1v1.94l-1.19-.13c-.46,0-1-.09-1.72-.12l-2.49-.08q-1.46,0-3.49,0h-3.36l-2.3,0q-.94,0-1.55.09l-1.09.12v-1.85q.45.06,1.07.1l1.34.09q.72,0,1.42.06l1.3,0a11.22,11.22,0,0,0-1-1.33,8.53,8.53,0,0,0-1.15-1.06l1.52-1q.6.69,1.21,1.54a21.82,21.82,0,0,1,1.21,1.9Zm-2.12-5.25a12.38,12.38,0,0,0-.63-1.4,7.88,7.88,0,0,0-.84-1.28l1.82-.72q.57,1,.91,1.84a15.23,15.23,0,0,1,.58,1.57q2.06,0,3.79-.06t2.84-.18v1.79q-1.25-.12-3.17-.18t-4.6-.06q-2.36,0-4.36,0t-3.25.19v-1.79a29,29,0,0,0,2.94.19Q487.32,102.36,489.47,102.36Zm6,9.46h-10v2h10Zm-10,5.43h10v-2.09h-10Z" transform="translate(-0.14 -1.23)"/><path d="M510.81,106.42q-1.43,0-2.73.09t-2.25.18v-2q1,.12,2.17.18t2.82.06q0-2.24-.13-3.61a15.18,15.18,0,0,0-.28-2.15,6.61,6.61,0,0,0,1.18.16,8.11,8.11,0,0,0,1.09,0q.33,0,.39.15c0,.12,0,.25-.21.39s-.24.57-.24,1.34v3.76q1.4,0,2.27-.07t1.73-.17v2q-.42-.06-1-.1l-1.12-.09-1.07-.06h-.84V112q1.58-.78,3.55-1.91a4.37,4.37,0,0,0,.6,1.82q-1,.42-2,.91l-2.15,1v8.6a5,5,0,0,1-.18,1.43,2,2,0,0,1-.67,1,3.4,3.4,0,0,1-1.4.61,14.92,14.92,0,0,1-2.34.3,4.61,4.61,0,0,0-.28-1.24,3.66,3.66,0,0,0-.79-1.18,17.75,17.75,0,0,0,2.06.24,2.75,2.75,0,0,0,1.18-.15.89.89,0,0,0,.52-.57,3.83,3.83,0,0,0,.12-1.08v-7.08l-2.22,1.1-2.08,1.08a10.36,10.36,0,0,0-.51-1.09,7.76,7.76,0,0,0-.69-1q1.58-.48,2.9-.93t2.6-1Zm8.45,19.74h-2q.06-1,.1-1.85t.06-1.67q0-.83,0-1.81t0-2.28V103.83q0-.87,0-1.79a13.13,13.13,0,0,0-.08-1.37l2.69.1q1.52,0,3.76,0t3.52,0l2.69-.1-.78,5.58a5.39,5.39,0,0,1-.37,1.46,1.91,1.91,0,0,1-.84.9,4.45,4.45,0,0,1-1.58.46,23.8,23.8,0,0,1-2.64.17,4.65,4.65,0,0,0-.19-1.13A3.28,3.28,0,0,0,523,107a17.6,17.6,0,0,0,2.4.39,3.47,3.47,0,0,0,1.34-.1,1,1,0,0,0,.63-.55,3.55,3.55,0,0,0,.22-1l.36-3.37h-8.69v8.51h7.64q1.19,0,2.4-.06t1.78-.12q-.48,1.79-.91,3.13t-.91,2.45a15,15,0,0,1-1.06,2,19.67,19.67,0,0,1-1.33,1.85,15,15,0,0,0,2.94,1.9,14.73,14.73,0,0,0,3.21,1.06,4.36,4.36,0,0,0-.94,1,4.3,4.3,0,0,0-.43,1,20.91,20.91,0,0,1-3.24-1.67,18.91,18.91,0,0,1-2.7-2.09,12.45,12.45,0,0,1-2.22,2.3,19.7,19.7,0,0,1-2.85,1.88,1.26,1.26,0,0,0-.49-.69,3.5,3.5,0,0,0-.88-.45Zm0-13.91V123.8a10.59,10.59,0,0,0,2.82-1.51,17,17,0,0,0,2.34-2.11,16.71,16.71,0,0,1-2.28-3.63,25.62,25.62,0,0,1-1.6-4.31Zm2.81,0a14.13,14.13,0,0,0,.57,1.84,17.62,17.62,0,0,0,.82,1.84,16.32,16.32,0,0,0,1,1.69,12.92,12.92,0,0,0,1.1,1.42,14.23,14.23,0,0,0,2.18-3.31,13.73,13.73,0,0,0,1.1-3.46Z" transform="translate(-0.14 -1.23)"/><path d="M543.06,122.16a15.1,15.1,0,0,1-1.25,1.7,20.86,20.86,0,0,1-1.61,1.67,5.82,5.82,0,0,0-1.61-1.25,18.67,18.67,0,0,0,2-1.73,11,11,0,0,0,1.49-1.9,12.48,12.48,0,0,0,1.1-2.28,21.59,21.59,0,0,0,.82-2.93h-2.11l-.57.06-.58.1c-.2,0-.43.1-.69.18a4.64,4.64,0,0,0-.6-1.61L540,114a1.73,1.73,0,0,0,.42-.24,2,2,0,0,0,.36-.36,6.54,6.54,0,0,0,.37-.54l2.06-3.85h-1.73q-.63,0-1.17,0c-.36,0-.83.06-1.4.12v-1.91l.87.09.78.06q.39,0,.81,0h1q1.46,0,2.22,0t1.42-.13L542.17,114H544l1,0q.52,0,1-.09-.6,2.36-1.13,4a24,24,0,0,1-1.13,2.91,12.46,12.46,0,0,0,3.17,1.72,17.7,17.7,0,0,0,4.21.91,45.24,45.24,0,0,0,5.93.18q3.45-.09,8.32-.51a5.85,5.85,0,0,0-.61,1.21,4,4,0,0,0-.16,1q-3.43.09-6.06.08t-4.67-.12q-2-.11-3.58-.33a20,20,0,0,1-2.79-.6,14.37,14.37,0,0,1-2.33-.91A20.07,20.07,0,0,1,543.06,122.16Zm.72-16.54-.78-1.21q-.36-.55-.73-1.08l-.78-1.07q-.4-.55-.91-1.18l1.31-1q.81,1,1.72,2.12t1.78,2.33Zm13.53-1.76q.57-.87.92-1.46t.63-1.1q.27-.51.48-1t.45-1.22a8.8,8.8,0,0,0,1,.63,4,4,0,0,0,.91.36c.26.06.39.19.4.39a.32.32,0,0,1-.31.36,1.65,1.65,0,0,0-.49.19,3,3,0,0,0-.54.45,9.48,9.48,0,0,0-.76.9l-1.13,1.51q1.91,0,3.57-.08t2.7-.19v1.82l-1.61-.12-2.11-.1q-1.15,0-2.39-.06h-2.49q-.27.63-.55,1.25l-.61,1.37,2.08,0,2.18-.08,1.81-.09,1-.08a8.18,8.18,0,0,0-.09.85c0,.33,0,.69-.08,1.07s0,.79-.06,1.21,0,.82,0,1.19v6.39q0,1.31,0,2.22t.13,1.9H560.5v-2H550.29v2.21h-1.82q.09-1,.15-2t.06-2.11v-6.6c0-.32,0-.68,0-1.09s0-.82,0-1.22,0-.79-.06-1.13,0-.64-.06-.88a5.38,5.38,0,0,0,.79.1l1.28.08,1.54.06,1.58,0q.36-.69.61-1.3t.49-1.33h-2.45q-1.22,0-2.31.06l-2,.1-1.57.12v-1.82q.81.09,1.75.13l2.19.09q1.26,0,2.94.06Zm-5-.15-.63-.88q-.3-.4-.66-.81t-.82-.84q-.46-.43-1.12-1l1.28-1q.57.54,1,1l.76.81q.36.39.72.81t.81,1Zm8.24,7.61V109H550.29v2.3Zm-10.21,1.28v2.48H560.5V112.6Zm0,6.42H560.5v-2.66H550.29Z" transform="translate(-0.14 -1.23)"/></g><g id="Layer_4_Image" data-name="Layer 4 Image"><path d="M81.41,144.31q-40.23,0-80.46,0c-.62,0-.81-.08-.81-.78Q.17,72.76.14,2c0-.64.14-.75.76-.75q80.5,0,161,0c.6,0,.77.08.77.74q0,70.82,0,141.65c0,.6-.15.71-.72.71Q121.68,144.3,81.41,144.31Zm-46-112.38c-.35-.12-.55.09-.76.21-1.35.78-2.71,1.53-4,2.35A53,53,0,0,0,17.16,46.1C13.23,51,11,56.66,9.15,62.54A24.94,24.94,0,0,0,8,73.8a49.62,49.62,0,0,0,6.76,18.47c4.63,7.64,11.28,13.08,19.3,16.9a34.85,34.85,0,0,0,21.84,3.07,93,93,0,0,0,21.15-6.56c3.38-1.51,6.68-3.18,10-4.87a.93.93,0,0,1,1.3.2c.53.61,1.08,1.19,1.59,1.81,2.76,3.37,5.22,7,7.93,10.36a1.09,1.09,0,0,1-.07,1.67,13.67,13.67,0,0,1-2.2,1.84c-2.26,1.61-4.65,3-7,4.49a5.46,5.46,0,0,0-2.4,3,10.9,10.9,0,0,1-.7,1.8c-1.39,2.59-3,4.9-6.2,5.52a4.18,4.18,0,0,0-.87.32,1.8,1.8,0,0,0-1.16,2.37c.31,1.15.87,1.5,2.15,1.35a4.81,4.81,0,0,0,1.48-.46.91.91,0,0,0,.63-.82c-.09-1,.6-1.36,1.16-1.87.88-.81,1.79-1.58,2.62-2.43a2.58,2.58,0,0,1,2.13-.69.91.91,0,0,1,.95.85,25,25,0,0,1,.31,3.71,3.92,3.92,0,0,1-1.16,3.07c-1.45,1.46-1,2.89.94,3.55a5.47,5.47,0,0,0,.75.2c1.31.24,1.69,0,1.77-1.32.15-2.69.21-5.38.32-8.07,0-.28-.17-.77.23-.78s1.3-.22,1.56.34a19.47,19.47,0,0,1,1.75,4.3A3.67,3.67,0,0,0,97.3,138a1.16,1.16,0,0,0,1.58-.58,3.12,3.12,0,0,0-1.29-4.19c-1.35-.51-1.77-1.66-2.22-2.79-.28-.69,0-1.1.74-1.09,1.87,0,3.79,0,5.31,1.41a3.82,3.82,0,0,0,1.46.87,1.18,1.18,0,0,0,1-.06,3,3,0,0,0,1.08-3.1c-.23-.73-1-1-2.17-.89a8.86,8.86,0,0,1-1.53.24c-1.94-.11-3.87-.29-5.81-.44-.31,0-.61-.09-.56-.48.09-.65.25-1.32,1-1.53,1.11-.31,2.22-.75,3.4-.21a2.26,2.26,0,0,0,.76.16,1.82,1.82,0,0,0,1.82-1,1.94,1.94,0,0,0-.27-2.12,1.48,1.48,0,0,0-1.66-.54,3.51,3.51,0,0,0-2.26,1.24,1.14,1.14,0,0,1-.83.51c-1,.05-1.91.15-2.87.17-.39,0-1,.07-1.1-.35s.42-.6.72-.82c2.59-1.85,5.21-3.67,7.79-5.53a24.74,24.74,0,0,0,4.09-3.46,1.84,1.84,0,0,0,.47-1.64,16.71,16.71,0,0,0-.9-3.13c-2-5.46-4.63-10.68-7.2-15.9A.81.81,0,0,1,98,91.67c2.53-2.49,5-5,7.35-7.71,3.26-3.67,6.37-7.45,8-12.2.56-1.67,1.18-3.32,1.76-5,1.1-3.12,2-6.33,3.27-9.38.53-1.23.81-1.29,1.88-.49,1.22.92,2.29,2,3.42,3a15.37,15.37,0,0,0,3.23,2.53c.8.4,1.21.28,1.7-.47a11.21,11.21,0,0,0,1.23-2.76c.64-2,1.28-4,1.86-6a2.65,2.65,0,0,1,1.93-2,4.17,4.17,0,0,0,1.81-1,2.67,2.67,0,0,1,2.35-.69c1.72.19,3.41.63,5.15.71a1,1,0,0,0,1-.73c.43-1.13-.08-1.89-1.29-1.92-1.55,0-3.11,0-4.66-.12-.65,0-.94-.32-.94-1A5.28,5.28,0,0,1,138,43.6a1.53,1.53,0,0,1,1.08-.69,8.88,8.88,0,0,0,2.17-.81c.61-.27.71-.88.42-1.61a.85.85,0,0,0-1.3-.52,7,7,0,0,0-3,2.54,2.3,2.3,0,0,1-2.31.9.72.72,0,0,1-.74-.58,7.67,7.67,0,0,1,.06-3.92,6.89,6.89,0,0,0,.38-2.35c0-1.05-.59-1.45-1.58-1.12a1.79,1.79,0,0,0-1.2,1.31,3.52,3.52,0,0,0,0,1.7,9.69,9.69,0,0,1-.33,4.13c-.07.34-.16.79-.57.85s-.75-.31-.93-.7c-.71-1.52-1.42-3-2.1-4.58a5.08,5.08,0,0,0-.51-1.2,1.24,1.24,0,0,0-1.51-.48,1.69,1.69,0,0,0-1,1.82,1.09,1.09,0,0,0,1,1.16.91.91,0,0,1,.85.66c.47,1.12.94,2.24,1.39,3.37a2.19,2.19,0,0,1-.11,1.66.66.66,0,0,1-1.12.32,5.39,5.39,0,0,1-.91-.95c-.72-.81-1.41-1.68-2.68-1.61a.93.93,0,0,0-1,.88,1.56,1.56,0,0,0,1.89,2,1.76,1.76,0,0,1,1.77.63c.58.66,1.25,1.24,1.88,1.85a1.19,1.19,0,0,1,.44.78c.11,1.11.24,2.21.39,3.32a1.26,1.26,0,0,1-.12.75c-.58,1.19-1.12,2.39-1.73,3.56s-.77,1.21-1.64.12c-2.71-3.37-5.06-7-7.92-10.27a3.56,3.56,0,0,1-.8-3.43,8.3,8.3,0,0,1,2.27-4.46,30.59,30.59,0,0,0,3.87-4.75,13.92,13.92,0,0,0,2.65-5.4,52,52,0,0,0,.67-15.77,11.79,11.79,0,0,0-1.74-5.26,4,4,0,0,0-4.14-1.85,8.94,8.94,0,0,0-3,1,25.32,25.32,0,0,0-6.42,5.22c-3.41,3.65-6,7.74-6.69,12.79a12.84,12.84,0,0,0-.17,2.94c.2,2.27.61,4.51,1,6.76a40.62,40.62,0,0,1,.73,7.49,2.44,2.44,0,0,1-1.14,2.12c-3,2.26-6.21,4.33-8.05,7.91-1.54,3-4.61,4.17-7.64,5.21A2.24,2.24,0,0,1,87.5,57a23.28,23.28,0,0,1-4.14-1.55,2,2,0,0,1-1.17-2.75c.74-1.54,1.55-3.13,3.55-3.44a1,1,0,0,0,.85-1,1,1,0,0,0-.69-1.1,1.33,1.33,0,0,0-1.91,1,3.5,3.5,0,0,1-4,2.51,1,1,0,0,1-.89-.73c-.19-.7-.35-1.41-.58-2.09-.16-.47-.09-.75.38-1s1-.51,1.54-.72a1.26,1.26,0,0,0,.84-1.28.9.9,0,0,0-.73-.82,2.22,2.22,0,0,0-2.95,1.55,1,1,0,0,1-.21.41,2.81,2.81,0,0,0-.73,2.56,6,6,0,0,1,0,1.09c0,.45.1,1-.49,1.18a1.28,1.28,0,0,1-1.45-.48A39.1,39.1,0,0,1,71.24,46a1.62,1.62,0,0,0-1.92-.62c-.77.24-.9.85-.89,1.54a1.44,1.44,0,0,0,1.48,1.57,6.63,6.63,0,0,1,3.76,2.3c.58.57.44,1-.34,1.26-1.73.58-3.46,1.07-4.94-.58a.65.65,0,0,0-.12-.09,1.89,1.89,0,0,0-2.11,0,2,2,0,0,0-.59,2,1.55,1.55,0,0,0,1.64,1,2.62,2.62,0,0,0,1.5-.3,1.19,1.19,0,0,1,.9-.14,10.91,10.91,0,0,0,2.24.13,4.8,4.8,0,0,1,1.67.32c.29.12.6.28.63.62s-.31.52-.59.63a5.56,5.56,0,0,1-1.11.33c-.79.14-1.6.19-2.38.35s-1,.62-.57,1.36a5,5,0,0,0,.4.57c.7.87,1.18.92,2,.11A4.51,4.51,0,0,1,74.33,57a11.92,11.92,0,0,0,1.73-.45,1.79,1.79,0,0,1,1.47.17c3.29,1.59,6.45,3.46,10.32,3.55,2.72.06,5.35.2,7.48-1.89a2.06,2.06,0,0,1,.39-.26c.52-.31,1-.9,1.67-.52s.37,1,.3,1.59a43.1,43.1,0,0,1-4.4,14.56A4.28,4.28,0,0,1,92.34,75c-.72.65-1.32.52-1.69-.37A8.81,8.81,0,0,1,90.18,72c-.17-1.91-.14-3.83-.46-5.73-.35-2.15-.92-2.69-3-2.36a21.15,21.15,0,0,0-9.12,3.5,7.17,7.17,0,0,1-5.13,1.34c-.36,0-.56-.16-.63-.54-.23-1.33-.25-2.58.93-3.54.52-.43,1-.91,1.5-1.35a3,3,0,0,0,.77-.86,1.51,1.51,0,0,0-.67-2c-.61-.31-1.13-.08-1.52.75A15.42,15.42,0,0,0,72,63.33c-.16.52-.41.72-.94.64a2.15,2.15,0,0,0-.62,0c-.52.07-.76-.18-.84-.67-.18-1.12-.37-2.24-.56-3.37-.1-.61-.08-1.34-.57-1.74-.86-.69-1.4-1.65-2.18-2.4a1.16,1.16,0,0,0-1.62-.15A2.11,2.11,0,0,0,64,57.7c0,.67.17,1.25.94,1.52s1.45.52,1.71,1.25a12,12,0,0,1,.8,4.25c0,1.08-.59,1.37-1.54.83a14,14,0,0,1-2.79-2.45,2.29,2.29,0,0,1-.6-1.05A3.06,3.06,0,0,0,59,60.1a1.25,1.25,0,0,0-.87.81c-.49,1.34.82,3.41,2.22,3.68a7.27,7.27,0,0,1,4.75,3.19c.84,1.27.42,2.1-1.1,2.36a10.71,10.71,0,0,1-4.62-.07,2.67,2.67,0,0,0-2.81,1.06c-.62.69-.13,1.44.24,2.08a1.68,1.68,0,0,0,2.93.19A3.17,3.17,0,0,1,61,72.32a12.26,12.26,0,0,1,5.15-.94c.55,0,1.14.08,1.38.68a2.12,2.12,0,0,1,0,2.22,17.18,17.18,0,0,1-2.88,2.92A1.92,1.92,0,0,0,64,79.49a1.57,1.57,0,0,0,1.42,1,1.34,1.34,0,0,0,1.25-1,7,7,0,0,0,.34-1,8.55,8.55,0,0,1,4.57-5.78,31.78,31.78,0,0,1,9.56-3.1c1.33-.21,1.48,0,1.35,1.26a132.72,132.72,0,0,1-2.61,14.58,16.66,16.66,0,0,1-4.24,8A40.61,40.61,0,0,1,71.95,97c-2.81,2.36-5.71,4.61-9.23,5.79a46.22,46.22,0,0,1-16.16,2.67,31.33,31.33,0,0,1-16.1-4.8c-7.16-4.54-12.13-11-15.66-18.56a28.74,28.74,0,0,1-2.22-17.74,39,39,0,0,1,6.18-14.46,83.27,83.27,0,0,1,16-17.24C35,32.45,35.34,32.3,35.42,31.93Z" transform="translate(-0.14 -1.23)" style="fill:#fefefe"/><path d="M35.42,31.93c-.09.37-.37.52-.61.72a83.27,83.27,0,0,0-16,17.24,39,39,0,0,0-6.18,14.46A28.74,28.74,0,0,0,14.81,82.1c3.52,7.59,8.5,14,15.66,18.56a31.33,31.33,0,0,0,16.1,4.8,46.22,46.22,0,0,0,16.16-2.67c3.52-1.17,6.42-3.43,9.23-5.79a40.61,40.61,0,0,0,3.69-3.56,16.66,16.66,0,0,0,4.24-8,132.72,132.72,0,0,0,2.61-14.58c.13-1.31,0-1.47-1.35-1.26a31.78,31.78,0,0,0-9.56,3.1A8.55,8.55,0,0,0,67,78.5a7,7,0,0,1-.34,1,1.34,1.34,0,0,1-1.25,1,1.57,1.57,0,0,1-1.42-1,1.92,1.92,0,0,1,.63-2.29,17.18,17.18,0,0,0,2.88-2.92,2.12,2.12,0,0,0,0-2.22c-.23-.6-.83-.66-1.38-.68a12.26,12.26,0,0,0-5.15.94,3.17,3.17,0,0,0-1.29,1.08,1.68,1.68,0,0,1-2.93-.19c-.36-.64-.86-1.38-.24-2.08a2.67,2.67,0,0,1,2.81-1.06,10.71,10.71,0,0,0,4.62.07c1.52-.26,1.95-1.09,1.1-2.36a7.27,7.27,0,0,0-4.75-3.19c-1.4-.28-2.72-2.34-2.22-3.68A1.25,1.25,0,0,1,59,60.1,3.06,3.06,0,0,1,62.55,62a2.29,2.29,0,0,0,.6,1.05,14,14,0,0,0,2.79,2.45c.95.55,1.52.25,1.54-.83a12,12,0,0,0-.8-4.25c-.26-.73-1-1-1.71-1.25s-.9-.85-.94-1.52a2.11,2.11,0,0,1,.63-2.05,1.16,1.16,0,0,1,1.62.15c.78.75,1.32,1.71,2.18,2.4.49.39.46,1.12.57,1.74.19,1.12.39,2.24.56,3.37.08.49.31.74.84.67a2.15,2.15,0,0,1,.62,0c.53.08.78-.12.94-.64a15.42,15.42,0,0,1,.82-2.09c.39-.83.91-1.06,1.52-.75a1.51,1.51,0,0,1,.67,2,3,3,0,0,1-.77.86c-.5.45-1,.93-1.5,1.35-1.18,1-1.16,2.22-.93,3.54.07.38.27.5.63.54a7.17,7.17,0,0,0,5.13-1.34,21.15,21.15,0,0,1,9.12-3.5c2.12-.33,2.69.21,3,2.36.31,1.9.29,3.82.46,5.73a8.81,8.81,0,0,0,.47,2.59c.36.89,1,1,1.69.37a4.28,4.28,0,0,0,.94-1.23,43.1,43.1,0,0,0,4.4-14.56c.07-.54.25-1.26-.3-1.59s-1.15.21-1.67.52a2.06,2.06,0,0,0-.39.26c-2.13,2.09-4.75,2-7.48,1.89-3.86-.09-7-2-10.32-3.55a1.79,1.79,0,0,0-1.47-.17,11.92,11.92,0,0,1-1.73.45,4.51,4.51,0,0,0-2.47,1.36c-.79.81-1.27.77-2-.11a5,5,0,0,1-.4-.57c-.43-.73-.27-1.18.57-1.36s1.59-.21,2.38-.35a5.56,5.56,0,0,0,1.11-.33c.28-.11.63-.25.59-.63s-.34-.5-.63-.62a4.8,4.8,0,0,0-1.67-.32A10.91,10.91,0,0,1,69.6,54a1.19,1.19,0,0,0-.9.14,2.62,2.62,0,0,1-1.5.3,1.55,1.55,0,0,1-1.64-1,2,2,0,0,1,.59-2,1.89,1.89,0,0,1,2.11,0,.65.65,0,0,1,.12.09c1.48,1.64,3.21,1.15,4.94.58.78-.26.92-.69.34-1.26a6.63,6.63,0,0,0-3.76-2.3,1.44,1.44,0,0,1-1.48-1.57c0-.69.12-1.29.89-1.54a1.62,1.62,0,0,1,1.92.62,39.1,39.1,0,0,0,3.49,4.35,1.28,1.28,0,0,0,1.45.48c.6-.16.48-.72.49-1.18a6,6,0,0,0,0-1.09A2.81,2.81,0,0,1,77.39,46a1,1,0,0,0,.21-.41A2.22,2.22,0,0,1,80.55,44a.9.9,0,0,1,.73.82,1.26,1.26,0,0,1-.84,1.28c-.53.22-1,.47-1.54.72s-.53.51-.38,1c.23.69.39,1.39.58,2.09a1,1,0,0,0,.89.73,3.5,3.5,0,0,0,4-2.51,1.33,1.33,0,0,1,1.91-1,1,1,0,0,1,.69,1.1,1,1,0,0,1-.85,1c-2,.31-2.81,1.9-3.55,3.44a2,2,0,0,0,1.17,2.75A23.28,23.28,0,0,0,87.5,57a2.24,2.24,0,0,0,1.3.06c3-1,6.1-2.23,7.64-5.21,1.85-3.58,5-5.65,8.05-7.91a2.44,2.44,0,0,0,1.14-2.12,40.62,40.62,0,0,0-.73-7.49c-.35-2.25-.76-4.49-1-6.76a12.84,12.84,0,0,1,.17-2.94c.71-5.06,3.28-9.15,6.69-12.79a25.32,25.32,0,0,1,6.42-5.22,8.94,8.94,0,0,1,3-1,4,4,0,0,1,4.14,1.85,11.79,11.79,0,0,1,1.74,5.26,52,52,0,0,1-.67,15.77,13.92,13.92,0,0,1-2.65,5.4,30.59,30.59,0,0,1-3.87,4.75,8.3,8.3,0,0,0-2.27,4.46,3.56,3.56,0,0,0,.8,3.43c2.86,3.25,5.21,6.9,7.92,10.27.88,1.09,1,1.1,1.64-.12s1.16-2.37,1.73-3.56a1.26,1.26,0,0,0,.12-.75c-.15-1.1-.28-2.21-.39-3.32a1.19,1.19,0,0,0-.44-.78c-.64-.61-1.31-1.19-1.88-1.85a1.76,1.76,0,0,0-1.77-.63,1.56,1.56,0,0,1-1.89-2,.93.93,0,0,1,1-.88c1.27-.07,2,.79,2.68,1.61a5.39,5.39,0,0,0,.91.95.66.66,0,0,0,1.12-.32,2.19,2.19,0,0,0,.11-1.66c-.46-1.13-.93-2.25-1.39-3.37a.91.91,0,0,0-.85-.66,1.09,1.09,0,0,1-1-1.16,1.69,1.69,0,0,1,1-1.82,1.24,1.24,0,0,1,1.51.48,5.08,5.08,0,0,1,.51,1.2c.69,1.53,1.39,3.06,2.1,4.58.18.39.46.76.93.7s.51-.51.57-.85a9.69,9.69,0,0,0,.33-4.13,3.52,3.52,0,0,1,0-1.7,1.79,1.79,0,0,1,1.2-1.31c1-.34,1.54.06,1.58,1.12a6.89,6.89,0,0,1-.38,2.35,7.67,7.67,0,0,0-.06,3.92.72.72,0,0,0,.74.58,2.3,2.3,0,0,0,2.31-.9,7,7,0,0,1,3-2.54.85.85,0,0,1,1.3.52c.3.73.19,1.34-.42,1.61a8.88,8.88,0,0,1-2.17.81,1.53,1.53,0,0,0-1.08.69,5.28,5.28,0,0,0-.91,2.92c0,.64.29.91.94,1,1.55.11,3.11.08,4.66.12,1.21,0,1.71.79,1.29,1.92a1,1,0,0,1-1,.73c-1.74-.08-3.43-.52-5.15-.71a2.67,2.67,0,0,0-2.35.69,4.17,4.17,0,0,1-1.81,1,2.65,2.65,0,0,0-1.93,2c-.59,2-1.22,4-1.86,6A11.21,11.21,0,0,1,128.6,62c-.49.75-.91.87-1.7.47A15.37,15.37,0,0,1,123.66,60c-1.13-1-2.2-2.13-3.42-3-1.06-.8-1.35-.73-1.88.49-1.31,3-2.17,6.26-3.27,9.38-.58,1.66-1.2,3.31-1.76,5-1.6,4.76-4.71,8.53-8,12.2-2.36,2.66-4.82,5.21-7.35,7.71a.81.81,0,0,0-.18,1.12c2.57,5.22,5.15,10.44,7.2,15.9a16.71,16.71,0,0,1,.9,3.13,1.84,1.84,0,0,1-.47,1.64,24.74,24.74,0,0,1-4.09,3.46c-2.58,1.86-5.2,3.68-7.79,5.53-.3.22-.84.43-.72.82s.71.36,1.1.35c1,0,1.91-.12,2.87-.17a1.14,1.14,0,0,0,.83-.51,3.51,3.51,0,0,1,2.26-1.24,1.48,1.48,0,0,1,1.66.54,1.94,1.94,0,0,1,.27,2.12,1.82,1.82,0,0,1-1.82,1,2.26,2.26,0,0,1-.76-.16c-1.17-.54-2.29-.11-3.4.21-.74.21-.9.88-1,1.53-.06.39.25.46.56.48,1.94.15,3.87.33,5.81.44a8.86,8.86,0,0,0,1.53-.24c1.2-.15,1.94.16,2.17.89a3,3,0,0,1-1.08,3.1,1.18,1.18,0,0,1-1,.06,3.82,3.82,0,0,1-1.46-.87c-1.52-1.44-3.44-1.38-5.31-1.41-.75,0-1,.41-.74,1.09.46,1.13.87,2.27,2.22,2.79a3.12,3.12,0,0,1,1.29,4.19,1.16,1.16,0,0,1-1.58.58,3.67,3.67,0,0,1-2.48-2.82,19.47,19.47,0,0,0-1.75-4.3c-.26-.57-1-.36-1.56-.34s-.22.51-.23.78c-.11,2.69-.17,5.38-.32,8.07-.08,1.33-.46,1.56-1.77,1.32a5.47,5.47,0,0,1-.75-.2c-2-.66-2.39-2.09-.94-3.55a3.92,3.92,0,0,0,1.16-3.07,25,25,0,0,0-.31-3.71.91.91,0,0,0-.95-.85,2.58,2.58,0,0,0-2.13.69c-.83.85-1.74,1.62-2.62,2.43-.56.51-1.25.92-1.16,1.87a.91.91,0,0,1-.63.82,4.81,4.81,0,0,1-1.48.46c-1.28.15-1.83-.2-2.15-1.35a1.8,1.8,0,0,1,1.16-2.37,4.18,4.18,0,0,1,.87-.32c3.16-.61,4.81-2.92,6.2-5.52a10.9,10.9,0,0,0,.7-1.8,5.46,5.46,0,0,1,2.4-3c2.34-1.48,4.73-2.88,7-4.49a13.67,13.67,0,0,0,2.2-1.84,1.09,1.09,0,0,0,.07-1.67c-2.71-3.4-5.17-7-7.93-10.36-.51-.62-1.07-1.2-1.59-1.81a.93.93,0,0,0-1.3-.2c-3.29,1.69-6.59,3.36-10,4.87a93,93,0,0,1-21.15,6.56,34.85,34.85,0,0,1-21.84-3.07c-8-3.83-14.67-9.26-19.3-16.9A49.62,49.62,0,0,1,8,73.8,24.94,24.94,0,0,1,9.15,62.54C11,56.66,13.23,51,17.16,46.1A53,53,0,0,1,30.64,34.49c1.32-.82,2.68-1.57,4-2.35C34.87,32,35.07,31.81,35.42,31.93Z" transform="translate(-0.14 -1.23)" style="fill:#690"/></g></svg>