<svg xmlns="http://www.w3.org/2000/svg" viewBox="0 0 272.89 42.5"><title>mongabay_logo_es</title><g id="Layer_3_Image" data-name="Layer 3 Image"><path d="M53.13,41.89c.28.27.57.52.83.8a.43.43,0,0,1,0,.63c-.23.21-.45.08-.61-.1-.43-.5-.85-1-1.33-1.61-.22.44,0,.73.06,1s0,.49-.29.53a.37.37,0,0,1-.44-.42c.16-.9-.38-1.41-.92-2-.77-.82-.64-1.74.1-2.74a30.33,30.33,0,0,1-8.2.16c.41,1.44.35,1.61-.83,2.5-.69.53-.68.59.12,1a6.64,6.64,0,0,1,.68.36c.25.17.45.39.18.7s-.48.21-.76,0-.45-.82-.78-.54.16.73.3,1.1a2.68,2.68,0,0,1,.3.87c0,.25,0,.48-.31.55s-.45-.11-.52-.35c-.13-.45-.24-.9-.34-1.35s-.29-.6-.75-.36-1.21.57-1.82.86a1.67,1.67,0,0,1-.83.14.55.55,0,0,1-.52-.57c0-.32.24-.45.51-.48.49,0,1,0,1.47-.06s.85-.11.93-.63-.25-.76-.66-.92-.83-.29-1.24-.44c-.26-.1-.47-.25-.41-.57a.64.64,0,0,1,.4-.53c.27-.09.43.11.59.28a6.4,6.4,0,0,0,.7.72.55.55,0,0,0,.77-.13c.28-.27,0-.4-.14-.56s-.07-.08-.1-.12a2.93,2.93,0,0,0-4-1.37c-2.2.8-4.6.62-6.93.57-5.13-.1-10.22-.68-15.32-1.06a109.77,109.77,0,0,0-11.86-.39v-.26a60.44,60.44,0,0,1,9.45-1.26c7-.56,14.06-.72,21.09-1.12,1-.06,2-.17,3-.3a1.63,1.63,0,0,0,1.11-2.17c-.13-.26-.3-.1-.46-.07a2.94,2.94,0,0,1-1.75.11c-.35-.13-.5.2-.72.36s-.46.42-.72.59-.53.22-.73-.11a.53.53,0,0,1,.15-.75A2.62,2.62,0,0,1,32.6,32c.35-.09.82,0,.74-.65s0-.9-.71-1a4.27,4.27,0,0,1-1.75-.6c-.3-.18-.6-.41-.35-.8s.59-.2.86,0a4.54,4.54,0,0,0,1.75,1.11c.53.13,1,.15.9-.65a1.86,1.86,0,0,1,.16-1,.58.58,0,0,1,.83-.32c.38.15.24.46.12.72s-.34.64-.51,1c-.07.13-.18.28-.07.43s.29.07.43,0c.46-.16.92-.36,1.39-.5,1.37-.42,2,0,2.23,1.39.24,1.64.58,1.87,2,1.15,2-1,4.17-.91,6.31-.84a23.94,23.94,0,0,1,5.15.66c.41.1.5-.07.46-.44a3.83,3.83,0,0,1,0-.85,1,1,0,0,1,1.11-1c.6,0,1.19,0,1.79,0s.67-.26.47-.67-.28-.76.19-.88.45.41.57.72c.05.14,0,.31.15.45.29-.39.55-.8.86-1.16s.6-.55.91-.16-.15.52-.37.7-.57.44-.85.67-.27.3-.14.47.31,0,.44-.11.31-.27.49-.38a.35.35,0,0,1,.49.05.66.66,0,0,1,.19.57.38.38,0,0,1-.41.29c-.31,0-.62,0-.93,0a.34.34,0,0,0-.35.34c0,.26.2.25.39.26s.44-.13.54.14a.43.43,0,0,1-.15.49c-.25.21-.43,0-.61-.15a4,4,0,0,0-2.1-.43c-.44,0-.89.12-.86.75s.18.78.8.72a22.66,22.66,0,0,1,5,0,8.54,8.54,0,0,1,5,2.78c.54.54.44.88-.22,1.39a8.56,8.56,0,0,1-6.1,1.54c-1.68-.12-3.35-.28-5-.35a2.89,2.89,0,0,0-2.17,1.19.41.41,0,0,0,.11.66,1.07,1.07,0,0,0,.87.25c.33-.08.76-.39.93.09s-.51.27-.71.65l.88.21c.29.08.72.07.61.51s-.48.38-.83.25l-.22-.09-.19-.1c-.09-.09-.18-.19-.32-.07l.19.21Z" transform="translate(-0.41 -3.73)" style="fill:#9ec124"/><path d="M1.1,37.18v.26a1.26,1.26,0,0,1-.7,0A1.08,1.08,0,0,1,1.1,37.18Z" transform="translate(-0.41 -3.73)" style="fill:#c4d97a"/><path d="M52.95,41.77l-.19-.21c.14-.12.23,0,.32.07Z" transform="translate(-0.41 -3.73)" style="fill:#fefefd"/><path d="M53.13,41.89l-.18-.12.12-.14.19.1Z" transform="translate(-0.41 -3.73)" style="fill:#fefefd"/></g><g id="Shape_1" data-name="Shape 1" style="isolation:isolate"><g id="Shape_1-2" data-name="Shape 1"><rect x="173.72" y="1.01" width="0.16" height="41.49" style="fill:#b3b3b3"/></g></g><g id="MONGABAY_LATAM" data-name="MONGABAYLATAM"><path d="M1.07,22.16a3.75,3.75,0,0,1,1.57-.42,3,3,0,0,0,1-.15.52.52,0,0,0,.17-.21,11.77,11.77,0,0,0,.31-2.8q.13-3,.41-7.92.23-3.77.23-4.71V5.59q-1-.21-3.2-.45a.67.67,0,0,1-.14-.32.68.68,0,0,1,.1-.25,1.21,1.21,0,0,1,.36-.08l.49.06a14.13,14.13,0,0,0,1.89.1q.39,0,1.34-.06l.75,0a1.9,1.9,0,0,1,.52.08,1.26,1.26,0,0,1,.22.27l.59,1.31,4,8.75,1.65,3.67a62,62,0,0,0,3-6.83,2.31,2.31,0,0,1,.17-.41,4.74,4.74,0,0,0,.24-.53q.11-.29.91-2.24.32-.78.52-1.34Q19,5,19.1,4.71a1.23,1.23,0,0,1,.46-.11,5.06,5.06,0,0,1,.58,0q.79,0,2.55,0,1.09,0,1.8,0a1.43,1.43,0,0,1,0,.22,1.17,1.17,0,0,1,0,.27,2.51,2.51,0,0,1-1.08.27,7.06,7.06,0,0,0-1.58.2.72.72,0,0,0-.43.32,5.63,5.63,0,0,0-.16,1.29V8.52q0,2.1.11,7v4.5a4,4,0,0,0,.1,1.22,1,1,0,0,0,.56.36,16.86,16.86,0,0,0,2.46.52.21.21,0,0,1,.1.18c0,.08,0,.18,0,.28h-.64q-.83,0-1.8,0l-1,0q-2.87,0-3.81.06l-.73,0a.48.48,0,0,1-.21-.06v-.18a.93.93,0,0,1,0-.27,4.29,4.29,0,0,1,1.26-.27,4.72,4.72,0,0,0,1.29-.5A11.65,11.65,0,0,0,19,19.19l0-2.82q0-.46,0-1.72t0-4.1q0-2.25-.11-3.41-.24.49-.93,2.12l-.21.53,0,.08-2.06,4.89L15,16.65l-1,2.29q-.63,1.58-1.07,2.79-.2.56-.32.88h-.33Q10.74,18,8.55,13.14T5.47,6.75q-.11.6-.26,3.49Q5,13.76,5,18a25.58,25.58,0,0,0,.2,3,.92.92,0,0,0,.41.7,4.32,4.32,0,0,0,1.81.26A6.5,6.5,0,0,1,8.5,22a.88.88,0,0,1,.1.32.78.78,0,0,1-.07.24l-4.35-.15q-.48,0-1.48.06-.56,0-1.61,0Z" transform="translate(-0.41 -3.73)"/><path d="M26.09,13.56A8.6,8.6,0,0,1,26.43,11a10.45,10.45,0,0,1,1.15-2.41,8.07,8.07,0,0,1,2-2.17A11,11,0,0,1,32.73,4.9a11.94,11.94,0,0,1,3.61-.46,10.69,10.69,0,0,1,2.88.39,10.07,10.07,0,0,1,2.55,1.09,9,9,0,0,1,2.3,2.15,7.41,7.41,0,0,1,1.2,2.17,9.47,9.47,0,0,1,.53,3.14,11.06,11.06,0,0,1-.36,3.06,8.16,8.16,0,0,1-1.2,2.4A10.74,10.74,0,0,1,42,21a8.54,8.54,0,0,1-2.65,1.31,11.36,11.36,0,0,1-3.42.5,11.65,11.65,0,0,1-3.32-.43,9.58,9.58,0,0,1-2.43-1.05,9.22,9.22,0,0,1-2-1.84,8.73,8.73,0,0,1-1.56-2.68A9.32,9.32,0,0,1,26.09,13.56Zm9.71,8.69a9.71,9.71,0,0,0,2.44-.33,6.11,6.11,0,0,0,2.25-1.09A5.89,5.89,0,0,0,42,19.1a9,9,0,0,0,.89-2.49,14.09,14.09,0,0,0,.34-3,13,13,0,0,0-.56-3.76,6.79,6.79,0,0,0-1.41-2.52,6.71,6.71,0,0,0-2.37-1.72A7.27,7.27,0,0,0,36,5a7.6,7.6,0,0,0-2.49.42,6.34,6.34,0,0,0-2,1.07A6.51,6.51,0,0,0,30,8.29a10.33,10.33,0,0,0-1,2.63,10.92,10.92,0,0,0-.35,2.54A11.45,11.45,0,0,0,29,16.09a9.74,9.74,0,0,0,1,2.54,8,8,0,0,0,1.5,1.91,6.26,6.26,0,0,0,4.36,1.71Z" transform="translate(-0.41 -3.73)"/><path d="M47.55,5.4V4.73q2.17,0,3.18-.11l.55,0h.38a7.77,7.77,0,0,1,1.09,1.12L53,6l3,3.26.42.5q.9,1,1.63,1.79t2.86,3.09l3.35,3.7q.49.54,1.26,1.36v-.22q-.08-1.94-.08-2.05l.06-.84,0-1.31v-.6q0-.57-.1-3.53,0-.41-.11-1.53t-.1-2a4.6,4.6,0,0,0-.18-1.79,2.56,2.56,0,0,0-1.19-.38l-.78-.08a3.92,3.92,0,0,1-.74-.07A.5.5,0,0,1,62,5.05a1.28,1.28,0,0,1,.13-.42,2.62,2.62,0,0,1,.74-.11,6.07,6.07,0,0,1,1,.1,6.32,6.32,0,0,0,1,.1q.64,0,2-.08.77-.06,1.06-.06h.24l0,.43a1.83,1.83,0,0,1-.62.12,3.21,3.21,0,0,0-.73.12,1.59,1.59,0,0,0-.6.27,1.09,1.09,0,0,0-.34.74L66,10.67l.11,2v.59l.08,2.81q.08,2.88.08,5,0,.46-.06,2l-.65.06q-.49-.56-3.37-3.52-.67-.68-.91-1l-1.2-1.38q-.7-.77-.91-1L58.86,16q-1.53-1.73-4-4.33Q54.24,11,53,9.48q-.8-.94-1-1.15a5,5,0,0,0-.57-.48l0,.48q0,2.72.14,7.52l.1,4.62q0,.59.07,1.13l.49.11q1.33.13,2.62.38l.17.13v.53a1.3,1.3,0,0,1-.36.07l-.38,0q-1.39-.11-3.37-.11-1.4,0-2.46.07h-.2l-.36,0v-.42l.36-.17.66-.1a6.59,6.59,0,0,0,1.29-.28,1,1,0,0,0,.43-.29,19.29,19.29,0,0,0,.15-2.82q0-.87,0-3.17v-1.9l0-4a17.18,17.18,0,0,0-.18-3.13A.93.93,0,0,0,50.05,6a3,3,0,0,0-1.39-.48A9.22,9.22,0,0,1,47.55,5.4Z" transform="translate(-0.41 -3.73)"/><path d="M87.95,5.53l.15,2.12q.08,1,.08,1.31L87.79,9a7.93,7.93,0,0,0-2.33-3.19,5.46,5.46,0,0,0-3.41-1.06,9.82,9.82,0,0,0-3.84.6,7.83,7.83,0,0,0-3.4,3,8.92,8.92,0,0,0-1.41,5.09,8.68,8.68,0,0,0,.52,3.09,9.36,9.36,0,0,0,1.46,2.55,10,10,0,0,0,2.23,2,6.23,6.23,0,0,0,2,.87,9.27,9.27,0,0,0,2,.15,8.27,8.27,0,0,0,1.86-.24A4.05,4.05,0,0,0,85,21.27a2.06,2.06,0,0,0,.71-.9,6.56,6.56,0,0,0,.19-2,6.51,6.51,0,0,0-.32-2.82q-.32-.4-2-.52L83,15h-.38l-.22,0-.21-.35a.32.32,0,0,1,.1-.18,27,27,0,0,1,3.16-.11l1.78,0,1.44.06h1.3l.91,0a.21.21,0,0,1,.13,0,.2.2,0,0,1,0,.12,1.45,1.45,0,0,1-.07.39,4.67,4.67,0,0,1-.91.13h-.91a.93.93,0,0,0-.74.32,2.12,2.12,0,0,0-.14,1v1.83a11.1,11.1,0,0,1-.15,2.4,1.16,1.16,0,0,1-.35.55,4,4,0,0,1-1.12.58,10.87,10.87,0,0,1-2.21.66,20.81,20.81,0,0,1-3.57.32,12.42,12.42,0,0,1-4.54-.71,9.11,9.11,0,0,1-3.05-2,8,8,0,0,1-1.83-2.54,9.49,9.49,0,0,1-.83-3.84A9.77,9.77,0,0,1,71.88,9a9.5,9.5,0,0,1,4.18-3.81,12.27,12.27,0,0,1,5.52-1,15.3,15.3,0,0,1,3.94.42A10.06,10.06,0,0,1,87.95,5.53Z" transform="translate(-0.41 -3.73)"/><path d="M91.22,22a.73.73,0,0,1,.35-.11h.66a5.48,5.48,0,0,0,1.27-.2,2.15,2.15,0,0,0,.84-.92,33.64,33.64,0,0,0,1.64-4q.43-1.24.55-1.51.35-.84.67-1.76l1.32-3.67q.31-.87,1.48-4,.29-.78.71-2.1l.41,0h.49a19.29,19.29,0,0,1,1.06,2.56q.25.73.83,2.17l2.13,5.74,1.13,3.12q.9,2.66,1.18,3.26a2.36,2.36,0,0,0,.52.8,2.12,2.12,0,0,0,.52.17l.64.17a5.77,5.77,0,0,1,.9.31.76.76,0,0,1,.06.24.79.79,0,0,1,0,.21h-.63l-2.52,0-1.4,0-1.69,0-.34,0-.3,0h-.31a.69.69,0,0,1-.28-.08,1,1,0,0,1,.07-.38.9.9,0,0,1,.31-.1l1.47-.1a2.63,2.63,0,0,0,.87-.15,1.34,1.34,0,0,0,.08-.38,6.07,6.07,0,0,0-.36-1.3q-.25-.7-.44-1.33t-1.49-4.14a6.07,6.07,0,0,0-1-.1l-3,0h-.88a8.78,8.78,0,0,0-1,.07c-.12.28-.2.48-.24.6l-1.23,3.84a19.35,19.35,0,0,0-.78,2.42,1.27,1.27,0,0,0,.13.42,6.16,6.16,0,0,0,.78.15l1.9.17q.15.13.15.22a.82.82,0,0,1,0,.21h-1q-1.12,0-2.6-.07l-1,0-1,0-.69,0q-.34,0-.87,0v-.08A.89.89,0,0,1,91.22,22Zm6.68-8.38q1.5.08,3.42.08,1.09,0,1.92-.07a9.37,9.37,0,0,0-.32-1l-1-2.68-1.27-3.23-.14-.25q-.08.17-.62,1.44-.9,2.18-1.29,3.39-.18.54-.38,1.08a7.45,7.45,0,0,0-.25.75,2.42,2.42,0,0,1-.15.44Z" transform="translate(-0.41 -3.73)"/><path d="M111.17,5.19V4.76l.38-.07,1.32-.07q1.64-.15,3.67-.23.81,0,2.56,0a12.61,12.61,0,0,1,3.49.35A4.72,4.72,0,0,1,125,6.26a3.73,3.73,0,0,1,.79,2.31q0,2.07-3,3.48l-.07.1a7.18,7.18,0,0,1,2.48,1.13,4.93,4.93,0,0,1,1.48,1.78,4.58,4.58,0,0,1,.38,2,4.81,4.81,0,0,1-1.9,3.71A7.77,7.77,0,0,1,120,22.42h-2.09l-2.11.07-3.28,0q-.49,0-1,0v-.16a.34.34,0,0,1,.07-.24.69.69,0,0,1,.32-.14,12.25,12.25,0,0,0,2-.5.68.68,0,0,0,.31-.43,14,14,0,0,0,.17-2.87q0-.21,0-.53,0-.93,0-1.07V15.08q0-3.68-.08-6.43V5.5q-1.19-.17-2.1-.21A4.89,4.89,0,0,1,111.17,5.19Zm5.54,7.06a7.51,7.51,0,0,0,1.47.14q3,0,4.11-1.33a4.19,4.19,0,0,0,1.08-2.64,4,4,0,0,0-.19-1.19,2.69,2.69,0,0,0-.67-1.1,3,3,0,0,0-1.2-.73,7.88,7.88,0,0,0-2.5-.41,8.82,8.82,0,0,0-2.22.27q0,.29,0,.43c0,.09,0,.36,0,.8q0,.42,0,.84l0,1.69v1l.1,2Zm3.3,9.5a5.92,5.92,0,0,0,2.33-.59,4.64,4.64,0,0,0,1-.8,4,4,0,0,0,.93-1.39,4.14,4.14,0,0,0,.33-1.56,5.48,5.48,0,0,0-.23-1.41,3.72,3.72,0,0,0-.79-1.47,4,4,0,0,0-1.65-1,6.8,6.8,0,0,0-2.41-.41,20,20,0,0,0-2.86.1q0,.32,0,.48v2.75a37.75,37.75,0,0,0,.15,3.88,1.61,1.61,0,0,0,.76,1A4.79,4.79,0,0,0,120,21.75Z" transform="translate(-0.41 -3.73)"/><path d="M127.38,22a.73.73,0,0,1,.35-.11h.66a5.48,5.48,0,0,0,1.27-.2,2.15,2.15,0,0,0,.84-.92,33.64,33.64,0,0,0,1.64-4q.43-1.24.55-1.51.35-.84.67-1.76l1.32-3.67q.31-.87,1.48-4,.29-.78.71-2.1l.41,0h.49a19.29,19.29,0,0,1,1.06,2.56q.25.73.83,2.17l2.13,5.74,1.13,3.12q.9,2.66,1.18,3.26a2.36,2.36,0,0,0,.52.8,2.14,2.14,0,0,0,.53.17l.64.17a5.76,5.76,0,0,1,.9.31.75.75,0,0,1,.05.24.82.82,0,0,1,0,.21h-.63l-2.52,0-1.4,0-1.7,0-.34,0-.3,0h-.31a.69.69,0,0,1-.28-.08,1,1,0,0,1,.07-.38.9.9,0,0,1,.31-.1l1.47-.1a2.65,2.65,0,0,0,.87-.15,1.38,1.38,0,0,0,.08-.38,6,6,0,0,0-.37-1.3q-.25-.7-.44-1.33t-1.49-4.14a6.07,6.07,0,0,0-1-.1l-3,0h-.88a8.78,8.78,0,0,0-1,.07c-.12.28-.2.48-.24.6l-1.23,3.84a19.35,19.35,0,0,0-.78,2.42,1.27,1.27,0,0,0,.13.42,6.16,6.16,0,0,0,.78.15l1.9.17q.15.13.15.22a.82.82,0,0,1,0,.21h-1q-1.12,0-2.6-.07l-1,0-1,0-.69,0q-.34,0-.87,0v-.08A.89.89,0,0,1,127.38,22Zm6.68-8.38q1.5.08,3.42.08,1.09,0,1.92-.07a9.37,9.37,0,0,0-.32-1l-1-2.68-1.27-3.23-.14-.25q-.08.17-.62,1.44-.9,2.18-1.29,3.39-.18.54-.38,1.08a7.45,7.45,0,0,0-.25.75,2.42,2.42,0,0,1-.15.44Z" transform="translate(-0.41 -3.73)"/><path d="M144.86,4.5h.67l1.6,0q1.9.07,3.16.07l1.64,0a3.94,3.94,0,0,1,.67.06.36.36,0,0,1,.1.24V5l-.35.17H151a1.31,1.31,0,0,0-.77.21.41.41,0,0,0-.22.32.88.88,0,0,0,.2.46l.22.34q.28.48.74,1.1.66.92,1.4,2.18.29.5.62,1L155.31,14q.21-.27.58-.78l2-2.9,2.33-3.48a2.77,2.77,0,0,0,.36-.7,1,1,0,0,0,0-.24.55.55,0,0,0-.27-.48A4.68,4.68,0,0,0,158.48,5l-.27,0a.59.59,0,0,1-.1-.28,1.23,1.23,0,0,1,0-.18h.73l2.63.07,2.11,0h.59l0,.49-.31,0-.34,0-.27,0a1.93,1.93,0,0,0-.46.24,46.25,46.25,0,0,0-3.5,4.09q-1.44,1.93-2.44,3.51-.32.52-.52.77a2.73,2.73,0,0,0-.43.7,6.51,6.51,0,0,0-.15,1.65,44.32,44.32,0,0,0,.15,5.14c.06.26.13.42.22.48a14.74,14.74,0,0,0,2.9.43v.16a1,1,0,0,1-.1.4l-3.59-.15-2.4.13h-2.58a.76.76,0,0,1-.06-.22.66.66,0,0,1,0-.2.4.4,0,0,1,.2-.1l1.81-.28a4.44,4.44,0,0,0,1.05-.42.86.86,0,0,0,.21-.52q0-.25,0-3.88a8.36,8.36,0,0,0-.09-1.66,5.05,5.05,0,0,0-.59-1.05l-1.83-2.78L148,7a6.09,6.09,0,0,0-1.41-1.58,3.52,3.52,0,0,0-1.33-.28l-.34,0Z" transform="translate(-0.41 -3.73)"/><path d="M68.94,45.9a.84.84,0,0,1,.11-.38,12.8,12.8,0,0,1,2.13-.39,1.25,1.25,0,0,0,.88-.31,3.48,3.48,0,0,0,.17-1.34l.1-3.69V33.15q0-3,0-3.68a1.63,1.63,0,0,0-.11-.39,3.3,3.3,0,0,0-.61-.22l-2.2-.41c0-.1,0-.18,0-.22s0-.13,0-.22l.87,0,2.13.08,1.23,0H74l.41,0h1l1.12-.08q1.14,0,1.6,0a2.5,2.5,0,0,1-.1.54q-.15,0-1.46.08a5.49,5.49,0,0,0-1.5.16q-.32.18-.32,1.12,0,.22,0,.91v4.3l0,4.63,0,3.94v.87q0,.42.14.52l2.06,0h1l2.42-.08a4.4,4.4,0,0,0,1.36-.19A6.44,6.44,0,0,0,82.95,44a4.52,4.52,0,0,0,.9-1l.24-.34a7.9,7.9,0,0,0,.71-1.45h.46q-.08.5-.18.95-.41,2-.56,3.28c0,.19,0,.36-.06.52l-5.23-.15q-6.75,0-8,.13l-.83,0Z" transform="translate(-0.41 -3.73)" style="fill:#9dc120"/><path d="M85,45.37a.73.73,0,0,1,.35-.11h.66a5.47,5.47,0,0,0,1.27-.2,2.16,2.16,0,0,0,.84-.92,33.62,33.62,0,0,0,1.64-4q.43-1.24.55-1.51.35-.84.67-1.76l1.32-3.67q.31-.87,1.48-4,.29-.78.71-2.1l.41,0h.49a19.3,19.3,0,0,1,1.06,2.56q.25.73.83,2.17l2.13,5.74,1.13,3.12q.9,2.65,1.18,3.26a2.37,2.37,0,0,0,.52.8,2.11,2.11,0,0,0,.52.17l.64.17a5.77,5.77,0,0,1,.9.31.76.76,0,0,1,.06.24.8.8,0,0,1,0,.21h-.63l-2.52,0-1.4,0-1.69,0-.34,0-.3,0h-.31a.69.69,0,0,1-.28-.08,1,1,0,0,1,.07-.38.91.91,0,0,1,.31-.1l1.47-.1a2.63,2.63,0,0,0,.87-.15,1.34,1.34,0,0,0,.08-.38,6.06,6.06,0,0,0-.36-1.3q-.25-.7-.44-1.33t-1.49-4.14a6.08,6.08,0,0,0-1-.1l-3,0H92.5a8.68,8.68,0,0,0-1,.07q-.18.42-.24.6L90,42.2a19.29,19.29,0,0,0-.78,2.42,1.27,1.27,0,0,0,.13.42,6.07,6.07,0,0,0,.78.15l1.9.17c.1.08.15.16.15.22a.81.81,0,0,1,0,.21h-1q-1.12,0-2.6-.07l-1,0-1,0-.69,0c-.22,0-.51,0-.87,0v-.08A.89.89,0,0,1,85,45.37ZM91.73,37q1.5.08,3.42.08,1.09,0,1.92-.07a9.42,9.42,0,0,0-.32-1l-1-2.68-1.27-3.23-.14-.25q-.08.17-.62,1.44-.9,2.18-1.29,3.39-.18.54-.38,1.08a7.45,7.45,0,0,0-.25.75,2.46,2.46,0,0,1-.15.44Z" transform="translate(-0.41 -3.73)" style="fill:#9dc120"/><path d="M104.24,30l.57-2.11a1.21,1.21,0,0,1,.15-.54.28.28,0,0,1,.22-.12q.25,0,.57.6a1.92,1.92,0,0,0,.39.55,1,1,0,0,0,.45.16h.14l.6.06,3.3,0h5.05l2.17,0,.35,0q1,.08,1.18.08a.43.43,0,0,0,.34-.14s.18-.34.46-.92q.18-.39.45-.39a1,1,0,0,1,.28.05,2.08,2.08,0,0,1,.07.5v1.73q0,.43-.07,2.77a.67.67,0,0,1-.06.28.53.53,0,0,1-.27.1.25.25,0,0,1-.2-.1,2.18,2.18,0,0,1-.21-.64,4.68,4.68,0,0,0-.7-1.79,1.55,1.55,0,0,0-.8-.5,12.11,12.11,0,0,0-2.51-.15h-2.37q0,.56,0,1l.11,8.68q0,.52-.06,2v2.89a1.13,1.13,0,0,0,.17.7,1.9,1.9,0,0,0,.91.41q1.29.32,1.72.39a1.3,1.3,0,0,1,.43.11v.42l-2,0q-1.64,0-2.46-.06l-2,.1-1.5.08a5.82,5.82,0,0,1-.77,0l-.2-.08a.67.67,0,0,1,.13-.41,1.12,1.12,0,0,1,.52-.15,11.64,11.64,0,0,0,1.39-.3,2.86,2.86,0,0,0,1-.44.74.74,0,0,0,.2-.42,14.7,14.7,0,0,0,.13-2.42V39.54l-.06-5.18-.06-1.12V29.51h-2.25a6.88,6.88,0,0,0-2.45.24,8.67,8.67,0,0,0-2,2.22q-.45.69-.78.69l-.13,0a.29.29,0,0,1-.06-.15,6.48,6.48,0,0,1,.22-1Q104.18,30.41,104.24,30Z" transform="translate(-0.41 -3.73)" style="fill:#9dc120"/><path d="M120.49,45.37a.73.73,0,0,1,.35-.11h.66a5.47,5.47,0,0,0,1.27-.2,2.16,2.16,0,0,0,.84-.92,33.62,33.62,0,0,0,1.64-4q.43-1.24.55-1.51.35-.84.67-1.76l1.32-3.67q.31-.87,1.48-4,.29-.78.71-2.1l.41,0h.49a19.3,19.3,0,0,1,1.06,2.56q.25.73.83,2.17l2.13,5.74L136,40.65q.9,2.65,1.18,3.26a2.37,2.37,0,0,0,.52.8,2.11,2.11,0,0,0,.52.17l.64.17a5.77,5.77,0,0,1,.9.31.76.76,0,0,1,.06.24.8.8,0,0,1,0,.21h-.63l-2.52,0-1.4,0-1.69,0-.34,0-.3,0h-.31a.69.69,0,0,1-.28-.08,1,1,0,0,1,.07-.38.91.91,0,0,1,.31-.1l1.47-.1a2.63,2.63,0,0,0,.87-.15,1.34,1.34,0,0,0,.08-.38,6.06,6.06,0,0,0-.36-1.3q-.25-.7-.44-1.33t-1.49-4.14a6.08,6.08,0,0,0-1-.1l-3,0h-.88a8.68,8.68,0,0,0-1,.07q-.18.42-.24.6l-1.23,3.84a19.29,19.29,0,0,0-.78,2.42,1.27,1.27,0,0,0,.13.42,6.07,6.07,0,0,0,.78.15l1.9.17c.1.08.15.16.15.22a.81.81,0,0,1,0,.21h-1q-1.12,0-2.6-.07l-1,0-1,0-.69,0c-.22,0-.51,0-.87,0v-.08A.89.89,0,0,1,120.49,45.37ZM127.17,37q1.5.08,3.42.08,1.09,0,1.92-.07a9.42,9.42,0,0,0-.32-1l-1-2.68-1.27-3.23-.14-.25q-.08.17-.62,1.44-.9,2.18-1.29,3.39-.18.54-.38,1.08a7.45,7.45,0,0,0-.25.75,2.46,2.46,0,0,1-.15.44Z" transform="translate(-0.41 -3.73)" style="fill:#9dc120"/><path d="M140.26,45.48a3.74,3.74,0,0,1,1.57-.42,3,3,0,0,0,1-.15.51.51,0,0,0,.17-.21,11.67,11.67,0,0,0,.31-2.8q.13-3,.41-7.92.23-3.77.23-4.71v-.36q-1-.21-3.2-.45a.41.41,0,0,1,0-.57,1.18,1.18,0,0,1,.36-.08l.49.06a14.05,14.05,0,0,0,1.89.1q.39,0,1.34-.06l.75,0a1.91,1.91,0,0,1,.52.08,1.31,1.31,0,0,1,.22.27l.59,1.31,4,8.75,1.65,3.67a62.07,62.07,0,0,0,3-6.83,2.37,2.37,0,0,1,.17-.41,4.62,4.62,0,0,0,.24-.53q.11-.29.91-2.24.32-.78.52-1.34.79-2.24.93-2.56a1.22,1.22,0,0,1,.46-.11,5,5,0,0,1,.58,0q.79,0,2.55,0,1.09,0,1.8,0a1.54,1.54,0,0,1,0,.22,1.1,1.1,0,0,1,0,.27,2.51,2.51,0,0,1-1.08.27,7,7,0,0,0-1.58.2.72.72,0,0,0-.43.32,5.69,5.69,0,0,0-.16,1.29v1.31q0,2.1.11,7v4.5a4.08,4.08,0,0,0,.1,1.22,1,1,0,0,0,.56.36,16.74,16.74,0,0,0,2.46.52.21.21,0,0,1,.1.18c0,.08,0,.18,0,.28h-.64c-.55,0-1.15,0-1.79,0l-1,0q-2.87,0-3.81.06l-.73,0a.47.47,0,0,1-.21-.06v-.18a.88.88,0,0,1,0-.27,4.25,4.25,0,0,1,1.26-.27,4.68,4.68,0,0,0,1.29-.5,11.67,11.67,0,0,0,.13-2.17l0-2.83q0-.46,0-1.72t0-4.1q0-2.25-.11-3.41-.24.49-.93,2.12l-.21.53,0,.08-2.06,4.89L154.19,40l-1,2.29q-.63,1.58-1.07,2.79-.2.56-.32.88h-.33q-1.58-4.61-3.78-9.46t-3.08-6.4q-.12.6-.26,3.49-.19,3.52-.19,7.75a25.55,25.55,0,0,0,.2,3,.92.92,0,0,0,.41.7,4.32,4.32,0,0,0,1.81.26,6.49,6.49,0,0,1,1.06.08.85.85,0,0,1,.1.31.81.81,0,0,1-.07.24l-4.35-.15q-.47,0-1.48.06-.56,0-1.61,0Z" transform="translate(-0.41 -3.73)" style="fill:#9dc120"/></g><g id="Periodismo_ambiental_independiente" data-name="Periodismo ambiental independiente"><path d="M183.92,18.88a10.07,10.07,0,0,1,1.66-.13,2.75,2.75,0,0,1,1.88.56,1.8,1.8,0,0,1,.59,1.4,2,2,0,0,1-.52,1.43,2.77,2.77,0,0,1-2,.74,3,3,0,0,1-.7-.06V25.5h-.87Zm.87,3.23a2.89,2.89,0,0,0,.72.07c1,0,1.68-.51,1.68-1.43s-.63-1.31-1.58-1.31a3.61,3.61,0,0,0-.82.07Z" transform="translate(-0.41 -3.73)" style="fill:#b3b3b3"/><path d="M189.43,23.25a1.54,1.54,0,0,0,1.65,1.67,3.17,3.17,0,0,0,1.33-.25l.15.63a3.9,3.9,0,0,1-1.6.3,2.24,2.24,0,0,1-2.37-2.43,2.34,2.34,0,0,1,2.26-2.6,2,2,0,0,1,2,2.27,3.35,3.35,0,0,1,0,.41Zm2.57-.63a1.25,1.25,0,0,0-1.21-1.42,1.45,1.45,0,0,0-1.34,1.42Z" transform="translate(-0.41 -3.73)" style="fill:#b3b3b3"/><path d="M193.93,22.19c0-.57,0-1.05,0-1.5h.77l0,.94h0a1.44,1.44,0,0,1,1.33-1.05,1,1,0,0,1,.25,0v.83a1.31,1.31,0,0,0-.3,0,1.23,1.23,0,0,0-1.17,1.12,2.4,2.4,0,0,0,0,.41V25.5h-.87Z" transform="translate(-0.41 -3.73)" style="fill:#b3b3b3"/><path d="M198.19,19.33a.54.54,0,0,1-1.08,0,.53.53,0,0,1,.55-.55A.52.52,0,0,1,198.19,19.33Zm-1,6.17V20.69h.88V25.5Z" transform="translate(-0.41 -3.73)" style="fill:#b3b3b3"/><path d="M203.91,23.05a2.35,2.35,0,0,1-2.4,2.56,2.29,2.29,0,0,1-2.31-2.48,2.35,2.35,0,0,1,2.39-2.56A2.28,2.28,0,0,1,203.91,23.05Zm-3.82,0c0,1.05.61,1.85,1.46,1.85s1.46-.79,1.46-1.87c0-.82-.41-1.85-1.44-1.85S200.09,22.19,200.09,23.1Z" transform="translate(-0.41 -3.73)" style="fill:#b3b3b3"/><path d="M209.17,18.44v5.82c0,.43,0,.92,0,1.24h-.79l0-.84h0a1.78,1.78,0,0,1-1.64.94,2.2,2.2,0,0,1-2.06-2.45,2.3,2.3,0,0,1,2.16-2.59,1.61,1.61,0,0,1,1.45.74h0V18.44Zm-.87,4.21a1.57,1.57,0,0,0,0-.37,1.29,1.29,0,0,0-1.26-1c-.91,0-1.44.8-1.44,1.86S206,24.9,207,24.9a1.32,1.32,0,0,0,1.28-1,1.55,1.55,0,0,0,0-.38Z" transform="translate(-0.41 -3.73)" style="fill:#b3b3b3"/><path d="M211.6,19.33a.54.54,0,0,1-1.08,0,.53.53,0,0,1,.55-.55A.52.52,0,0,1,211.6,19.33Zm-1,6.17V20.69h.88V25.5Z" transform="translate(-0.41 -3.73)" style="fill:#b3b3b3"/><path d="M212.83,24.61A2.29,2.29,0,0,0,214,25c.64,0,.94-.32.94-.72s-.25-.65-.9-.89c-.87-.31-1.27-.79-1.27-1.36a1.49,1.49,0,0,1,1.66-1.41,2.41,2.41,0,0,1,1.18.3l-.22.64a1.87,1.87,0,0,0-1-.28c-.52,0-.81.3-.81.66s.29.58.92.82c.84.32,1.26.74,1.26,1.45s-.66,1.44-1.8,1.44a2.75,2.75,0,0,1-1.35-.33Z" transform="translate(-0.41 -3.73)" style="fill:#b3b3b3"/><path d="M216.89,22c0-.5,0-.91,0-1.3h.77l0,.78h0a1.66,1.66,0,0,1,1.51-.89,1.42,1.42,0,0,1,1.36,1h0a2,2,0,0,1,.54-.63,1.65,1.65,0,0,1,1.06-.34c.64,0,1.58.42,1.58,2.09V25.5h-.86V22.78c0-.93-.34-1.48-1-1.48a1.13,1.13,0,0,0-1,.8,1.44,1.44,0,0,0-.07.44v3h-.86V22.62c0-.77-.34-1.32-1-1.32a1.3,1.3,0,0,0-1.15,1.3v2.9h-.86Z" transform="translate(-0.41 -3.73)" style="fill:#b3b3b3"/><path d="M229.55,23.05a2.35,2.35,0,0,1-2.4,2.56,2.29,2.29,0,0,1-2.31-2.48,2.35,2.35,0,0,1,2.39-2.56A2.28,2.28,0,0,1,229.55,23.05Zm-3.82,0c0,1.05.61,1.85,1.46,1.85s1.46-.79,1.46-1.87c0-.82-.41-1.85-1.44-1.85S225.73,22.19,225.73,23.1Z" transform="translate(-0.41 -3.73)" style="fill:#b3b3b3"/><path d="M235.43,25.5l-.07-.61h0a1.79,1.79,0,0,1-1.47.72,1.37,1.37,0,0,1-1.47-1.38c0-1.16,1-1.8,2.89-1.79v-.1a1,1,0,0,0-1.09-1.11,2.4,2.4,0,0,0-1.25.36l-.2-.58a3,3,0,0,1,1.58-.43c1.47,0,1.83,1,1.83,2v1.8a6.79,6.79,0,0,0,.08,1.15ZM235.31,23c-1,0-2,.15-2,1.08a.77.77,0,0,0,.83.84,1.2,1.2,0,0,0,1.16-.81.93.93,0,0,0,0-.28Z" transform="translate(-0.41 -3.73)" style="fill:#9dc120"/><path d="M237.57,22c0-.5,0-.91,0-1.3h.77l0,.78h0a1.66,1.66,0,0,1,1.51-.89,1.42,1.42,0,0,1,1.36,1h0a2,2,0,0,1,.54-.63,1.65,1.65,0,0,1,1.06-.34c.64,0,1.58.42,1.58,2.09V25.5h-.86V22.78c0-.93-.34-1.48-1-1.48a1.13,1.13,0,0,0-1,.8,1.44,1.44,0,0,0-.07.44v3h-.86V22.62c0-.77-.34-1.32-1-1.32a1.3,1.3,0,0,0-1.15,1.3v2.9h-.86Z" transform="translate(-0.41 -3.73)" style="fill:#9dc120"/><path d="M245.83,25.5c0-.33,0-.82,0-1.24V18.44h.87v3h0a1.79,1.79,0,0,1,1.64-.89,2.16,2.16,0,0,1,2,2.46,2.29,2.29,0,0,1-2.16,2.58,1.71,1.71,0,0,1-1.61-.91h0l0,.8Zm.91-1.93a1.59,1.59,0,0,0,0,.32,1.35,1.35,0,0,0,1.31,1c.92,0,1.46-.75,1.46-1.85s-.5-1.79-1.43-1.79a1.4,1.4,0,0,0-1.33,1.07,1.75,1.75,0,0,0,0,.36Z" transform="translate(-0.41 -3.73)" style="fill:#9dc120"/><path d="M252.5,19.33a.54.54,0,0,1-1.08,0,.53.53,0,0,1,.55-.55A.52.52,0,0,1,252.5,19.33Zm-1,6.17V20.69h.88V25.5Z" transform="translate(-0.41 -3.73)" style="fill:#9dc120"/><path d="M254.35,23.25A1.54,1.54,0,0,0,256,24.92a3.17,3.17,0,0,0,1.33-.25l.15.63a3.9,3.9,0,0,1-1.6.3,2.24,2.24,0,0,1-2.37-2.43,2.34,2.34,0,0,1,2.26-2.6,2,2,0,0,1,2,2.27,3.35,3.35,0,0,1,0,.41Zm2.57-.63a1.25,1.25,0,0,0-1.21-1.42,1.45,1.45,0,0,0-1.34,1.42Z" transform="translate(-0.41 -3.73)" style="fill:#9dc120"/><path d="M258.84,22c0-.5,0-.91,0-1.3h.78l0,.8h0a1.77,1.77,0,0,1,1.59-.91c.67,0,1.7.4,1.7,2V25.5h-.88V22.73c0-.78-.29-1.42-1.11-1.42a1.24,1.24,0,0,0-1.17.9,1.28,1.28,0,0,0-.06.41v2.9h-.87Z" transform="translate(-0.41 -3.73)" style="fill:#9dc120"/><path d="M265.38,19.3v1.38h1.25v.67h-1.25v2.6c0,.6.17.94.66.94a2,2,0,0,0,.51-.06l0,.66a2.14,2.14,0,0,1-.78.12,1.21,1.21,0,0,1-.95-.37,1.78,1.78,0,0,1-.34-1.25V21.35h-.75v-.67h.75V19.53Z" transform="translate(-0.41 -3.73)" style="fill:#9dc120"/><path d="M270.29,25.5l-.07-.61h0a1.79,1.79,0,0,1-1.47.72,1.37,1.37,0,0,1-1.47-1.38c0-1.16,1-1.8,2.89-1.79v-.1A1,1,0,0,0,269,21.22a2.4,2.4,0,0,0-1.25.36l-.2-.58a3,3,0,0,1,1.58-.43c1.47,0,1.83,1,1.83,2v1.8a6.79,6.79,0,0,0,.08,1.15ZM270.16,23c-1,0-2,.15-2,1.08a.77.77,0,0,0,.83.84,1.2,1.2,0,0,0,1.16-.81.93.93,0,0,0,0-.28Z" transform="translate(-0.41 -3.73)" style="fill:#9dc120"/><path d="M272.42,18.44h.88V25.5h-.87Z" transform="translate(-0.41 -3.73)" style="fill:#9dc120"/><path d="M184.87,28.44a.54.54,0,0,1-1.08,0,.53.53,0,0,1,.55-.55A.52.52,0,0,1,184.87,28.44Zm-1,6.17V29.79h.88v4.82Z" transform="translate(-0.41 -3.73)" style="fill:#b3b3b3"/><path d="M186.22,31.09c0-.5,0-.91,0-1.3H187l0,.8h0a1.77,1.77,0,0,1,1.59-.91c.67,0,1.7.4,1.7,2v2.87h-.88V31.83c0-.78-.29-1.42-1.11-1.42a1.25,1.25,0,0,0-1.17.9,1.28,1.28,0,0,0-.06.41v2.9h-.87Z" transform="translate(-0.41 -3.73)" style="fill:#b3b3b3"/><path d="M195.9,27.54v5.82c0,.43,0,.92,0,1.24h-.79l0-.84h0a1.78,1.78,0,0,1-1.64.95,2.2,2.2,0,0,1-2.06-2.45,2.3,2.3,0,0,1,2.16-2.59,1.61,1.61,0,0,1,1.45.74h0V27.54ZM195,31.75a1.58,1.58,0,0,0,0-.37,1.29,1.29,0,0,0-1.26-1c-.91,0-1.44.8-1.44,1.86s.48,1.78,1.42,1.78A1.32,1.32,0,0,0,195,33a1.54,1.54,0,0,0,0-.38Z" transform="translate(-0.41 -3.73)" style="fill:#b3b3b3"/><path d="M197.85,32.36A1.54,1.54,0,0,0,199.5,34a3.16,3.16,0,0,0,1.33-.25l.15.63a3.89,3.89,0,0,1-1.6.3A2.24,2.24,0,0,1,197,32.28a2.34,2.34,0,0,1,2.26-2.6,2,2,0,0,1,2,2.27,3.38,3.38,0,0,1,0,.41Zm2.57-.63a1.25,1.25,0,0,0-1.21-1.42,1.45,1.45,0,0,0-1.34,1.42Z" transform="translate(-0.41 -3.73)" style="fill:#b3b3b3"/><path d="M202.34,31.36c0-.62,0-1.11,0-1.57h.79l0,.83h0a1.89,1.89,0,0,1,1.71-.94,2.18,2.18,0,0,1,2,2.45c0,1.73-1.05,2.59-2.19,2.59a1.69,1.69,0,0,1-1.48-.76h0v2.62h-.87Zm.87,1.28a1.92,1.92,0,0,0,0,.36,1.35,1.35,0,0,0,1.31,1c.92,0,1.46-.76,1.46-1.86s-.51-1.79-1.43-1.79a1.4,1.4,0,0,0-1.32,1.08,1.44,1.44,0,0,0-.06.36Z" transform="translate(-0.41 -3.73)" style="fill:#b3b3b3"/><path d="M208.49,32.36A1.54,1.54,0,0,0,210.15,34a3.16,3.16,0,0,0,1.33-.25l.15.63a3.89,3.89,0,0,1-1.6.3,2.24,2.24,0,0,1-2.37-2.43,2.34,2.34,0,0,1,2.26-2.6,2,2,0,0,1,2,2.27,3.38,3.38,0,0,1,0,.41Zm2.57-.63a1.25,1.25,0,0,0-1.21-1.42,1.45,1.45,0,0,0-1.34,1.42Z" transform="translate(-0.41 -3.73)" style="fill:#b3b3b3"/><path d="M213,31.09c0-.5,0-.91,0-1.3h.78l0,.8h0a1.77,1.77,0,0,1,1.59-.91c.67,0,1.7.4,1.7,2v2.87h-.88V31.83c0-.78-.29-1.42-1.11-1.42a1.25,1.25,0,0,0-1.17.9,1.28,1.28,0,0,0-.06.41v2.9H213Z" transform="translate(-0.41 -3.73)" style="fill:#b3b3b3"/><path d="M222.68,27.54v5.82c0,.43,0,.92,0,1.24h-.79l0-.84h0a1.78,1.78,0,0,1-1.64.95,2.2,2.2,0,0,1-2.06-2.45,2.3,2.3,0,0,1,2.16-2.59,1.61,1.61,0,0,1,1.45.74h0V27.54Zm-.87,4.21a1.58,1.58,0,0,0,0-.37,1.29,1.29,0,0,0-1.26-1c-.91,0-1.44.8-1.44,1.86s.48,1.78,1.42,1.78a1.32,1.32,0,0,0,1.28-1,1.54,1.54,0,0,0,0-.38Z" transform="translate(-0.41 -3.73)" style="fill:#b3b3b3"/><path d="M225.1,28.44a.54.54,0,0,1-1.08,0,.53.53,0,0,1,.55-.55A.52.52,0,0,1,225.1,28.44Zm-1,6.17V29.79H225v4.82Z" transform="translate(-0.41 -3.73)" style="fill:#b3b3b3"/><path d="M226.95,32.36A1.54,1.54,0,0,0,228.6,34a3.16,3.16,0,0,0,1.33-.25l.15.63a3.89,3.89,0,0,1-1.6.3,2.24,2.24,0,0,1-2.37-2.43,2.34,2.34,0,0,1,2.26-2.6,2,2,0,0,1,2,2.27,3.38,3.38,0,0,1,0,.41Zm2.57-.63a1.25,1.25,0,0,0-1.21-1.42A1.45,1.45,0,0,0,227,31.73Z" transform="translate(-0.41 -3.73)" style="fill:#b3b3b3"/><path d="M231.44,31.09c0-.5,0-.91,0-1.3h.78l0,.8h0a1.77,1.77,0,0,1,1.59-.91c.67,0,1.7.4,1.7,2v2.87h-.88V31.83c0-.78-.29-1.42-1.11-1.42a1.25,1.25,0,0,0-1.17.9,1.28,1.28,0,0,0-.06.41v2.9h-.87Z" transform="translate(-0.41 -3.73)" style="fill:#b3b3b3"/><path d="M238,28.41v1.38h1.25v.67H238v2.6c0,.6.17.93.66.93a1.93,1.93,0,0,0,.51-.06l0,.66a2.15,2.15,0,0,1-.78.12,1.22,1.22,0,0,1-.95-.37,1.78,1.78,0,0,1-.34-1.25V30.46h-.75v-.67h.75V28.64Z" transform="translate(-0.41 -3.73)" style="fill:#b3b3b3"/><path d="M240.65,32.36A1.54,1.54,0,0,0,242.3,34a3.16,3.16,0,0,0,1.33-.25l.15.63a3.89,3.89,0,0,1-1.6.3,2.24,2.24,0,0,1-2.37-2.43,2.34,2.34,0,0,1,2.26-2.6,2,2,0,0,1,2,2.27,3.38,3.38,0,0,1,0,.41Zm2.57-.63A1.25,1.25,0,0,0,242,30.31a1.45,1.45,0,0,0-1.34,1.42Z" transform="translate(-0.41 -3.73)" style="fill:#b3b3b3"/></g></svg>