<svg xmlns="http://www.w3.org/2000/svg" viewBox="0 0 770.97 142.66"><title>mongabay_logo_pt</title><g id="MONGABAY"><text transform="translate(155.62 87.26)" style="font-size:107.6590805053711px;font-family:Garamond, Garamond">MONGA<tspan x="412.76" y="0" style="letter-spacing:-0.030759680058191744em">B</tspan><tspan x="475.63" y="0" style="letter-spacing:-0.06299749332672701em">A</tspan><tspan x="541.76" y="0" style="letter-spacing:0.000009068301903948037em">Y</tspan></text></g><g id="JORNALISMO_AMBIENTAL_INDEPENDENTE" data-name="JORNALISMO AMBIENTAL INDEPENDENTE"><text transform="translate(155.59 127.52)" style="font-size:29.70194435119629px;font-family:Avenir-Light, Avenir;letter-spacing:0.020001028979462057em">JORNALISMO AMBIEN<tspan x="322.15" y="0" style="letter-spacing:-0.048022191189801264em">T</tspan><tspan x="337.77" y="0" style="letter-spacing:0.02001746367870566em">AL INDEPENDENTE</tspan></text></g><g id="Layer_4_Image" data-name="Layer 4 Image"><path d="M126.24,57.88a9.34,9.34,0,0,0,.75-1.05q.93-1.83,1.8-3.7a1.64,1.64,0,0,0,.13-.82c-.11-1-.22-2.06-.41-3.08A2.5,2.5,0,0,0,128,48.1c-.49-.57-1.1-1-1.59-1.59a2.22,2.22,0,0,0-2.1-.83c-1.27.13-1.88-.63-1.7-1.9.07-.51.38-.87.87-.79a4,4,0,0,1,1.68.62,22.38,22.38,0,0,1,1.67,1.72c.7.66,1.33.49,1.52-.44a3.39,3.39,0,0,0-.06-1.65c-.33-1-.81-2-1.22-3a1.23,1.23,0,0,0-1.06-.89c-.66-.07-.87-.58-.9-1.17a1.62,1.62,0,0,1,1.06-1.64,1.06,1.06,0,0,1,1.34.48,9.7,9.7,0,0,1,.55,1.27c.68,1.48,1.33,3,2.06,4.43.18.35.62.56.94.84.24-.34.62-.64.71-1a8.93,8.93,0,0,0,.34-4.06,4.94,4.94,0,0,1,0-1.39,1.69,1.69,0,0,1,1.06-1.51c1-.42,1.61,0,1.63,1a4.14,4.14,0,0,1-.19,1.68,8.43,8.43,0,0,0-.39,3.75c0,.55,0,1.17.7,1.42a2.57,2.57,0,0,0,2.25-.47c.72-.77,1.44-1.55,2.2-2.29a3.25,3.25,0,0,1,.91-.57c.57-.27,1.09-.32,1.38.43s.17,1.27-.58,1.57-1.42.47-2.1.78a2,2,0,0,0-1,.76,11.69,11.69,0,0,0-.89,2.69c-.16.84.21,1.18,1.19,1.22,1.47.07,3,0,4.43.07,1,0,1.37.34,1.37,1.18,0,1.05-.49,1.48-1.58,1.32-1.46-.21-2.92-.44-4.37-.67a3,3,0,0,0-2.74.72,5.27,5.27,0,0,1-1.82,1,2.68,2.68,0,0,0-1.83,1.92c-.64,2.13-1.3,4.25-2,6.36a14.67,14.67,0,0,1-1.07,2.4c-.47.85-.91,1-1.72.47a20.83,20.83,0,0,1-2.48-1.86c-1.3-1.11-2.51-2.32-3.82-3.42s-1.78-1.1-2.41.63c-1.3,3.6-2.49,7.24-3.76,10.85-.6,1.71-1.26,3.39-1.93,5.08-1.46,3.68-4,6.67-6.56,9.56s-5.24,5.6-7.89,8.37a1,1,0,0,0-.23,1.32q3.64,7.94,7.19,15.91a24.21,24.21,0,0,1,.77,2.44,2.22,2.22,0,0,1-.77,2.64c-2,1.57-4,3.16-6,4.67-1.64,1.22-3.35,2.35-5,3.53a6.77,6.77,0,0,0-.85.67c-.15.15-.34.43-.29.55a.74.74,0,0,0,.56.32,18.27,18.27,0,0,0,2,0,3.54,3.54,0,0,0,2.84-1.08,3.46,3.46,0,0,1,2-.78c1-.17,1.69.53,1.79,1.67a1.6,1.6,0,0,1-1.45,1.71,5,5,0,0,1-1.67-.22,4.47,4.47,0,0,0-3.22.49c-.41.19-.57,1-.77,1.49,0,.09.33.45.53.47,1.91.19,3.82.36,5.73.46a10.91,10.91,0,0,0,1.84-.22c1.12-.13,1.8.23,2,1,.23,1.1-.42,2.61-1.26,2.85a1.88,1.88,0,0,1-1.9-.64c-1.41-1.48-3.28-1.48-5.09-1.69a2.37,2.37,0,0,0-.77.06c-.55.12-.83.49-.63,1,.45,1.2.85,2.41,2.25,3a3,3,0,0,1,1.3,4.11,1.1,1.1,0,0,1-1.51.55,3.88,3.88,0,0,1-2.41-2.63,27.09,27.09,0,0,0-1.79-4.44c-.16-.31-1-.32-1.53-.36-.1,0-.32.5-.34.77-.12,2.56-.19,5.12-.29,7.69-.06,1.7-.48,2-2.12,1.59a4.42,4.42,0,0,1-1.14-.47c-1.11-.66-1.41-1.81-.47-2.64,1.49-1.31,1.61-2.92,1.47-4.66-.07-.88-.18-1.75-.29-2.62a1,1,0,0,0-1-.9,2.59,2.59,0,0,0-2.08.64c-1.08,1-2.23,2-3.3,3.07-.28.27-.35.75-.56,1.1a3.43,3.43,0,0,1-.77,1.05,3.23,3.23,0,0,1-1.24.42,1.57,1.57,0,0,1-2.09-1.09,1.78,1.78,0,0,1,1-2.45,4,4,0,0,1,.94-.35c2.92-.52,4.56-2.6,5.93-4.95a13.72,13.72,0,0,0,1.06-2.49,5.19,5.19,0,0,1,2.25-2.86c2.2-1.36,4.39-2.75,6.54-4.2a21.6,21.6,0,0,0,2.71-2.19c.74-.69.68-1,.08-1.79-2.54-3.34-5.07-6.69-7.62-10-.55-.72-1.2-1.36-1.78-2.06a1.12,1.12,0,0,0-1.57-.27c-3.51,1.73-7,3.49-10.56,5.1a85.09,85.09,0,0,1-21.73,6.47,34.12,34.12,0,0,1-20.32-3.17c-8.64-4.08-15.67-10-20.33-18.43A50.57,50.57,0,0,1,8.19,74.6,26.11,26.11,0,0,1,9.39,62c1.79-5.4,3.83-10.67,7.37-15.23A53,53,0,0,1,31.12,34.27c1.33-.82,2.71-1.58,4.06-2.37l.14.17c-.25.23-.48.47-.74.69A86.27,86.27,0,0,0,20,48.06a41.9,41.9,0,0,0-7.1,14.74A28.61,28.61,0,0,0,14.27,81,42.37,42.37,0,0,0,29.62,100.2c6.56,4.42,13.86,5.9,21.69,5.17A49,49,0,0,0,62.14,103,24.61,24.61,0,0,0,67,100.75,42.38,42.38,0,0,0,75.25,94a18.06,18.06,0,0,0,5-9.95c.73-4.23,1.52-8.45,2.24-12.68.32-1.86,0-2.1-1.79-1.77a34.28,34.28,0,0,0-8.84,2.86,8.83,8.83,0,0,0-5,6,2.54,2.54,0,0,1-.36,1c-.33.39-.82,1-1.17.92a2.19,2.19,0,0,1-1.32-1,1.73,1.73,0,0,1,.51-2.09c1-.94,2-1.89,2.91-2.9a2.18,2.18,0,0,0,.16-2.28c-.21-.68-.82-.79-1.45-.81a12.3,12.3,0,0,0-4.65.7,4,4,0,0,0-1.93,1.36,1.56,1.56,0,0,1-2.7-.13c-.37-.6-.92-1.3-.36-2A2.45,2.45,0,0,1,59,70.1a12.2,12.2,0,0,0,5.08.08c1.45-.29,1.87-1.13,1.07-2.35a7.18,7.18,0,0,0-4.93-3.3,2.23,2.23,0,0,1-1.67-1.35c-.44-.83-.9-1.75-.18-2.61s1.62-.41,2.46-.19a2.27,2.27,0,0,1,1.58,1.47,4.81,4.81,0,0,0,.93,1.55,17.43,17.43,0,0,0,2.52,2.17c1,.68,1.73.26,1.62-.92a17.45,17.45,0,0,0-.77-4.09c-.2-.58-1-1-1.66-1.37a2.38,2.38,0,0,1-.5-3.39,1.17,1.17,0,0,1,1.62,0c.39.38.7.83,1.06,1.24a9.58,9.58,0,0,1,.8.82,4.28,4.28,0,0,1,.76,1.38c.28,1.26.43,2.55.66,3.82.09.48.17,1,.87,1s1.48.34,1.72-.78a9.6,9.6,0,0,1,.79-2c.37-.77.9-1,1.48-.69a1.4,1.4,0,0,1,.59,1.81,3.61,3.61,0,0,1-.68.83,14.93,14.93,0,0,1-1.44,1.3c-1.22.91-1.28,2.16-1.14,3.49a.89.89,0,0,0,.95.9,7.24,7.24,0,0,0,4.78-1.27A22,22,0,0,1,86.8,64c1.82-.3,2.41.12,2.74,2,.24,1.32.31,2.67.44,4s.19,2.58.36,3.86c.09.65.23,1.43,1,1.6s1.29-.45,1.58-1c.87-1.75,1.74-3.52,2.44-5.35a38.31,38.31,0,0,0,2.36-9.7,6.48,6.48,0,0,0-.34-1.82c-.57.17-1.14.33-1.7.53a1.76,1.76,0,0,0-.57.39c-1.92,1.83-4.25,2.08-6.74,1.77a13.88,13.88,0,0,0-1.63-.13,13.23,13.23,0,0,1-5.89-1.77,11.38,11.38,0,0,1-1.53-.76,5.11,5.11,0,0,0-5.39-.5,14.87,14.87,0,0,0-2.15,1.31c-.4.27-.79.83-1.26.37A7.19,7.19,0,0,1,69.41,57c0-.06.34-.45.56-.5.6-.15,1.23-.18,1.83-.31a9.91,9.91,0,0,0,1.93-.53c.67-.3.66-.87,0-1.19a4.36,4.36,0,0,0-1.41-.37c-.93-.1-1.86-.14-2.79-.17a4.29,4.29,0,0,0-.9.16,7,7,0,0,1-1.44.26,1.43,1.43,0,0,1-1.53-1,1.92,1.92,0,0,1,.53-2,1.81,1.81,0,0,1,2,0,.63.63,0,0,1,.12.09c1.47,1.65,3.21,1.16,4.93.59.9-.3,1-.82.34-1.49a6.8,6.8,0,0,0-3.71-2.25,2,2,0,0,1-1.21-.71,1.58,1.58,0,0,1,.32-2.1,1.8,1.8,0,0,1,2.21.52c1.13,1.44,2.28,2.88,3.46,4.28a1.67,1.67,0,0,0,1,.51c.78.11,1-.14,1.05-.95a8.28,8.28,0,0,0,0-1.32A3,3,0,0,1,77.44,46a1.27,1.27,0,0,0,.22-.48,2.13,2.13,0,0,1,2.79-1.45,1.2,1.2,0,0,1,.68.72c.15.57-.22,1-.73,1.23s-1.18.54-1.72.87a.81.81,0,0,0-.28.68c.14.74.37,1.45.56,2.18a1.2,1.2,0,0,0,1.23,1c1.58.13,3.07-.4,3.92-2.7a1.17,1.17,0,0,1,1.26-.91,1.07,1.07,0,0,1,1.15.94c.06.62-.33,1-.94,1.14a5.78,5.78,0,0,0-3.61,4,2.07,2.07,0,0,0,1.13,2.19,45.2,45.2,0,0,0,4.42,1.67,3.21,3.21,0,0,0,1.88-.11c3.47-1.22,6.43-3.06,8.09-6.57a7.33,7.33,0,0,1,1.85-2.26,40.39,40.39,0,0,1,5.05-4,2.66,2.66,0,0,0,1.34-2.83c-.26-2.75-.62-5.5-1-8.25-.22-1.75-.56-3.48-.69-5.23a17.29,17.29,0,0,1,2.06-9.37,29.67,29.67,0,0,1,9.74-10.9,14,14,0,0,1,3.77-1.75,3.93,3.93,0,0,1,4.87,2,12.88,12.88,0,0,1,1.53,5.1,50.08,50.08,0,0,1-.69,15.31,11.14,11.14,0,0,1-1.78,4.17c-1.66,2.4-3.54,4.66-5.4,6.91a5.52,5.52,0,0,0-1.23,2.27c-.94,3.94-.82,3.26,1.26,6s4.23,5.57,6.36,8.34C125.06,56.54,125.62,57.15,126.24,57.88Z" transform="translate(-7.87 1.97)" style="fill:#690"/></g></svg>