<svg xmlns="http://www.w3.org/2000/svg" viewBox="0 0 769.1 135.11"><title>MONGABAY-LOGO_news</title><g id="MONGABAY"><path d="M164.23,84q1.63-1.1,5.89-1.58,3.31-.16,3.94-.58a2,2,0,0,0,.63-.79q.79-1.94,1.16-10.52.48-11.2,1.55-29.81.86-14.19.86-17.71V21.68q-3.8-.79-12-1.68a2.52,2.52,0,0,1-.53-1.21,2.56,2.56,0,0,1,.37-.95,4.51,4.51,0,0,1,1.36-.32,16.74,16.74,0,0,1,1.84.21,52.74,52.74,0,0,0,7.08.37q1.47,0,5-.24,2.52-.18,2.83-.18a7.19,7.19,0,0,1,1.94.32,4.8,4.8,0,0,1,.81,1l2.2,4.94,14.88,32.91,6.2,13.81A233.74,233.74,0,0,0,221.58,45a8.67,8.67,0,0,1,.63-1.52,17.88,17.88,0,0,0,.89-2q.42-1.1,3.41-8.41,1.21-2.94,1.94-5,3-8.41,3.51-9.62a4.62,4.62,0,0,1,1.74-.42,18.84,18.84,0,0,1,2.16.16q3,.16,9.6.16,4.11,0,6.75-.11a5.32,5.32,0,0,1,.11.84,4.38,4.38,0,0,1-.16,1,9.43,9.43,0,0,1-4,1,26.37,26.37,0,0,0-5.94.74,2.69,2.69,0,0,0-1.6,1.21,21.19,21.19,0,0,0-.6,4.84L240,30.2l-.05,2.52q0,7.89.42,26.49l-.05,10.3.05,6.62q0,3.89.37,4.6a3.8,3.8,0,0,0,2.1,1.34A63.07,63.07,0,0,0,252.09,84a.81.81,0,0,1,.37.68c0,.32,0,.67-.05,1.05H250q-3.11,0-6.74-.18l-3.9-.18q-10.8,0-14.33.24-2.16.18-2.74.18a1.78,1.78,0,0,1-.79-.21v-.68a3.47,3.47,0,0,1,.16-1,16,16,0,0,1,4.73-1A17.65,17.65,0,0,0,231.22,81a43.91,43.91,0,0,0,.47-8.16l-.16-10.63q0-1.74.18-6.47t.18-15.42q0-8.47-.42-12.84-.89,1.84-3.51,8l-.79,2-.1.32-7.75,18.4-2.78,7.1-3.61,8.62q-2.36,5.94-4,10.51-.73,2.1-1.2,3.31l-1.23-.05q-5.95-17.35-14.19-35.59T180.74,26q-.43,2.26-1,13.14-.7,13.25-.7,29.18a96.43,96.43,0,0,0,.74,11.21,3.47,3.47,0,0,0,1.52,2.65q1.31.86,6.78,1a24.34,24.34,0,0,1,4,.31,3.33,3.33,0,0,1,.37,1.19,2.94,2.94,0,0,1-.26.92L175.88,85q-1.78,0-5.56.23-2.1.14-6,.19Z" transform="translate(-7.87 -5.58)"/><path d="M258.19,51.7a32.37,32.37,0,0,1,1.29-9.54,39.33,39.33,0,0,1,4.34-9.07,30.33,30.33,0,0,1,7.36-8.17,41.13,41.13,0,0,1,11.94-5.81,44.81,44.81,0,0,1,13.57-1.73,40.1,40.1,0,0,1,10.81,1.47,37.85,37.85,0,0,1,9.6,4.1,33.86,33.86,0,0,1,8.62,8.1,27.88,27.88,0,0,1,4.52,8.15,35.68,35.68,0,0,1,2,11.83,41.66,41.66,0,0,1-1.34,11.51,30.67,30.67,0,0,1-4.5,9,40.37,40.37,0,0,1-8.47,8A32.13,32.13,0,0,1,308,84.47a42.64,42.64,0,0,1-12.83,1.87,43.68,43.68,0,0,1-12.46-1.63,36,36,0,0,1-9.12-4,34.67,34.67,0,0,1-7.52-6.91,32.87,32.87,0,0,1-5.86-10.09A35.11,35.11,0,0,1,258.19,51.7Zm36.49,32.7a36.45,36.45,0,0,0,9.18-1.24,23,23,0,0,0,8.44-4.1,22.14,22.14,0,0,0,5.76-6.52,33.83,33.83,0,0,0,3.34-9.38,53.13,53.13,0,0,0,1.26-11.46,48.87,48.87,0,0,0-2.1-14.14,25.55,25.55,0,0,0-5.31-9.49,25.18,25.18,0,0,0-8.89-6.47,27.29,27.29,0,0,0-11.1-2.29,28.52,28.52,0,0,0-9.36,1.58,23.8,23.8,0,0,0-7.52,4,24.44,24.44,0,0,0-5.47,6.94,38.81,38.81,0,0,0-3.84,9.91,41.14,41.14,0,0,0-1.31,9.57,43.12,43.12,0,0,0,1.31,9.88,36.62,36.62,0,0,0,3.6,9.57A29.94,29.94,0,0,0,278.31,78a23.5,23.5,0,0,0,16.38,6.44Z" transform="translate(-7.87 -5.58)"/><path d="M338.8,21l-.05-2.52q8.15,0,11.94-.42,1.47-.16,2.05-.16t1.42.05a29.23,29.23,0,0,1,4.1,4.21l.95,1.05,11.1,12.25,1.58,1.89q3.36,3.94,6.13,6.73t10.75,11.62l12.57,13.93q1.84,2.05,4.73,5.1l.05-.84q-.31-7.31-.31-7.73L406,63l-.11-4.94V55.8q0-2.15-.37-13.3-.05-1.52-.42-5.76t-.37-7.44q0-5.78-.68-6.73-.47-.68-4.47-1.42-.95-.05-2.95-.32a14.72,14.72,0,0,1-2.79-.26,1.89,1.89,0,0,1-.84-.89,4.84,4.84,0,0,1,.47-1.58,9.79,9.79,0,0,1,2.79-.42,22.76,22.76,0,0,1,3.65.37,23.77,23.77,0,0,0,3.92.37q2.42,0,7.52-.32,2.89-.21,4-.21h.89l-.1,1.63a6.85,6.85,0,0,1-2.31.45,12,12,0,0,0-2.73.45,6,6,0,0,0-2.26,1,4.12,4.12,0,0,0-1.26,2.79l.58,16.61.42,7.62-.05,2.21.31,10.57q.32,10.83.32,18.82,0,1.73-.21,7.52l-2.45.21q-1.84-2.1-12.68-13.25-2.52-2.58-3.42-3.63l-4.52-5.2q-2.63-2.89-3.42-3.68l-1.16-1.16q-5.73-6.52-14.89-16.3-2.47-2.63-7.26-8.2-3-3.52-3.79-4.31a18.8,18.8,0,0,0-2.16-1.79L353.05,32q0,10.25.53,28.28l.37,17.4q.05,2.21.26,4.26l1.84.42q5,.47,9.83,1.42a4.75,4.75,0,0,0,.63.47l-.05,2a4.84,4.84,0,0,1-1.37.26,11.71,11.71,0,0,1-1.42-.11Q358.47,86,351,86q-5.26,0-9.25.26l-.74.05a12.86,12.86,0,0,1-1.37-.11l-.05-1.58L341,84l2.47-.37a24.7,24.7,0,0,0,4.84-1.05,3.85,3.85,0,0,0,1.63-1.1,72.67,72.67,0,0,0,.58-10.62q0-3.26-.16-11.93V51.8l-.11-14.93q-.11-10-.68-11.78a3.49,3.49,0,0,0-1.31-1.68A11.08,11.08,0,0,0,343,21.63,34.68,34.68,0,0,1,338.8,21Z" transform="translate(-7.87 -5.58)"/><path d="M490.56,21.47l.58,8q.32,3.63.32,4.94l-1.47.26q-3.52-8-8.75-12a20.48,20.48,0,0,0-12.8-4q-9.25,0-14.41,2.26a29.41,29.41,0,0,0-12.78,11.14q-5.31,7.94-5.31,19.13a32.7,32.7,0,0,0,1.95,11.62,35.24,35.24,0,0,0,5.5,9.59,37.37,37.37,0,0,0,8.39,7.7,23.32,23.32,0,0,0,7.52,3.26,34.77,34.77,0,0,0,7.36.58,31,31,0,0,0,7-.89,15.22,15.22,0,0,0,5.78-2.39,7.76,7.76,0,0,0,2.66-3.39q.71-1.89.71-7.36,0-9.09-1.21-10.59t-7.62-2l-2.1-.16-1.42.05-.84-.16-.79-1.31a1.2,1.2,0,0,1,.37-.68A101.42,101.42,0,0,1,481,54.69q2.05,0,6.68.11l5.42.21L498,55q1.42,0,3.42.1a.76.76,0,0,1,.47.18.73.73,0,0,1,.1.45,5.45,5.45,0,0,1-.26,1.47,17.58,17.58,0,0,1-3.42.47l-3.42-.05a3.51,3.51,0,0,0-2.79,1.21q-.53.58-.53,3.94l.05,6.89q0,7.1-.58,9a4.37,4.37,0,0,1-1.31,2.08,15.07,15.07,0,0,1-4.21,2.18,40.83,40.83,0,0,1-8.31,2.47,78.15,78.15,0,0,1-13.41,1.21q-10.41,0-17.06-2.66a34.22,34.22,0,0,1-11.46-7.39A30.22,30.22,0,0,1,428.46,67a35.77,35.77,0,0,1-3.1-14.46,36.82,36.82,0,0,1,4.86-18q4.86-8.8,15.7-14.32,7.62-3.89,20.72-3.89a57.44,57.44,0,0,1,14.8,1.58A37.71,37.71,0,0,1,490.56,21.47Z" transform="translate(-7.87 -5.58)"/><path d="M502.86,83.61a2.73,2.73,0,0,1,1.31-.42h1.21q.37,0,1.26-.05a20.61,20.61,0,0,0,4.78-.74,8.09,8.09,0,0,0,3.15-3.47,126.57,126.57,0,0,0,6.15-15.19q1.63-4.68,2.05-5.68,1.31-3.15,2.53-6.62l4.94-13.83q1.16-3.26,5.58-14.93,1.1-2.94,2.68-7.89l1.55-.1,1.84.05a72.76,72.76,0,0,1,4,9.62q.95,2.73,3.1,8.15l8,21.61,4.25,11.72q3.36,10,4.42,12.27a8.88,8.88,0,0,0,1.95,3,7.79,7.79,0,0,0,2,.63q1.71.42,2.39.63a21.8,21.8,0,0,1,3.37,1.16,2.87,2.87,0,0,1,.21.89,3.06,3.06,0,0,1-.16.79q-1.68.05-2.37.05-2.68,0-9.46-.16L558.28,85l-6.36.08q-.63,0-1.29-.06c-.44,0-.82-.06-1.13-.06h-1.16a2.6,2.6,0,0,1-1.05-.32,3.91,3.91,0,0,1,.26-1.42,3.37,3.37,0,0,1,1.16-.37l5.52-.37a9.85,9.85,0,0,0,3.26-.58,5,5,0,0,0,.32-1.42,22.87,22.87,0,0,0-1.37-4.9q-.94-2.63-1.65-5T549.19,55a22.85,22.85,0,0,0-3.79-.37l-11.25.1-3.31-.05a32.8,32.8,0,0,0-3.94.26q-.68,1.58-.89,2.26l-4.63,14.46q-2.95,8.25-2.94,9.09a4.77,4.77,0,0,0,.47,1.58,23,23,0,0,0,2.95.58l7.15.63q.58.47.58.84a3,3,0,0,1-.16.79q-2.37.05-3.63.05-4.21,0-9.78-.26-2.58-.1-3.68-.11t-3.84.11q-1.79.11-2.58.11-1.26,0-3.26-.16V84.6A3.41,3.41,0,0,1,502.86,83.61ZM528,52.06q5.63.32,12.83.32,4.1,0,7.2-.26a35.47,35.47,0,0,0-1.21-3.84q-3.41-9.14-3.78-10.09l-4.78-12.14-.52-.95q-.32.63-2.32,5.41-3.37,8.2-4.84,12.77-.69,2.05-1.42,4.07a27.82,27.82,0,0,0-.92,2.84,9.11,9.11,0,0,1-.55,1.66Z" transform="translate(-7.87 -5.58)"/><path d="M577.79,20.21V18.58a11.83,11.83,0,0,1,1.42-.26l4.94-.27q6.15-.55,13.78-.88,3-.1,9.62-.1,8.94,0,13.09,1.31a17.72,17.72,0,0,1,9,5.86,14.06,14.06,0,0,1,3,8.7q0,7.78-11.1,13.09l-.26.39a27,27,0,0,1,9.31,4.26,18.58,18.58,0,0,1,5.57,6.68,17.28,17.28,0,0,1,1.42,7.57q0,7.84-7.12,14T610.81,85H603l-7.94.26q-10.52.1-12.3.11t-3.63-.16v-.59a1.29,1.29,0,0,1,.26-.92,2.59,2.59,0,0,1,1.21-.54q6.57-1.36,7.44-1.86a2.56,2.56,0,0,0,1.18-1.6q.63-2.1.63-10.81,0-.79-.05-2-.11-3.52-.1-4V57.42q0-13.85-.32-24.19l-.05-10.55-.05-1.31q-4.47-.63-7.89-.79A18.36,18.36,0,0,1,577.79,20.21Zm20.82,26.55a28.22,28.22,0,0,0,5.53.53q11.38,0,15.44-5t4.06-9.94a15.1,15.1,0,0,0-.71-4.49,10.1,10.1,0,0,0-2.53-4.13A11.17,11.17,0,0,0,615.9,21a29.53,29.53,0,0,0-9.38-1.52,33.08,33.08,0,0,0-8.32,1c0,.74-.05,1.28-.05,1.63s0,1.35.1,3q.05,1.58.05,3.15l-.16,6.36.05,3.78.37,7.41ZM611,82.5a22.21,22.21,0,0,0,8.74-2.21,17.39,17.39,0,0,0,3.87-3A15.17,15.17,0,0,0,627.08,72a15.62,15.62,0,0,0,1.24-5.89,20.66,20.66,0,0,0-.87-5.31,14,14,0,0,0-3-5.55,15.09,15.09,0,0,0-6.19-3.94,25.48,25.48,0,0,0-9.06-1.55q-9.59,0-10.75.37-.05,1.21-.05,1.79l.05,1.95-.05,3.94v4.47q.16,12.35.58,14.61a6,6,0,0,0,2.87,3.89Q604.36,82.45,611,82.5Z" transform="translate(-7.87 -5.58)"/><path d="M638.68,83.61a2.73,2.73,0,0,1,1.31-.42h1.21q.37,0,1.26-.05a20.61,20.61,0,0,0,4.78-.74,8.09,8.09,0,0,0,3.15-3.47,126.57,126.57,0,0,0,6.15-15.19q1.63-4.68,2.05-5.68,1.31-3.15,2.53-6.62l4.94-13.83q1.16-3.26,5.58-14.93,1.1-2.94,2.68-7.89l1.55-.1,1.84.05a72.76,72.76,0,0,1,4,9.62q.95,2.73,3.1,8.15l8,21.61L697,65.84q3.36,10,4.42,12.27a8.88,8.88,0,0,0,1.95,3,7.79,7.79,0,0,0,2,.63q1.71.42,2.39.63a21.8,21.8,0,0,1,3.37,1.16,2.87,2.87,0,0,1,.21.89,3.06,3.06,0,0,1-.16.79q-1.68.05-2.37.05-2.68,0-9.46-.16L694.1,85l-6.36.08q-.63,0-1.29-.06c-.44,0-.82-.06-1.13-.06h-1.16a2.6,2.6,0,0,1-1.05-.32,3.91,3.91,0,0,1,.26-1.42,3.37,3.37,0,0,1,1.16-.37l5.52-.37a9.85,9.85,0,0,0,3.26-.58,5,5,0,0,0,.32-1.42,22.87,22.87,0,0,0-1.37-4.9q-.94-2.63-1.65-5T685,55a22.85,22.85,0,0,0-3.79-.37l-11.25.1-3.31-.05a32.8,32.8,0,0,0-3.94.26q-.68,1.58-.89,2.26l-4.63,14.46q-2.95,8.25-2.94,9.09a4.77,4.77,0,0,0,.47,1.58,23,23,0,0,0,2.95.58l7.15.63q.58.47.58.84a3,3,0,0,1-.16.79q-2.37.05-3.63.05-4.21,0-9.78-.26-2.58-.1-3.68-.11t-3.84.11q-1.79.11-2.58.11-1.26,0-3.26-.16V84.6A3.41,3.41,0,0,1,638.68,83.61Zm25.09-31.54q5.63.32,12.83.32,4.1,0,7.2-.26a35.47,35.47,0,0,0-1.21-3.84q-3.41-9.14-3.78-10.09L674,26.05l-.52-.95q-.32.63-2.32,5.41-3.37,8.2-4.84,12.77-.69,2.05-1.42,4.07A27.82,27.82,0,0,0,664,50.2a9.11,9.11,0,0,1-.55,1.66Z" transform="translate(-7.87 -5.58)"/><path d="M704.36,17.58h2.52q1.37,0,6,.14Q720,18,724.76,18l6.15-.1a14.77,14.77,0,0,1,2.52.21,1.34,1.34,0,0,1,.37.89v.58l-1.32.63h-.58l-3,.05-1.53-.05a4.91,4.91,0,0,0-2.91.79,1.57,1.57,0,0,0-.84,1.21,3.3,3.3,0,0,0,.74,1.73q.26.42.84,1.26Q726.29,27,728,29.36q2.47,3.47,5.26,8.21,1.1,1.9,2.32,3.63l8,12.1q.79-1,2.16-2.95l7.59-10.89,8.75-13.1a10.46,10.46,0,0,0,1.37-2.63,3.71,3.71,0,0,0,.1-.89,2.08,2.08,0,0,0-1-1.79q-1.63-1.1-7-1.63l-1-.16a2.22,2.22,0,0,1-.37-1.05,4.84,4.84,0,0,1,.05-.68l2.73-.05,9.89.26,7.94-.16,2.21.05-.16,1.84a6,6,0,0,1-1.16.16l-1.26.16c-.21,0-.54.07-1,.1a7.23,7.23,0,0,0-1.74.89,173.64,173.64,0,0,0-13.15,15.4q-5.42,7.25-9.15,13.19-1.21,1.95-1.95,2.89a10.37,10.37,0,0,0-1.63,2.63,24.64,24.64,0,0,0-.58,6.21q0,16.38.58,19.33.31,1.48.84,1.79,1.37.68,10.88,1.63v.62a4,4,0,0,1-.37,1.49l-13.48-.58-9,.47h-7.37q-1.05,0-2.32-.05a2.82,2.82,0,0,1-.21-.84,2.52,2.52,0,0,1,.16-.74,1.48,1.48,0,0,1,.74-.37l6.81-1.05a16.7,16.7,0,0,0,4-1.58,3.21,3.21,0,0,0,.79-1.95q.05-.95.05-14.61a31.47,31.47,0,0,0-.34-6.23,19.09,19.09,0,0,0-2.23-4L727.81,44,716.08,26.94A23,23,0,0,0,710.77,21q-1-.68-5-1a11.17,11.17,0,0,1-1.26-.1Z" transform="translate(-7.87 -5.58)"/></g><g id="NEWS_INSPIRATION_FROM_NATURE_S_FRONTLINE" data-name="NEWS &amp; INSPIRATION FROM NATURE’S FRONTLINE"><path d="M167,106.49h2.17l11,16.69h.05V106.49H182v19.06H179.8l-11-16.69h-.05v16.69H167Z" transform="translate(-7.87 -5.58)"/><path d="M186.94,106.49H198v1.62h-9.39v6.78h8.8v1.62h-8.8v7.43h9.8v1.62H186.94Z" transform="translate(-7.87 -5.58)"/><path d="M199.75,106.49h1.74l4.5,16.88H206l4.58-16.88h2.15l4.58,16.88h.05l4.5-16.88h1.74l-5.27,19.06H216.3l-4.58-17h-.05l-4.58,17H205Z" transform="translate(-7.87 -5.58)"/><path d="M226.73,122a4.45,4.45,0,0,0,1.73,1.8,4.88,4.88,0,0,0,2.42.59,4.61,4.61,0,0,0,1.59-.27,4,4,0,0,0,1.29-.75,3.52,3.52,0,0,0,.87-1.17,3.61,3.61,0,0,0,.32-1.55,3.1,3.1,0,0,0-.4-1.64,3.26,3.26,0,0,0-1.06-1.06,7.65,7.65,0,0,0-1.5-.71l-1.71-.59a18.1,18.1,0,0,1-1.71-.67,5.71,5.71,0,0,1-1.5-1,4.36,4.36,0,0,1-1.06-1.52,5.68,5.68,0,0,1-.4-2.26,5.12,5.12,0,0,1,.47-2.25,4.77,4.77,0,0,1,1.28-1.64,5.6,5.6,0,0,1,1.85-1,7.17,7.17,0,0,1,2.2-.34,6.82,6.82,0,0,1,2.75.55,5.28,5.28,0,0,1,2.19,1.84l-1.46,1.1a4.37,4.37,0,0,0-1.5-1.41,4.16,4.16,0,0,0-2-.47,5.27,5.27,0,0,0-1.56.23,3.82,3.82,0,0,0-1.29.67,3.28,3.28,0,0,0-.88,1.12,3.54,3.54,0,0,0-.33,1.59,3.17,3.17,0,0,0,.69,2.19,4.85,4.85,0,0,0,1.73,1.21,17.64,17.64,0,0,0,2.25.78,10.58,10.58,0,0,1,2.25.9,4.94,4.94,0,0,1,1.73,1.57,4.88,4.88,0,0,1,.69,2.79,5.39,5.39,0,0,1-.46,2.29,5,5,0,0,1-1.24,1.68,5.31,5.31,0,0,1-1.8,1A6.54,6.54,0,0,1,231,126a8.15,8.15,0,0,1-3.3-.66,6.11,6.11,0,0,1-2.58-2.22Z" transform="translate(-7.87 -5.58)"/><path d="M257.09,120l2.61-5h1.74l-3.27,6.08,4.12,4.55H260l-2.71-3.07a10.15,10.15,0,0,1-2.42,2.49,5.43,5.43,0,0,1-3.21.93,5.94,5.94,0,0,1-2.16-.39,5.09,5.09,0,0,1-1.75-1.12,5.33,5.33,0,0,1-1.18-1.75,5.79,5.79,0,0,1-.44-2.29,4.87,4.87,0,0,1,.36-1.94,5.42,5.42,0,0,1,.93-1.48,7.76,7.76,0,0,1,1.32-1.17q.74-.52,1.53-1l-.78-1a8.65,8.65,0,0,1-.7-1.09,7.45,7.45,0,0,1-.51-1.17,3.88,3.88,0,0,1-.2-1.25,4.33,4.33,0,0,1,.37-1.83,4,4,0,0,1,1-1.36,4.43,4.43,0,0,1,1.46-.85,5.11,5.11,0,0,1,1.73-.3,4.11,4.11,0,0,1,1.53.3,4.29,4.29,0,0,1,1.32.82,3.79,3.79,0,0,1,.91,1.26,4,4,0,0,1,.33,1.66,4.23,4.23,0,0,1-.35,1.78,4.76,4.76,0,0,1-.92,1.35,7.21,7.21,0,0,1-1.29,1q-.72.46-1.48.89Zm-5.83-4q-.61.38-1.21.81a7.73,7.73,0,0,0-1.1,1,4.41,4.41,0,0,0-.81,1.18,3.5,3.5,0,0,0-.31,1.49,4,4,0,0,0,.32,1.64,3.85,3.85,0,0,0,.87,1.25,3.78,3.78,0,0,0,1.3.81,4.51,4.51,0,0,0,1.6.28,3.68,3.68,0,0,0,1.34-.24,4.8,4.8,0,0,0,1.16-.65,6.63,6.63,0,0,0,1-.93,9.54,9.54,0,0,0,.84-1.12Zm1.25-8.37a2.74,2.74,0,0,0-1.94.74,2.55,2.55,0,0,0-.79,2,2.82,2.82,0,0,0,.19,1,5.9,5.9,0,0,0,.49,1,8.53,8.53,0,0,0,.64.92l.63.78,1.13-.65a6.13,6.13,0,0,0,1.07-.81,4.22,4.22,0,0,0,.81-1,2.71,2.71,0,0,0,.32-1.33,2.49,2.49,0,0,0-.72-1.84A2.47,2.47,0,0,0,252.51,107.62Z" transform="translate(-7.87 -5.58)"/><path d="M271.77,106.49h1.69v19.06h-1.69Z" transform="translate(-7.87 -5.58)"/><path d="M278.42,106.49h2.17l11,16.69h.05V106.49h1.69v19.06h-2.17l-11-16.69h-.05v16.69h-1.69Z" transform="translate(-7.87 -5.58)"/><path d="M298.81,122a4.45,4.45,0,0,0,1.73,1.8,4.88,4.88,0,0,0,2.42.59,4.61,4.61,0,0,0,1.59-.27,4,4,0,0,0,1.29-.75,3.52,3.52,0,0,0,.87-1.17,3.61,3.61,0,0,0,.32-1.55,3.1,3.1,0,0,0-.4-1.64,3.26,3.26,0,0,0-1.06-1.06,7.65,7.65,0,0,0-1.5-.71l-1.71-.59a18.1,18.1,0,0,1-1.71-.67,5.71,5.71,0,0,1-1.5-1,4.36,4.36,0,0,1-1.06-1.52,5.68,5.68,0,0,1-.4-2.26,5.12,5.12,0,0,1,.47-2.25,4.77,4.77,0,0,1,1.28-1.64,5.6,5.6,0,0,1,1.85-1,7.17,7.17,0,0,1,2.2-.34,6.82,6.82,0,0,1,2.75.55,5.28,5.28,0,0,1,2.19,1.84l-1.46,1.1a4.37,4.37,0,0,0-1.5-1.41,4.16,4.16,0,0,0-2-.47,5.27,5.27,0,0,0-1.56.23,3.82,3.82,0,0,0-1.29.67,3.28,3.28,0,0,0-.88,1.12,3.54,3.54,0,0,0-.33,1.59,3.17,3.17,0,0,0,.69,2.19,4.85,4.85,0,0,0,1.73,1.21,17.64,17.64,0,0,0,2.25.78,10.58,10.58,0,0,1,2.25.9,4.94,4.94,0,0,1,1.73,1.57,4.88,4.88,0,0,1,.69,2.79,5.39,5.39,0,0,1-.46,2.29,5,5,0,0,1-1.24,1.68,5.31,5.31,0,0,1-1.8,1,6.54,6.54,0,0,1-2.12.35,8.15,8.15,0,0,1-3.3-.66,6.11,6.11,0,0,1-2.58-2.22Z" transform="translate(-7.87 -5.58)"/><path d="M312.54,106.49h5.22a9.2,9.2,0,0,1,2,.23,5.61,5.61,0,0,1,1.89.79,4.38,4.38,0,0,1,1.41,1.55,5,5,0,0,1,.55,2.46,5.17,5.17,0,0,1-.45,2.23,4.33,4.33,0,0,1-1.2,1.55,5.08,5.08,0,0,1-1.74.9,7.08,7.08,0,0,1-2.06.3h-3.91v9h-1.69Zm1.69,8.4h3.84a5.68,5.68,0,0,0,1.41-.17,3.53,3.53,0,0,0,1.23-.57,2.88,2.88,0,0,0,.87-1,3.44,3.44,0,0,0,.33-1.59,3.28,3.28,0,0,0-.35-1.56,3.22,3.22,0,0,0-.9-1.06,3.57,3.57,0,0,0-1.27-.61,5.6,5.6,0,0,0-1.43-.19h-3.73Z" transform="translate(-7.87 -5.58)"/><path d="M327.22,106.49h1.69v19.06h-1.69Z" transform="translate(-7.87 -5.58)"/><path d="M333.87,106.49h4.76l1,0a9.41,9.41,0,0,1,1.33.16,7.88,7.88,0,0,1,1.46.43,4.09,4.09,0,0,1,1.33.86,4.48,4.48,0,0,1,1,1.43,5.14,5.14,0,0,1,.38,2.1,5,5,0,0,1-.45,2.26,4.34,4.34,0,0,1-1.13,1.44,4.66,4.66,0,0,1-1.5.82,9.31,9.31,0,0,1-1.56.38l5.27,9.15H343.8l-5.09-9h-3.15v9h-1.69Zm1.69,8.4h3.58a5.63,5.63,0,0,0,2.16-.35,3.57,3.57,0,0,0,1.29-.86,2.77,2.77,0,0,0,.63-1.1,3.57,3.57,0,0,0,0-2.15,2.77,2.77,0,0,0-.63-1.1,3.57,3.57,0,0,0-1.29-.86,5.63,5.63,0,0,0-2.16-.35h-3.58Z" transform="translate(-7.87 -5.58)"/><path d="M354.59,106.49h1.74l7.62,19.06h-1.89l-2-5.06H350.5l-2,5.06h-1.76Zm.79,1.94-4.22,10.44h8.31Z" transform="translate(-7.87 -5.58)"/><path d="M368.83,108.11h-6.19v-1.62h14.07v1.62h-6.19v17.44h-1.69Z" transform="translate(-7.87 -5.58)"/><path d="M379.5,106.49h1.69v19.06H379.5Z" transform="translate(-7.87 -5.58)"/><path d="M385,116a11.27,11.27,0,0,1,.69-4,9.62,9.62,0,0,1,1.92-3.16,8.68,8.68,0,0,1,3-2.09,9.95,9.95,0,0,1,7.6,0,8.68,8.68,0,0,1,3,2.09A9.63,9.63,0,0,1,403,112a12,12,0,0,1,0,8,9.6,9.6,0,0,1-1.92,3.18,8.53,8.53,0,0,1-3,2.07,10.12,10.12,0,0,1-7.6,0,8.53,8.53,0,0,1-3-2.07,9.59,9.59,0,0,1-1.92-3.18A11.38,11.38,0,0,1,385,116Zm1.69,0a10,10,0,0,0,.54,3.31,8,8,0,0,0,1.53,2.67,7.1,7.1,0,0,0,2.42,1.78,8.18,8.18,0,0,0,6.37,0,7.11,7.11,0,0,0,2.42-1.78,8,8,0,0,0,1.53-2.67,10.47,10.47,0,0,0,0-6.62,8,8,0,0,0-1.53-2.67,7.11,7.11,0,0,0-2.42-1.78,8.18,8.18,0,0,0-6.37,0,7.1,7.1,0,0,0-2.42,1.78,8,8,0,0,0-1.53,2.67A10,10,0,0,0,386.66,116Z" transform="translate(-7.87 -5.58)"/><path d="M407.48,106.49h2.17l11,16.69h.05V106.49h1.69v19.06h-2.17l-11-16.69h-.05v16.69h-1.69Z" transform="translate(-7.87 -5.58)"/><path d="M434,106.49h10.84v1.62h-9.16v6.78h8.52v1.62h-8.52v9H434Z" transform="translate(-7.87 -5.58)"/><path d="M448.25,106.49H453l1,0a9.41,9.41,0,0,1,1.33.16,7.87,7.87,0,0,1,1.46.43,4.1,4.1,0,0,1,1.33.86,4.49,4.49,0,0,1,1,1.43,5.14,5.14,0,0,1,.38,2.1,5,5,0,0,1-.45,2.26,4.33,4.33,0,0,1-1.12,1.44,4.67,4.67,0,0,1-1.5.82,9.29,9.29,0,0,1-1.56.38l5.27,9.15h-1.92l-5.09-9h-3.15v9h-1.69Zm1.69,8.4h3.58a5.64,5.64,0,0,0,2.16-.35,3.57,3.57,0,0,0,1.29-.86,2.76,2.76,0,0,0,.63-1.1,3.57,3.57,0,0,0,0-2.15,2.76,2.76,0,0,0-.63-1.1,3.57,3.57,0,0,0-1.29-.86,5.64,5.64,0,0,0-2.16-.35h-3.58Z" transform="translate(-7.87 -5.58)"/><path d="M462.24,116a11.26,11.26,0,0,1,.69-4,9.61,9.61,0,0,1,1.92-3.16,8.68,8.68,0,0,1,3-2.09,9.95,9.95,0,0,1,7.6,0,8.68,8.68,0,0,1,3,2.09,9.61,9.61,0,0,1,1.92,3.16,12,12,0,0,1,0,8,9.59,9.59,0,0,1-1.92,3.18,8.53,8.53,0,0,1-3,2.07,10.12,10.12,0,0,1-7.6,0,8.52,8.52,0,0,1-3-2.07,9.59,9.59,0,0,1-1.92-3.18A11.37,11.37,0,0,1,462.24,116Zm1.69,0a10,10,0,0,0,.54,3.31A8,8,0,0,0,466,122a7.1,7.1,0,0,0,2.42,1.78,8.18,8.18,0,0,0,6.37,0A7.1,7.1,0,0,0,477.2,122a7.93,7.93,0,0,0,1.53-2.67,10.47,10.47,0,0,0,0-6.62A7.93,7.93,0,0,0,477.2,110a7.1,7.1,0,0,0-2.42-1.78,8.18,8.18,0,0,0-6.37,0A7.1,7.1,0,0,0,466,110a8,8,0,0,0-1.54,2.67A10,10,0,0,0,463.93,116Z" transform="translate(-7.87 -5.58)"/><path d="M484.57,106.49h2.53l6.6,16,6.6-16h2.4v19.06H501V108.75H501l-6.91,16.79h-.74l-7-16.79h-.05v16.79h-1.69Z" transform="translate(-7.87 -5.58)"/><path d="M514.13,106.49h2.17l11,16.69h.05V106.49h1.69v19.06h-2.17l-11-16.69h-.05v16.69h-1.69Z" transform="translate(-7.87 -5.58)"/><path d="M539.58,106.49h1.74l7.62,19.06H547l-2-5.06h-9.59l-2,5.06h-1.76Zm.79,1.94-4.22,10.44h8.31Z" transform="translate(-7.87 -5.58)"/><path d="M553.83,108.11h-6.19v-1.62H561.7v1.62h-6.19v17.44h-1.69Z" transform="translate(-7.87 -5.58)"/><path d="M577.36,118.25a12.7,12.7,0,0,1-.33,2.93,6.89,6.89,0,0,1-1.11,2.48,5.64,5.64,0,0,1-2,1.72,7.8,7.8,0,0,1-6.21,0,5.64,5.64,0,0,1-2-1.72,6.87,6.87,0,0,1-1.11-2.48,12.65,12.65,0,0,1-.33-2.93V106.49h1.69v11.3A14.19,14.19,0,0,0,566,120a6.82,6.82,0,0,0,.7,2.15,4.57,4.57,0,0,0,8.06,0,6.82,6.82,0,0,0,.7-2.15,14.32,14.32,0,0,0,.18-2.18v-11.3h1.69Z" transform="translate(-7.87 -5.58)"/><path d="M582,106.49h4.76l1,0a9.41,9.41,0,0,1,1.33.16,7.87,7.87,0,0,1,1.46.43,4.1,4.1,0,0,1,1.33.86,4.49,4.49,0,0,1,1,1.43,5.14,5.14,0,0,1,.38,2.1,5,5,0,0,1-.45,2.26,4.33,4.33,0,0,1-1.12,1.44,4.67,4.67,0,0,1-1.5.82,9.29,9.29,0,0,1-1.56.38l5.27,9.15h-1.92l-5.09-9h-3.15v9H582Zm1.69,8.4h3.58a5.64,5.64,0,0,0,2.16-.35,3.57,3.57,0,0,0,1.29-.86,2.76,2.76,0,0,0,.63-1.1,3.57,3.57,0,0,0,0-2.15,2.76,2.76,0,0,0-.63-1.1,3.57,3.57,0,0,0-1.29-.86,5.64,5.64,0,0,0-2.16-.35h-3.58Z" transform="translate(-7.87 -5.58)"/><path d="M597.15,106.49h11.08v1.62h-9.39v6.78h8.8v1.62h-8.8v7.43h9.8v1.62H597.15Z" transform="translate(-7.87 -5.58)"/><path d="M613,106.49h1.87l-2,6.14h-1.51Z" transform="translate(-7.87 -5.58)"/><path d="M619.45,122a4.45,4.45,0,0,0,1.73,1.8,4.88,4.88,0,0,0,2.42.59,4.61,4.61,0,0,0,1.59-.27,4,4,0,0,0,1.29-.75,3.52,3.52,0,0,0,.87-1.17,3.62,3.62,0,0,0,.32-1.55,3.09,3.09,0,0,0-.4-1.64,3.26,3.26,0,0,0-1.06-1.06,7.66,7.66,0,0,0-1.5-.71l-1.71-.59a18.08,18.08,0,0,1-1.71-.67,5.69,5.69,0,0,1-1.5-1,4.35,4.35,0,0,1-1.06-1.52,5.68,5.68,0,0,1-.4-2.26,5.12,5.12,0,0,1,.47-2.25,4.77,4.77,0,0,1,1.28-1.64,5.6,5.6,0,0,1,1.85-1,7.18,7.18,0,0,1,2.2-.34,6.82,6.82,0,0,1,2.75.55,5.28,5.28,0,0,1,2.19,1.84l-1.46,1.1a4.38,4.38,0,0,0-1.5-1.41,4.17,4.17,0,0,0-2-.47,5.26,5.26,0,0,0-1.56.23,3.83,3.83,0,0,0-1.29.67,3.28,3.28,0,0,0-.88,1.12,3.54,3.54,0,0,0-.33,1.59,3.17,3.17,0,0,0,.69,2.19,4.86,4.86,0,0,0,1.73,1.21,17.59,17.59,0,0,0,2.25.78,10.59,10.59,0,0,1,2.25.9,4.94,4.94,0,0,1,1.73,1.57,4.88,4.88,0,0,1,.69,2.79,5.4,5.4,0,0,1-.46,2.29,5,5,0,0,1-1.24,1.68,5.31,5.31,0,0,1-1.8,1,6.54,6.54,0,0,1-2.12.35,8.15,8.15,0,0,1-3.3-.66,6.11,6.11,0,0,1-2.58-2.22Z" transform="translate(-7.87 -5.58)"/><path d="M639.84,106.49h10.84v1.62h-9.16v6.78H650v1.62h-8.52v9h-1.69Z" transform="translate(-7.87 -5.58)"/><path d="M654.06,106.49h4.76l1,0a9.41,9.41,0,0,1,1.33.16,7.87,7.87,0,0,1,1.46.43,4.1,4.1,0,0,1,1.33.86,4.49,4.49,0,0,1,1,1.43,5.14,5.14,0,0,1,.38,2.1,5,5,0,0,1-.45,2.26,4.33,4.33,0,0,1-1.12,1.44,4.67,4.67,0,0,1-1.5.82,9.29,9.29,0,0,1-1.56.38l5.27,9.15H664l-5.09-9h-3.15v9h-1.69Zm1.69,8.4h3.58a5.64,5.64,0,0,0,2.16-.35,3.57,3.57,0,0,0,1.29-.86,2.76,2.76,0,0,0,.63-1.1,3.57,3.57,0,0,0,0-2.15,2.76,2.76,0,0,0-.63-1.1,3.57,3.57,0,0,0-1.29-.86,5.64,5.64,0,0,0-2.16-.35h-3.58Z" transform="translate(-7.87 -5.58)"/><path d="M668,116a11.26,11.26,0,0,1,.69-4,9.61,9.61,0,0,1,1.92-3.16,8.68,8.68,0,0,1,3-2.09,9.95,9.95,0,0,1,7.6,0,8.68,8.68,0,0,1,3,2.09,9.61,9.61,0,0,1,1.92,3.16,12,12,0,0,1,0,8,9.59,9.59,0,0,1-1.92,3.18,8.53,8.53,0,0,1-3,2.07,10.12,10.12,0,0,1-7.6,0,8.52,8.52,0,0,1-3-2.07,9.59,9.59,0,0,1-1.92-3.18A11.37,11.37,0,0,1,668,116Zm1.69,0a10,10,0,0,0,.54,3.31,8,8,0,0,0,1.54,2.67,7.1,7.1,0,0,0,2.42,1.78,8.18,8.18,0,0,0,6.37,0A7.1,7.1,0,0,0,683,122a7.93,7.93,0,0,0,1.53-2.67,10.47,10.47,0,0,0,0-6.62A7.93,7.93,0,0,0,683,110a7.1,7.1,0,0,0-2.42-1.78,8.18,8.18,0,0,0-6.37,0,7.1,7.1,0,0,0-2.42,1.78,8,8,0,0,0-1.54,2.67A10,10,0,0,0,669.74,116Z" transform="translate(-7.87 -5.58)"/><path d="M690.55,106.49h2.17l11,16.69h.05V106.49h1.69v19.06h-2.17l-11-16.69h-.05v16.69h-1.69Z" transform="translate(-7.87 -5.58)"/><path d="M714.47,108.11h-6.19v-1.62h14.07v1.62h-6.19v17.44h-1.69Z" transform="translate(-7.87 -5.58)"/><path d="M725.13,106.49h1.69v17.44h8.44v1.62H725.13Z" transform="translate(-7.87 -5.58)"/><path d="M737.92,106.49h1.69v19.06h-1.69Z" transform="translate(-7.87 -5.58)"/><path d="M744.57,106.49h2.17l11,16.69h.05V106.49h1.69v19.06h-2.17l-11-16.69h-.05v16.69h-1.69Z" transform="translate(-7.87 -5.58)"/><path d="M764.47,106.49h11.08v1.62h-9.39v6.78H775v1.62h-8.8v7.43H776v1.62H764.47Z" transform="translate(-7.87 -5.58)"/></g><g id="Layer_4_Image" data-name="Layer 4 Image"><path d="M126.24,57.88a9.34,9.34,0,0,0,.75-1.05q.93-1.83,1.8-3.7a1.64,1.64,0,0,0,.13-.82c-.11-1-.22-2.06-.41-3.08A2.5,2.5,0,0,0,128,48.1c-.49-.57-1.1-1-1.59-1.59a2.22,2.22,0,0,0-2.1-.83c-1.27.13-1.88-.63-1.7-1.9.07-.51.38-.87.87-.79a4,4,0,0,1,1.68.62,22.38,22.38,0,0,1,1.67,1.72c.7.66,1.33.49,1.52-.44a3.39,3.39,0,0,0-.06-1.65c-.33-1-.81-2-1.22-3a1.23,1.23,0,0,0-1.06-.89c-.66-.07-.87-.58-.9-1.17a1.62,1.62,0,0,1,1.06-1.64,1.06,1.06,0,0,1,1.34.48,9.7,9.7,0,0,1,.55,1.27c.68,1.48,1.33,3,2.06,4.43.18.35.62.56.94.84.24-.34.62-.64.71-1a8.93,8.93,0,0,0,.34-4.06,4.94,4.94,0,0,1,0-1.39,1.69,1.69,0,0,1,1.06-1.51c1-.42,1.61,0,1.63,1a4.14,4.14,0,0,1-.19,1.68,8.43,8.43,0,0,0-.39,3.75c0,.55,0,1.17.7,1.42a2.57,2.57,0,0,0,2.25-.47c.72-.77,1.44-1.55,2.2-2.29a3.25,3.25,0,0,1,.91-.57c.57-.27,1.09-.32,1.38.43s.17,1.27-.58,1.57-1.42.47-2.1.78a2,2,0,0,0-1,.76,11.69,11.69,0,0,0-.89,2.69c-.16.84.21,1.18,1.19,1.22,1.47.07,3,0,4.43.07,1,0,1.37.34,1.37,1.18,0,1.05-.49,1.48-1.58,1.32-1.46-.21-2.92-.44-4.37-.67a3,3,0,0,0-2.74.72,5.27,5.27,0,0,1-1.82,1,2.68,2.68,0,0,0-1.83,1.92c-.64,2.13-1.3,4.25-2,6.36a14.67,14.67,0,0,1-1.07,2.4c-.47.85-.91,1-1.72.47a20.83,20.83,0,0,1-2.48-1.86c-1.3-1.11-2.51-2.32-3.82-3.42s-1.78-1.1-2.41.63c-1.3,3.6-2.49,7.24-3.76,10.85-.6,1.71-1.26,3.39-1.93,5.08-1.46,3.68-4,6.67-6.56,9.56s-5.24,5.6-7.89,8.37a1,1,0,0,0-.23,1.32q3.64,7.94,7.19,15.91a24.21,24.21,0,0,1,.77,2.44,2.22,2.22,0,0,1-.77,2.64c-2,1.57-4,3.16-6,4.67-1.64,1.22-3.35,2.35-5,3.53a6.77,6.77,0,0,0-.85.67c-.15.15-.34.43-.29.55a.74.74,0,0,0,.56.32,18.27,18.27,0,0,0,2,0,3.54,3.54,0,0,0,2.84-1.08,3.46,3.46,0,0,1,2-.78c1-.17,1.69.53,1.79,1.67a1.6,1.6,0,0,1-1.45,1.71,5,5,0,0,1-1.67-.22,4.47,4.47,0,0,0-3.22.49c-.41.19-.57,1-.77,1.49,0,.09.33.45.53.47,1.91.19,3.82.36,5.73.46a10.91,10.91,0,0,0,1.84-.22c1.12-.13,1.8.23,2,1,.23,1.1-.42,2.61-1.26,2.85a1.88,1.88,0,0,1-1.9-.64c-1.41-1.48-3.28-1.48-5.09-1.69a2.37,2.37,0,0,0-.77.06c-.55.12-.83.49-.63,1,.45,1.2.85,2.41,2.25,3a3,3,0,0,1,1.3,4.11,1.1,1.1,0,0,1-1.51.55,3.88,3.88,0,0,1-2.41-2.63,27.09,27.09,0,0,0-1.79-4.44c-.16-.31-1-.32-1.53-.36-.1,0-.32.5-.34.77-.12,2.56-.19,5.12-.29,7.69-.06,1.7-.48,2-2.12,1.59a4.42,4.42,0,0,1-1.14-.47c-1.11-.66-1.41-1.81-.47-2.64,1.49-1.31,1.61-2.92,1.47-4.66-.07-.88-.18-1.75-.29-2.62a1,1,0,0,0-1-.9,2.59,2.59,0,0,0-2.08.64c-1.08,1-2.23,2-3.3,3.07-.28.27-.35.75-.56,1.1a3.43,3.43,0,0,1-.77,1.05,3.23,3.23,0,0,1-1.24.42,1.57,1.57,0,0,1-2.09-1.09,1.78,1.78,0,0,1,1-2.45,4,4,0,0,1,.94-.35c2.92-.52,4.56-2.6,5.93-4.95a13.72,13.72,0,0,0,1.06-2.49,5.19,5.19,0,0,1,2.25-2.86c2.2-1.36,4.39-2.75,6.54-4.2a21.6,21.6,0,0,0,2.71-2.19c.74-.69.68-1,.08-1.79-2.54-3.34-5.07-6.69-7.62-10-.55-.72-1.2-1.36-1.78-2.06a1.12,1.12,0,0,0-1.57-.27c-3.51,1.73-7,3.49-10.56,5.1a85.09,85.09,0,0,1-21.73,6.47,34.12,34.12,0,0,1-20.32-3.17c-8.64-4.08-15.67-10-20.33-18.43A50.57,50.57,0,0,1,8.19,74.6,26.11,26.11,0,0,1,9.39,62c1.79-5.4,3.83-10.67,7.37-15.23A53,53,0,0,1,31.12,34.27c1.33-.82,2.71-1.58,4.06-2.37l.14.17c-.25.23-.48.47-.74.69A86.27,86.27,0,0,0,20,48.06a41.9,41.9,0,0,0-7.1,14.74A28.61,28.61,0,0,0,14.27,81,42.37,42.37,0,0,0,29.62,100.2c6.56,4.42,13.86,5.9,21.69,5.17A49,49,0,0,0,62.14,103,24.61,24.61,0,0,0,67,100.75,42.38,42.38,0,0,0,75.25,94a18.06,18.06,0,0,0,5-9.95c.73-4.23,1.52-8.45,2.24-12.68.32-1.86,0-2.1-1.79-1.77a34.28,34.28,0,0,0-8.84,2.86,8.83,8.83,0,0,0-5,6,2.54,2.54,0,0,1-.36,1c-.33.39-.82,1-1.17.92a2.19,2.19,0,0,1-1.32-1,1.73,1.73,0,0,1,.51-2.09c1-.94,2-1.89,2.91-2.9a2.18,2.18,0,0,0,.16-2.28c-.21-.68-.82-.79-1.45-.81a12.3,12.3,0,0,0-4.65.7,4,4,0,0,0-1.93,1.36,1.56,1.56,0,0,1-2.7-.13c-.37-.6-.92-1.3-.36-2A2.45,2.45,0,0,1,59,70.1a12.2,12.2,0,0,0,5.08.08c1.45-.29,1.87-1.13,1.07-2.35a7.18,7.18,0,0,0-4.93-3.3,2.23,2.23,0,0,1-1.67-1.35c-.44-.83-.9-1.75-.18-2.61s1.62-.41,2.46-.19a2.27,2.27,0,0,1,1.58,1.47,4.81,4.81,0,0,0,.93,1.55,17.43,17.43,0,0,0,2.52,2.17c1,.68,1.73.26,1.62-.92a17.45,17.45,0,0,0-.77-4.09c-.2-.58-1-1-1.66-1.37a2.38,2.38,0,0,1-.5-3.39,1.17,1.17,0,0,1,1.62,0c.39.38.7.83,1.06,1.24a9.58,9.58,0,0,1,.8.82,4.28,4.28,0,0,1,.76,1.38c.28,1.26.43,2.55.66,3.82.09.48.17,1,.87,1s1.48.34,1.72-.78a9.6,9.6,0,0,1,.79-2c.37-.77.9-1,1.48-.69a1.4,1.4,0,0,1,.59,1.81,3.61,3.61,0,0,1-.68.83,14.93,14.93,0,0,1-1.44,1.3c-1.22.91-1.28,2.16-1.14,3.49a.89.89,0,0,0,.95.9,7.24,7.24,0,0,0,4.78-1.27A22,22,0,0,1,86.8,64c1.82-.3,2.41.12,2.74,2,.24,1.32.31,2.67.44,4s.19,2.58.36,3.86c.09.65.23,1.43,1,1.6s1.29-.45,1.58-1c.87-1.75,1.74-3.52,2.44-5.35a38.31,38.31,0,0,0,2.36-9.7,6.48,6.48,0,0,0-.34-1.82c-.57.17-1.14.33-1.7.53a1.76,1.76,0,0,0-.57.39c-1.92,1.83-4.25,2.08-6.74,1.77a13.88,13.88,0,0,0-1.63-.13,13.23,13.23,0,0,1-5.89-1.77,11.38,11.38,0,0,1-1.53-.76,5.11,5.11,0,0,0-5.39-.5,14.87,14.87,0,0,0-2.15,1.31c-.4.27-.79.83-1.26.37A7.19,7.19,0,0,1,69.41,57c0-.06.34-.45.56-.5.6-.15,1.23-.18,1.83-.31a9.91,9.91,0,0,0,1.93-.53c.67-.3.66-.87,0-1.19a4.36,4.36,0,0,0-1.41-.37c-.93-.1-1.86-.14-2.79-.17a4.29,4.29,0,0,0-.9.16,7,7,0,0,1-1.44.26,1.43,1.43,0,0,1-1.53-1,1.92,1.92,0,0,1,.53-2,1.81,1.81,0,0,1,2,0,.63.63,0,0,1,.12.09c1.47,1.65,3.21,1.16,4.93.59.9-.3,1-.82.34-1.49a6.8,6.8,0,0,0-3.71-2.25,2,2,0,0,1-1.21-.71,1.58,1.58,0,0,1,.32-2.1,1.8,1.8,0,0,1,2.21.52c1.13,1.44,2.28,2.88,3.46,4.28a1.67,1.67,0,0,0,1,.51c.78.11,1-.14,1.05-.95a8.28,8.28,0,0,0,0-1.32A3,3,0,0,1,77.44,46a1.27,1.27,0,0,0,.22-.48,2.13,2.13,0,0,1,2.79-1.45,1.2,1.2,0,0,1,.68.72c.15.57-.22,1-.73,1.23s-1.18.54-1.72.87a.81.81,0,0,0-.28.68c.14.74.37,1.45.56,2.18a1.2,1.2,0,0,0,1.23,1c1.58.13,3.07-.4,3.92-2.7a1.17,1.17,0,0,1,1.26-.91,1.07,1.07,0,0,1,1.15.94c.06.62-.33,1-.94,1.14a5.78,5.78,0,0,0-3.61,4,2.07,2.07,0,0,0,1.13,2.19,45.2,45.2,0,0,0,4.42,1.67,3.21,3.21,0,0,0,1.88-.11c3.47-1.22,6.43-3.06,8.09-6.57a7.33,7.33,0,0,1,1.85-2.26,40.39,40.39,0,0,1,5.05-4,2.66,2.66,0,0,0,1.34-2.83c-.26-2.75-.62-5.5-1-8.25-.22-1.75-.56-3.48-.69-5.23a17.29,17.29,0,0,1,2.06-9.37,29.67,29.67,0,0,1,9.74-10.9,14,14,0,0,1,3.77-1.75,3.93,3.93,0,0,1,4.87,2,12.88,12.88,0,0,1,1.53,5.1,50.08,50.08,0,0,1-.69,15.31,11.14,11.14,0,0,1-1.78,4.17c-1.66,2.4-3.54,4.66-5.4,6.91a5.52,5.52,0,0,0-1.23,2.27c-.94,3.94-.82,3.26,1.26,6s4.23,5.57,6.36,8.34C125.06,56.54,125.62,57.15,126.24,57.88Z" transform="translate(-7.87 -5.58)" style="fill:#690"/></g></svg>