<?xml version="1.0" encoding="utf-8"?>
<!-- Generator: Adobe Illustrator 20.1.0, SVG Export Plug-In . SVG Version: 6.00 Build 0)  -->
<svg version="1.1" id="Layer_1" xmlns="http://www.w3.org/2000/svg" xmlns:xlink="http://www.w3.org/1999/xlink" x="0px" y="0px"
	 viewBox="0 0 612.8 73.1" style="enable-background:new 0 0 612.8 73.1;" xml:space="preserve">
<title>mongabay_logo_fr</title>
<g id="MONGABAY">
	<path d="M0,69.3c1.1-0.7,3.1-1.3,5.9-1.6c2.2-0.1,3.5-0.3,3.9-0.6c0.3-0.2,0.5-0.5,0.6-0.8c0.5-1.3,0.9-4.8,1.2-10.5
		c0.3-7.5,0.8-17.4,1.6-29.8C13.7,16.6,14,10.7,14,8.3V7C11.5,6.5,7.5,5.9,2,5.3C1.7,5,1.6,4.5,1.5,4.1c0.1-0.3,0.2-0.7,0.4-1
		C2.3,3,2.8,2.9,3.2,2.8c0.6,0,1.2,0.1,1.8,0.2c2.3,0.3,4.7,0.4,7.1,0.4c1,0,2.6-0.1,5-0.2C18.8,3,19.8,3,20,3
		c0.7,0,1.3,0.1,1.9,0.3c0.3,0.3,0.6,0.6,0.8,1l2.2,4.9l14.9,32.9L46,56c4.3-8.3,8.1-16.9,11.3-25.7c0.2-0.5,0.4-1,0.6-1.5
		c0.3-0.6,0.6-1.3,0.9-2c0.3-0.7,1.4-3.5,3.4-8.4c0.8-2,1.5-3.6,1.9-5c2-5.6,3.2-8.8,3.5-9.6c0.5-0.3,1.1-0.4,1.7-0.4
		c0.7,0,1.4,0.1,2.2,0.2c2,0.1,5.2,0.2,9.6,0.2c2.7,0,5,0,6.8-0.1c0.1,0.3,0.1,0.6,0.1,0.8c0,0.3-0.1,0.7-0.2,1c-1.2,0.6-2.6,1-4,1
		c-2,0-4,0.3-5.9,0.7c-0.7,0.2-1.2,0.6-1.6,1.2c-0.4,1.6-0.6,3.2-0.6,4.8l0,2.3L75.7,18c0,5.3,0.1,14.1,0.4,26.5l-0.1,10.3l0.1,6.6
		c0,2.6,0.1,4.1,0.4,4.6c0.5,0.7,1.3,1.1,2.1,1.3c3,0.9,6.1,1.5,9.2,1.9c0.2,0.1,0.4,0.4,0.4,0.7c0,0.3,0,0.7-0.1,1.1h-2.4
		c-2.1,0-4.3-0.1-6.7-0.2l-3.9-0.2c-7.2,0-12,0.1-14.3,0.2c-1.4,0.1-2.4,0.2-2.7,0.2c-0.3,0-0.5-0.1-0.8-0.2v-0.7
		c0-0.3,0.1-0.7,0.2-1c1.5-0.6,3.1-0.9,4.7-1c1.7-0.4,3.3-1,4.8-1.9c0.4-2.7,0.6-5.4,0.5-8.2l-0.2-10.6c0-1.2,0.1-3.3,0.2-6.5
		c0.1-3.2,0.2-8.3,0.2-15.4c0-5.6-0.1-9.9-0.4-12.8c-0.6,1.2-1.8,3.9-3.5,8l-0.8,2l-0.1,0.3l-7.8,18.4l-2.8,7.1l-3.6,8.6
		c-1.6,4-2.9,7.5-4,10.5c-0.5,1.4-0.9,2.5-1.2,3.3L42.3,71c-4-11.6-8.7-23.4-14.2-35.6s-9.3-20.2-11.6-24.1c-0.3,1.5-0.6,5.9-1,13.1
		C15,33.3,14.8,43,14.8,53.6c0,3.7,0.3,7.5,0.7,11.2c0.1,1.1,0.6,2,1.5,2.7c0.9,0.6,3.1,0.9,6.8,1c1.3,0,2.7,0.1,4,0.3
		c0.2,0.4,0.3,0.8,0.4,1.2c0,0.3-0.1,0.6-0.3,0.9l-16.3-0.6c-1.2,0-3,0.1-5.6,0.2c-1.4,0.1-3.4,0.2-6,0.2L0,69.3z"/>
	<path d="M94,37c0-3.2,0.4-6.4,1.3-9.5c1.1-3.2,2.5-6.2,4.3-9.1c1.9-3.1,4.4-5.9,7.4-8.2c3.6-2.6,7.7-4.5,11.9-5.8
		c4.4-1.3,9-1.9,13.6-1.7c3.7,0,7.3,0.5,10.8,1.5c3.4,0.9,6.6,2.3,9.6,4.1c3.3,2.2,6.2,4.9,8.6,8.1c2,2.4,3.5,5.2,4.5,8.1
		c1.3,3.8,2,7.8,2,11.8c0.1,3.9-0.4,7.8-1.3,11.5c-1,3.2-2.5,6.3-4.5,9c-2.4,3.1-5.3,5.8-8.5,8c-3,2.2-6.4,3.9-9.9,4.9
		c-4.2,1.3-8.5,1.9-12.8,1.9c-4.2,0.1-8.4-0.5-12.5-1.6c-3.2-0.9-6.3-2.3-9.1-4c-2.8-1.9-5.4-4.2-7.5-6.9c-2.5-3-4.5-6.4-5.9-10.1
		C94.6,45.2,93.9,41.1,94,37z M130.4,69.7c3.1,0,6.2-0.4,9.2-1.2c3.1-0.8,5.9-2.2,8.4-4.1c2.3-1.8,4.3-4,5.8-6.5
		c1.6-2.9,2.7-6.1,3.3-9.4c0.8-3.8,1.3-7.6,1.3-11.5c0-4.8-0.7-9.6-2.1-14.1c-1.1-3.5-2.9-6.7-5.3-9.5c-2.5-2.8-5.5-5-8.9-6.5
		c-3.5-1.5-7.3-2.3-11.1-2.3c-3.2,0-6.4,0.5-9.4,1.6c-2.7,0.9-5.3,2.2-7.5,4c-2.2,2-4.1,4.3-5.5,6.9c-1.7,3.1-3,6.4-3.8,9.9
		c-0.8,3.1-1.3,6.3-1.3,9.6c0.1,3.3,0.5,6.6,1.3,9.9c0.7,3.3,2,6.6,3.6,9.6c1.5,2.7,3.4,5.1,5.6,7.2
		C118.5,67.5,124.4,69.8,130.4,69.7L130.4,69.7z"/>
	<path d="M174.6,6.3l0-2.5c5.4,0,9.4-0.1,11.9-0.4c1-0.1,1.7-0.2,2-0.2s0.9,0,1.4,0c1.5,1.3,2.9,2.7,4.1,4.2l1,1l11.1,12.2l1.6,1.9
		c2.2,2.6,4.3,4.9,6.1,6.7s5.4,5.7,10.8,11.6l12.6,13.9c1.2,1.4,2.8,3.1,4.7,5.1l0-0.8c-0.2-4.9-0.3-7.4-0.3-7.7l0.2-3.2l-0.1-4.9
		v-2.3c0-1.4-0.1-5.9-0.4-13.3c0-1-0.2-2.9-0.4-5.8c-0.2-2.8-0.4-5.3-0.4-7.4c0-3.9-0.2-6.1-0.7-6.7c-0.3-0.5-1.8-0.9-4.5-1.4
		c-0.6,0-1.6-0.1-3-0.3c-0.9,0-1.9-0.1-2.8-0.3c-0.4-0.2-0.7-0.5-0.8-0.9c0.1-0.5,0.2-1.1,0.5-1.6c0.9-0.3,1.8-0.4,2.8-0.4
		c1.2,0,2.4,0.1,3.6,0.4c1.3,0.2,2.6,0.4,3.9,0.4c1.6,0,4.1-0.1,7.5-0.3c1.9-0.1,3.3-0.2,4-0.2h0.9l-0.1,1.6
		c-0.7,0.3-1.5,0.4-2.3,0.5c-0.9,0-1.8,0.2-2.7,0.5c-0.8,0.2-1.6,0.5-2.3,1c-0.8,0.7-1.2,1.7-1.3,2.8l0.6,16.6l0.4,7.6l0,2.2
		l0.3,10.6c0.2,7.2,0.3,13.5,0.3,18.8c0,1.2-0.1,3.7-0.2,7.5l-2.5,0.2c-1.2-1.4-5.5-5.8-12.7-13.2c-1.7-1.7-2.8-2.9-3.4-3.6
		l-4.5-5.2c-1.8-1.9-2.9-3.2-3.4-3.7l-1.2-1.2c-3.8-4.3-8.8-9.8-14.9-16.3c-1.6-1.8-4.1-4.5-7.3-8.2c-2-2.3-3.3-3.8-3.8-4.3
		c-0.7-0.6-1.4-1.2-2.2-1.8l-0.1,1.8c0,6.8,0.2,16.3,0.5,28.3l0.4,17.4c0,1.5,0.1,2.9,0.3,4.3l1.8,0.4c3.3,0.3,6.6,0.8,9.8,1.4
		c0.2,0.2,0.4,0.3,0.6,0.5l0,2c-0.4,0.2-0.9,0.2-1.4,0.3c-0.5,0-0.9,0-1.4-0.1c-3.5-0.3-7.7-0.4-12.7-0.4c-3.5,0-6.6,0.1-9.2,0.3
		l-0.7,0.1c-0.5,0-0.9,0-1.4-0.1l0-1.6l1.4-0.6l2.5-0.4c1.6-0.2,3.3-0.5,4.8-1.1c0.6-0.2,1.2-0.6,1.6-1.1c0.5-3.5,0.6-7.1,0.6-10.6
		c0-2.2-0.1-6.2-0.2-11.9v-7.1L186,22.2c-0.1-6.7-0.3-10.6-0.7-11.8c-0.3-0.7-0.7-1.3-1.3-1.7c-1.6-1-3.4-1.6-5.3-1.8
		C177.4,6.8,176,6.6,174.6,6.3z"/>
	<path d="M326.3,6.8l0.6,8c0.2,2.4,0.3,4.1,0.3,4.9l-1.5,0.3c-2.3-5.3-5.3-9.3-8.8-12c-3.7-2.7-8.2-4.1-12.8-4
		c-6.2,0-11,0.8-14.4,2.3c-5.3,2.4-9.7,6.3-12.8,11.1c-3.5,5.3-5.3,11.7-5.3,19.1c-0.1,4,0.6,7.9,2,11.6c1.3,3.5,3.2,6.7,5.5,9.6
		c2.4,3,5.2,5.6,8.4,7.7c2.3,1.5,4.8,2.6,7.5,3.3c2.4,0.5,4.9,0.6,7.4,0.6c2.4,0,4.7-0.3,7-0.9c2.1-0.4,4-1.2,5.8-2.4
		c1.2-0.9,2.1-2,2.7-3.4c0.5-1.3,0.7-3.7,0.7-7.4c0-6.1-0.4-9.6-1.2-10.6s-3.3-1.7-7.6-2l-2.1-0.2l-1.4,0.1l-0.8-0.2l-0.8-1.3
		c0-0.3,0.2-0.5,0.4-0.7c3.9-0.4,7.9-0.5,11.8-0.4c1.4,0,3.6,0,6.7,0.1l5.4,0.2l4.9,0c0.9,0,2.1,0,3.4,0.1c0.2,0,0.3,0.1,0.5,0.2
		c0.1,0.1,0.1,0.3,0.1,0.5c0,0.5-0.1,1-0.3,1.5c-1.1,0.3-2.3,0.4-3.4,0.5l-3.4-0.1c-1.1,0-2.1,0.4-2.8,1.2c-0.4,0.4-0.5,1.7-0.5,3.9
		l0,6.9c0,4.7-0.2,7.7-0.6,9c-0.2,0.8-0.7,1.5-1.3,2.1c-1.3,0.9-2.7,1.7-4.2,2.2c-2.7,1.1-5.5,1.9-8.3,2.5
		c-4.4,0.8-8.9,1.2-13.4,1.2c-6.9,0-12.6-0.9-17.1-2.7c-4.3-1.7-8.2-4.2-11.5-7.4c-2.9-2.7-5.2-6-6.8-9.6c-2-4.6-3.1-9.5-3.1-14.5
		c0-6.3,1.7-12.5,4.9-18c3.2-5.9,8.5-10.6,15.7-14.3c5.1-2.6,12-3.9,20.7-3.9c5-0.1,10,0.4,14.8,1.6C320.4,4,323.5,5.2,326.3,6.8z"
		/>
	<path d="M338.6,68.9c0.4-0.2,0.8-0.4,1.3-0.4h1.2c0.2,0,0.7,0,1.3-0.1c1.6-0.1,3.2-0.3,4.8-0.7c1.4-0.8,2.5-2,3.2-3.5
		c2.4-4.9,4.4-10,6.2-15.2c1.1-3.1,1.8-5,2-5.7c0.9-2.1,1.7-4.3,2.5-6.6l4.9-13.8c0.8-2.2,2.6-7.1,5.6-14.9c0.7-2,1.6-4.6,2.7-7.9
		l1.5-0.1l1.8,0.1c1.6,3.1,2.9,6.3,4,9.6c0.6,1.8,1.7,4.5,3.1,8.2l8,21.6l4.2,11.7c2.2,6.7,3.7,10.8,4.4,12.3c0.4,1.1,1.1,2.1,2,3
		c0.6,0.3,1.3,0.5,2,0.6c1.1,0.3,1.9,0.5,2.4,0.6c1.2,0.3,2.3,0.7,3.4,1.2c0.1,0.3,0.2,0.6,0.2,0.9c0,0.3-0.1,0.5-0.2,0.8
		c-1.1,0-1.9,0.1-2.4,0.1c-1.8,0-4.9-0.1-9.5-0.2l-5.3-0.1l-6.4,0.1c-0.4,0-0.8,0-1.3-0.1c-0.4,0-0.8-0.1-1.1-0.1h-1.2
		c-0.4,0-0.7-0.1-1-0.3c0-0.5,0.1-1,0.3-1.4c0.4-0.2,0.8-0.3,1.2-0.4l5.5-0.4c1.1,0,2.2-0.2,3.3-0.6c0.2-0.5,0.3-0.9,0.3-1.4
		c-0.3-1.7-0.7-3.3-1.4-4.9c-0.6-1.8-1.2-3.4-1.7-5c-0.5-1.6-2.3-6.8-5.6-15.6c-1.3-0.2-2.5-0.4-3.8-0.4L369.9,40l-3.3-0.1
		c-1.3,0-2.6,0.1-3.9,0.3c-0.5,1.1-0.8,1.8-0.9,2.3L357.2,57c-2,5.5-2.9,8.5-2.9,9.1c0.1,0.5,0.2,1.1,0.5,1.6c1,0.3,2,0.5,3,0.6
		l7.2,0.6c0.4,0.3,0.6,0.6,0.6,0.8c0,0.3-0.1,0.5-0.2,0.8c-1.6,0-2.8,0.1-3.6,0.1c-2.8,0-6.1-0.1-9.8-0.3c-1.7-0.1-2.9-0.1-3.7-0.1
		c-0.7,0-2,0-3.8,0.1c-1.2,0.1-2.1,0.1-2.6,0.1c-0.8,0-1.9-0.1-3.3-0.2v-0.3C338.4,69.6,338.5,69.2,338.6,68.9z M363.8,37.4
		c3.8,0.2,8,0.3,12.8,0.3c2.7,0,5.1-0.1,7.2-0.3c-0.3-1.3-0.7-2.6-1.2-3.8c-2.3-6.1-3.5-9.5-3.8-10.1L374,11.4l-0.5-1
		c-0.2,0.4-1,2.2-2.3,5.4c-2.2,5.5-3.9,9.7-4.8,12.8c-0.5,1.4-0.9,2.7-1.4,4.1c-0.4,0.9-0.7,1.9-0.9,2.8c-0.1,0.6-0.3,1.1-0.5,1.7
		L363.8,37.4z"/>
	<path d="M413.6,5.5V3.9c0.5-0.1,0.9-0.2,1.4-0.3l4.9-0.3c4.1-0.4,8.7-0.7,13.8-0.9c2-0.1,5.2-0.1,9.6-0.1c6,0,10.3,0.4,13.1,1.3
		c3.5,1,6.7,3,9,5.9c1.9,2.5,3,5.5,3,8.7c0,5.2-3.7,9.5-11.1,13.1l-0.3,0.4c3.3,0.8,6.5,2.3,9.3,4.3c2.4,1.8,4.3,4,5.6,6.7
		c1,2.4,1.5,5,1.4,7.6c0,5.2-2.4,9.9-7.1,14c-4.7,4.1-11.3,6.1-19.7,6.1h-7.8l-7.9,0.3c-7,0.1-11.1,0.1-12.3,0.1s-2.4,0-3.6-0.2
		v-0.6c0-0.3,0.1-0.7,0.3-0.9c0.3-0.3,0.8-0.5,1.2-0.5c4.4-0.9,6.9-1.5,7.4-1.9c0.6-0.4,1-0.9,1.2-1.6c0.4-1.4,0.6-5,0.6-10.8
		c0-0.5,0-1.2,0-2c-0.1-2.3-0.1-3.7-0.1-4v-5.5c0-9.2-0.1-17.3-0.3-24.2l0-10.5l0-1.3c-3-0.4-5.6-0.7-7.9-0.8
		C416,5.9,414.7,5.8,413.6,5.5z M434.4,32.1c1.8,0.4,3.7,0.5,5.5,0.5c7.6,0,12.7-1.7,15.4-5c2.7-3.3,4.1-6.6,4.1-9.9
		c0-1.5-0.2-3-0.7-4.5c-0.5-1.6-1.4-3-2.5-4.1c-1.3-1.3-2.8-2.2-4.5-2.7c-3-1-6.2-1.5-9.4-1.5c-2.8,0-5.6,0.3-8.3,1
		c0,0.7,0,1.3,0,1.6s0,1.4,0.1,3c0,1.1,0,2.1,0,3.1l-0.2,6.4l0,3.8l0.4,7.4L434.4,32.1z M446.8,67.8c3-0.1,6-0.9,8.7-2.2
		c1.4-0.8,2.7-1.8,3.9-3c1.5-1.5,2.7-3.3,3.5-5.3c0.8-1.9,1.2-3.9,1.2-5.9c-0.1-1.8-0.3-3.6-0.9-5.3c-0.6-2.1-1.6-4-3-5.6
		c-1.7-1.8-3.8-3.2-6.2-3.9c-2.9-1.1-6-1.6-9.1-1.6c-6.4,0-10,0.1-10.8,0.4c0,0.8,0,1.4,0,1.8l0,1.9l0,3.9v4.5
		c0.1,8.2,0.3,13.1,0.6,14.6c0.4,1.6,1.4,3.1,2.9,3.9C439.3,67.2,442.3,67.8,446.8,67.8z"/>
	<path d="M474.5,68.9c0.4-0.2,0.8-0.4,1.3-0.4h1.2c0.2,0,0.7,0,1.3-0.1c1.6-0.1,3.2-0.3,4.8-0.7c1.4-0.8,2.5-2,3.2-3.5
		c2.4-4.9,4.4-10,6.2-15.2c1.1-3.1,1.8-5,2-5.7c0.9-2.1,1.7-4.3,2.5-6.6l4.9-13.8c0.8-2.2,2.6-7.1,5.6-14.9c0.7-2,1.6-4.6,2.7-7.9
		l1.5-0.1l1.8,0.1c1.6,3.1,2.9,6.3,4,9.6c0.6,1.8,1.7,4.5,3.1,8.2l8,21.6l4.2,11.7c2.2,6.7,3.7,10.8,4.4,12.3c0.4,1.1,1.1,2.1,2,3
		c0.6,0.3,1.3,0.5,2,0.6c1.1,0.3,1.9,0.5,2.4,0.6c1.2,0.3,2.3,0.7,3.4,1.2c0.1,0.3,0.2,0.6,0.2,0.9c0,0.3-0.1,0.5-0.2,0.8
		c-1.1,0-1.9,0.1-2.4,0.1c-1.8,0-4.9-0.1-9.5-0.2l-5.3-0.1l-6.4,0.1c-0.4,0-0.9,0-1.3-0.1c-0.4,0-0.8-0.1-1.1-0.1h-1.2
		c-0.4,0-0.7-0.1-1-0.3c0-0.5,0.1-1,0.3-1.4c0.4-0.2,0.8-0.3,1.2-0.4l5.5-0.4c1.1,0,2.2-0.2,3.3-0.6c0.2-0.5,0.3-0.9,0.3-1.4
		c-0.3-1.7-0.7-3.3-1.4-4.9c-0.6-1.8-1.2-3.4-1.7-5c-0.5-1.6-2.3-6.8-5.6-15.6c-1.3-0.2-2.5-0.4-3.8-0.4L505.7,40l-3.3-0.1
		c-1.3,0-2.6,0.1-3.9,0.3c-0.5,1.1-0.8,1.8-0.9,2.3L493,57c-2,5.5-2.9,8.5-2.9,9.1c0.1,0.5,0.2,1.1,0.5,1.6c1,0.3,2,0.5,3,0.6
		l7.2,0.6c0.4,0.3,0.6,0.6,0.6,0.8c0,0.3-0.1,0.5-0.2,0.8c-1.6,0-2.8,0.1-3.6,0.1c-2.8,0-6.1-0.1-9.8-0.3c-1.7-0.1-2.9-0.1-3.7-0.1
		s-2,0-3.8,0.1c-1.2,0.1-2.1,0.1-2.6,0.1c-0.8,0-1.9-0.1-3.3-0.2v-0.3C474.3,69.6,474.3,69.2,474.5,68.9z M499.5,37.4
		c3.8,0.2,8,0.3,12.8,0.3c2.7,0,5.1-0.1,7.2-0.3c-0.3-1.3-0.7-2.6-1.2-3.8c-2.3-6.1-3.5-9.5-3.8-10.1l-4.8-12.2l-0.5-1
		c-0.2,0.4-1,2.2-2.3,5.4c-2.2,5.5-3.9,9.7-4.8,12.8c-0.5,1.4-0.9,2.7-1.4,4.1c-0.4,0.9-0.7,1.9-0.9,2.9c-0.1,0.6-0.3,1.1-0.5,1.7
		L499.5,37.4z"/>
	<path d="M540.1,2.9h2.5c0.9,0,2.9,0,6,0.1c4.7,0.2,8.7,0.3,11.9,0.3l6.2-0.1c0.8,0,1.7,0.1,2.5,0.2c0.2,0.2,0.4,0.6,0.4,0.9v0.6
		l-1.3,0.6h-0.6l-3,0l-1.5,0c-1,0-2,0.2-2.9,0.8c-0.5,0.2-0.8,0.7-0.8,1.2c0.1,0.6,0.3,1.2,0.7,1.7c0.2,0.3,0.5,0.7,0.8,1.3
		c0.7,1.2,1.7,2.6,2.8,4.2c1.6,2.3,3.4,5,5.3,8.2c0.7,1.3,1.5,2.5,2.3,3.6l8,12.1c0.5-0.7,1.2-1.6,2.2-2.9l7.6-10.9l8.8-13.1
		c0.6-0.8,1-1.7,1.4-2.6c0.1-0.3,0.1-0.6,0.1-0.9c0-0.7-0.4-1.4-1-1.8c-1.1-0.7-3.4-1.3-7-1.6l-1-0.2c-0.2-0.3-0.3-0.7-0.4-1
		c0-0.2,0-0.5,0-0.7l2.7,0l9.9,0.3l7.9-0.2l2.2,0l-0.2,1.8c-0.4,0.1-0.8,0.1-1.2,0.2l-1.3,0.2c-0.2,0-0.5,0.1-1,0.1
		c-0.6,0.2-1.2,0.5-1.7,0.9c-4.7,4.9-9.1,10-13.2,15.4c-3.6,4.8-6.7,9.2-9.2,13.2c-0.8,1.3-1.5,2.3-2,2.9c-0.7,0.8-1.2,1.7-1.6,2.6
		c-0.5,2-0.7,4.1-0.6,6.2c0,10.9,0.2,17.4,0.6,19.3c0.2,1,0.5,1.6,0.8,1.8c0.9,0.5,4.5,1,10.9,1.6v0.6c0,0.5-0.2,1-0.4,1.5
		l-13.5-0.6l-9,0.5h-7.4c-0.7,0-1.5,0-2.3-0.1c-0.1-0.3-0.2-0.6-0.2-0.8c0-0.3,0.1-0.5,0.2-0.7c0.2-0.2,0.5-0.3,0.7-0.4l6.8-1.1
		c1.4-0.4,2.7-0.9,4-1.6c0.5-0.5,0.8-1.2,0.8-1.9c0-0.6,0.1-5.5,0-14.6c0.1-2.1,0-4.2-0.3-6.2c-0.6-1.4-1.3-2.8-2.2-4l-6.9-10.4
		l-11.7-17.1c-1.4-2.3-3.2-4.3-5.3-5.9c-0.7-0.5-2.3-0.8-5-1c-0.4,0-0.8,0-1.3-0.1L540.1,2.9z"/>
</g>
</svg>
